<svg xmlns="http://www.w3.org/2000/svg" xmlns:xlink="http://www.w3.org/1999/xlink" version="1.1"
  baseProfile="full" viewBox="0 0 200 200" width="200" height="200">
  <g fill="black">
    <polygon points="11,26 77,26 77,30 11,30 "></polygon>
    <polygon points="77,26 53,28 65,16 "></polygon>
    <polygon
      points="47,5.6 46.9,15.4 46.1,24.6 44.5,33.3 42.1,41.4 38.9,48.9 34.9,55.7 30.1,61.9 24.6,67.3 18.4,72 11.4,75.7 10.5,74.2 16,69 20.8,63.6 24.9,57.9 28.3,51.9 31.1,45.5 33.2,38.7 34.6,31.4 35.4,23.5 35.5,15.2 35,6.3 "></polygon>
    <polygon points="35.1,7.3 47,5.6 34.9,4.1 "></polygon>
    <polygon points="47,5.6 50.1,7.4 45.3,10.7 "></polygon>
    <polygon
      points="41.3,31.7 45.4,33.5 49.4,35.4 53.1,37.5 56.7,39.9 60,42.4 63,45.1 65.9,48 68.5,51 70.9,54.3 73.1,57.7 62.2,62.8 61.1,59.8 59.7,56.8 58.1,53.8 56.3,50.9 54.2,47.9 51.9,45 49.4,42.1 46.6,39.1 43.7,36.1 40.3,33.2 "></polygon>
    <polygon points="73.1,57.7 73.3,62.2 70.2,65.7 65.7,65.8 62.2,62.8 "></polygon>
    <polygon points="99,7 180,7 180,11 99,11 "></polygon>
    <polygon points="180,7 156,9 168,-3 "></polygon>
    <polygon points="88,28 191,28 191,32 88,32 "></polygon>
    <polygon points="191,28 171,30 181,19 "></polygon>
    <polygon points="95,45 185,45 185,49 95,49 "></polygon>
    <polygon points="185,45 169,47 177,38 "></polygon>
    <polygon points="105,57 174,57 174,61 105,61 "></polygon>
    <polygon points="174,57 158,59 166,50 "></polygon>
    <polygon points="88,70 191,70 191,74 88,74 "></polygon>
    <polygon points="191,70 171,72 181,61 "></polygon>
    <polygon
      points="27.1,78.3 31.1,78.9 35,79.2 38.6,79.7 42,80.3 45.2,81 48.1,81.8 50.9,82.8 53.5,83.9 55.9,85.1 58.1,86.6 49.6,95.1 48.8,93.8 47.6,92.4 46.2,91 44.3,89.5 42.2,87.9 39.7,86.4 36.9,84.8 33.8,83.1 30.5,81.4 26.7,80.1 "></polygon>
    <polygon points="58.1,86.6 59.8,90.8 58.1,95.1 53.8,96.8 49.6,95.1 "></polygon>
    <polygon
      points="11.1,109.2 15.3,109.6 19.3,109.8 23.1,110.2 26.6,110.7 29.9,111.4 33,112.3 35.9,113.3 38.6,114.6 41.1,116 43.4,117.7 34.5,125.7 33.7,124.4 32.6,123 31.1,121.5 29.2,120 27,118.5 24.4,116.9 21.5,115.4 18.3,113.8 14.7,112.2 10.8,111 "></polygon>
    <polygon points="43.4,117.7 44.9,122 43,126.2 38.6,127.7 34.5,125.7 "></polygon>
    <polygon
      points="12.1,154.3 17.9,155 23.2,156.1 27.9,157.8 32.2,160.2 35.9,163.2 38.9,166.9 41.2,171.2 42.7,176 43.4,181.2 43.3,186.8 31.4,185.1 32.1,181.1 32.3,177.5 31.9,174.2 31.1,171.2 29.7,168.3 27.7,165.6 24.9,162.9 21.3,160.4 17,158 11.8,156 "></polygon>
    <polygon points="43.3,186.8 40.9,190.7 36.5,191.9 32.6,189.5 31.4,185.1 "></polygon>
    <polygon
      points="27.3,163.8 28.8,161.3 30.9,158.4 33.5,154.8 36.8,150.5 40.7,145.5 45.3,139.7 50.7,133.2 56.7,126 63.6,118 71.2,109.4 72.7,110.5 66.6,120.3 61,129.1 56,137.1 51.5,144.2 47.7,150.4 44.5,155.8 41.9,160.3 40.1,163.9 38.9,166.6 38.6,168.1 "></polygon>
    <polygon
      points="106.6,79.1 104.8,86.1 102.5,92.9 99.9,99.5 97,106 93.7,112.3 90.1,118.4 86.1,124.3 81.7,130 76.9,135.4 71.6,140.5 70.3,139.4 73.9,133.2 77.3,127 80.5,120.9 83.4,114.8 86.1,108.6 88.4,102.4 90.5,96.1 92.3,89.7 93.7,83.3 94.9,76.8 "></polygon>
    <polygon points="94.7,77.7 106.6,79.1 95.2,74.9 "></polygon>
    <polygon points="106.6,79.1 109.2,81.7 103.7,83.6 "></polygon>
    <polygon points="95,96 181,96 181,100 95,100 "></polygon>
    <polygon
      points="186.9,98.3 186.1,111.6 185.1,123.8 184.1,134.9 182.9,144.8 181.6,153.7 180.2,161.4 178.7,168.1 177,173.8 175.1,178.6 172.8,182.6 163.2,175.4 164.3,173.4 165.7,169.9 167.1,165.1 168.5,159 169.8,151.7 171,143.3 172.1,133.6 173.2,122.8 174.1,110.8 175,97.6 "></polygon>
    <polygon points="175,96 181,91 192,100 187,103 175,108 "></polygon>
    <polygon
      points="172.8,182.6 171.2,184.5 169.5,186.2 167.7,187.8 165.7,189.1 163.6,190.3 161.4,191.3 159.2,192 156.8,192.5 154.4,192.8 152,193 152,181 153.4,180.9 154.8,180.7 156,180.4 157.2,180.1 158.3,179.6 159.3,179 160.3,178.3 161.3,177.5 162.2,176.5 163.2,175.4 "></polygon>
    <polygon points="152,187 152,181 132,181 132,184 "></polygon>
    <polygon points="96,137 165,137 165,141 96,141 "></polygon>
    <polygon points="165,137 141,139 153,127 "></polygon>
  </g>
</svg>