<?xml version='1.0' encoding='ASCII' standalone='yes'?>
<svg xmlns="http://www.w3.org/2000/svg" xmlns:xlink="http://www.w3.org/1999/xlink" version="1.1" width="1000.0px" viewBox="0 0 1000.0 1200.0" height="1200.0px">
  <g>
    <g transform="translate(161.0, 440.0) scale(1 1) "><path d="M475.032 62.8389L63.2846 86.6651C60.3063 86.6651 57.328 86.9133 54.3497 87.4097C51.3714 87.4097 48.3932 87.4097 45.4149 87.4097C33.0054 87.4097 24.3187 84.9278 19.3549 79.964C12.902 74.0075 7.93817 66.3135 4.4635 56.8823C1.48522 46.9547 -0.00390625 41.4945 -0.00390625 40.5018C-0.00390625 35.0416 2.97434 32.3115 8.93091 32.3115C9.92367 32.3115 10.6682 32.5597 11.1646 33.0561C12.1574 33.0561 12.902 33.0561 13.3984 33.0561C21.8368 34.5452 30.7716 35.2898 40.2029 35.2898H48.3932L601.609 5.50693C607.069 5.50693 615.756 4.01779 627.669 1.03949C629.158 0.543116 631.144 0.294922 633.626 0.294922C638.59 0.294922 644.298 2.28044 650.751 6.2515C657.204 10.2225 662.912 15.1863 667.876 21.1429C672.84 26.6031 675.322 32.0633 675.322 37.5235C675.322 46.9547 668.124 52.1667 653.729 53.1595L533.109 60.6052L531.62 458.896C531.62 464.356 531.868 469.32 532.364 473.787C533.357 478.751 533.853 483.467 533.853 487.934C533.853 501.833 529.138 512.009 519.706 518.461C510.772 525.411 502.085 528.885 493.647 528.885C488.186 528.885 479.251 526.155 466.842 520.695C454.929 515.731 441.775 509.278 427.38 501.336C412.985 493.394 399.086 484.956 385.684 476.021C372.282 467.582 360.865 459.392 351.434 451.45C342.499 443.508 338.031 436.559 338.031 430.602C338.031 424.149 342.499 420.923 351.434 420.923C355.901 420.923 360.617 421.915 365.58 423.901C385.932 431.843 405.043 438.544 422.912 444.004C441.278 449.465 458.155 453.932 473.543 457.407L475.032 62.8389Z" fill="black"/>
</g>
    <g transform="translate(251.67000000000002, 589.61) scale(1 1) translate(0, 0) scale(0.8472222222222222 0.8505747126436781) "><path d="M69.9896 242.926H58.8211C44.9224 242.926 33.0093 240.444 23.0817 235.48C13.6505 230.516 6.2048 217.61 0.744606 196.762C0.744606 195.769 0.496378 195.025 0 194.528C0 194.032 0 193.287 0 192.295C0 186.835 2.73012 184.104 8.19031 184.104C10.1758 184.104 11.9131 184.353 13.4023 184.849C18.8625 186.835 24.0745 188.324 29.0383 189.316C34.0021 190.309 38.9659 190.806 43.9297 190.806H49.1417L325.893 181.126C330.857 180.63 336.069 180.133 341.53 179.637C347.486 178.644 352.946 177.155 357.91 175.17C361.385 174.177 364.363 173.68 366.845 173.68C372.801 173.68 378.758 176.162 384.715 181.126C391.168 186.09 396.876 191.798 401.84 198.251C406.804 204.704 409.285 210.413 409.285 215.376C409.285 220.837 407.052 224.808 402.584 227.29C398.613 229.275 393.898 230.516 388.438 231.012L69.9896 242.926ZM133.43 66.2668C130.948 66.7632 128.218 67.0113 125.24 67.0113C122.758 67.0113 120.276 67.0113 117.794 67.0113C104.392 67.0113 93.2234 64.2813 84.2886 58.8211C75.3537 52.8645 68.4044 40.455 63.4406 21.5925C63.4406 20.5998 63.1924 19.8552 62.696 19.3588C62.696 18.8624 62.696 18.1179 62.696 17.1251C62.696 11.6649 65.4261 8.93487 70.8863 8.93487C72.8718 8.93487 74.6091 9.18301 76.0982 9.67938C85.5295 13.154 95.2089 14.8914 105.137 14.8914H111.838L252.138 6.70114C257.101 6.20475 262.313 5.70839 267.774 5.21202C273.73 4.21925 279.19 2.73009 284.154 0.744561C286.14 0.248187 288.622 0 291.6 0C296.564 0 302.52 2.23371 309.47 6.70114C316.419 11.1686 322.624 16.6287 328.084 23.0817C333.544 29.5346 336.274 35.243 336.274 40.2068C336.274 45.667 334.04 49.3899 329.573 51.3754C325.106 53.3609 320.39 54.6018 315.426 55.0982L133.43 66.2668Z" fill="black"/>
</g>
  </g>
</svg>
