<?xml version='1.0' encoding='ASCII' standalone='yes'?>
<svg xmlns="http://www.w3.org/2000/svg" xmlns:xlink="http://www.w3.org/1999/xlink" version="1.1" width="1000.0px" viewBox="0 0 1000.0 1200.0" height="1200.0px">
  <g>
    <g transform="translate(161.0, 440.0) scale(1 1) "><path d="M475.032 62.8389L63.2846 86.6651C60.3063 86.6651 57.328 86.9133 54.3497 87.4097C51.3714 87.4097 48.3932 87.4097 45.4149 87.4097C33.0054 87.4097 24.3187 84.9278 19.3549 79.964C12.902 74.0075 7.93817 66.3135 4.4635 56.8823C1.48522 46.9547 -0.00390625 41.4945 -0.00390625 40.5018C-0.00390625 35.0416 2.97434 32.3115 8.93091 32.3115C9.92367 32.3115 10.6682 32.5597 11.1646 33.0561C12.1574 33.0561 12.902 33.0561 13.3984 33.0561C21.8368 34.5452 30.7716 35.2898 40.2029 35.2898H48.3932L601.609 5.50693C607.069 5.50693 615.756 4.01779 627.669 1.03949C629.158 0.543116 631.144 0.294922 633.626 0.294922C638.59 0.294922 644.298 2.28044 650.751 6.2515C657.204 10.2225 662.912 15.1863 667.876 21.1429C672.84 26.6031 675.322 32.0633 675.322 37.5235C675.322 46.9547 668.124 52.1667 653.729 53.1595L533.109 60.6052L531.62 458.896C531.62 464.356 531.868 469.32 532.364 473.787C533.357 478.751 533.853 483.467 533.853 487.934C533.853 501.833 529.138 512.009 519.706 518.461C510.772 525.411 502.085 528.885 493.647 528.885C488.186 528.885 479.251 526.155 466.842 520.695C454.929 515.731 441.775 509.278 427.38 501.336C412.985 493.394 399.086 484.956 385.684 476.021C372.282 467.582 360.865 459.392 351.434 451.45C342.499 443.508 338.031 436.559 338.031 430.602C338.031 424.149 342.499 420.923 351.434 420.923C355.901 420.923 360.617 421.915 365.58 423.901C385.932 431.843 405.043 438.544 422.912 444.004C441.278 449.465 458.155 453.932 473.543 457.407L475.032 62.8389Z" fill="black"/>
</g>
    <g transform="translate(248.28, 552.1800000000001) scale(1 1) translate(0, 0) scale(0.8472222222222222 0.8505747126436781) "><path d="M279.08 169.876L184.743 177.044L159.194 275.959L267.288 270.224L279.08 169.876ZM47.1685 329H41.2724C28.6068 329 19.6536 325.894 14.4126 319.682C9.17171 312.992 5.45936 306.541 3.27563 300.329C1.09189 294.117 0 289.099 0 285.277C0 280.976 2.40212 278.826 7.20632 278.826C8.95331 278.826 10.7003 279.065 12.4473 279.542C17.6882 281.454 24.021 282.41 31.4457 282.41C33.6294 282.41 35.8132 282.41 37.9969 282.41C40.1806 281.932 42.3643 281.693 44.5481 281.693L108.095 278.109L133.644 179.911L94.3371 182.061H83.8551C74.2467 182.061 67.4772 180.627 63.5465 177.76C60.0525 174.415 56.3402 170.115 52.4095 164.858C49.3522 158.646 46.5134 151.956 43.8929 144.789C43.4562 143.355 43.2378 141.444 43.2378 139.054C43.2378 134.754 45.4215 132.603 49.789 132.603C51.0992 132.603 51.9727 132.842 52.4095 133.32C53.2829 133.32 54.1564 133.32 55.0299 133.32C62.4546 134.754 69.4425 135.471 75.9937 135.471C78.1774 135.471 80.5796 135.471 83.2 135.471C85.8205 134.993 88.4409 134.754 91.0614 134.754L146.091 131.887L161.159 63.0762L79.2693 68.8105C77.5224 68.8105 75.7753 69.0494 74.0283 69.5272C72.2813 69.5272 70.7528 69.5272 69.4426 69.5272C57.2137 69.5272 48.042 65.7044 41.9276 58.0588C36.2499 49.9354 31.8824 41.0951 28.8252 31.5381C28.3884 30.1046 28.1701 27.7153 28.1701 24.3703C28.1701 20.5475 30.5722 18.6361 35.3765 18.6361C37.5602 18.6361 39.3071 18.8751 40.6174 19.3529C48.0421 20.7865 55.2483 21.5032 62.2362 21.5032H71.4079L305.285 5.73417C309.653 5.25632 313.583 4.77848 317.077 4.30064C320.571 3.34495 323.628 2.38925 326.249 1.43353C328.433 0.955687 330.398 0.716758 332.145 0.716758C333.892 0.238914 335.202 0 336.076 0C340.006 0 344.811 1.91138 350.488 5.73417C356.166 9.55698 361.188 14.3355 365.556 20.0697C370.36 25.8039 372.762 31.2992 372.762 36.5556C372.762 45.1569 365.119 49.9354 349.833 50.891L211.603 60.2091L196.536 128.303L294.803 121.852C295.677 121.852 296.55 121.852 297.424 121.852C298.734 121.374 300.044 121.135 301.354 121.135C307.032 121.135 313.802 124.241 321.663 130.453C329.961 136.187 334.11 143.116 334.11 151.24C334.11 155.062 333.455 158.168 332.145 160.558C331.271 162.469 330.616 164.381 330.18 166.292L315.767 268.074L345.247 265.924C349.615 265.446 353.982 264.968 358.35 264.49C362.717 263.534 367.303 262.579 372.107 261.623C373.854 261.145 375.601 260.906 377.348 260.906C379.095 260.428 380.624 260.19 381.934 260.19C387.612 260.19 392.852 262.579 397.657 267.357C402.898 271.658 407.265 276.675 410.759 282.41C414.253 287.666 416 292.206 416 296.028C416 305.107 409.012 310.125 395.036 311.081L47.1685 329Z" fill="black"/>
</g>
  </g>
</svg>
