<?xml version='1.0' encoding='ASCII' standalone='yes'?>
<svg xmlns="http://www.w3.org/2000/svg" xmlns:xlink="http://www.w3.org/1999/xlink" version="1.1" width="1000.0px" viewBox="0 0 1000.0 1200.0" height="1200.0px">
  <g>
    <g transform="translate(161.0, 440.0) scale(1 1) "><path d="M475.032 62.8389L63.2846 86.6651C60.3063 86.6651 57.328 86.9133 54.3497 87.4097C51.3714 87.4097 48.3932 87.4097 45.4149 87.4097C33.0054 87.4097 24.3187 84.9278 19.3549 79.964C12.902 74.0075 7.93817 66.3135 4.4635 56.8823C1.48522 46.9547 -0.00390625 41.4945 -0.00390625 40.5018C-0.00390625 35.0416 2.97434 32.3115 8.93091 32.3115C9.92367 32.3115 10.6682 32.5597 11.1646 33.0561C12.1574 33.0561 12.902 33.0561 13.3984 33.0561C21.8368 34.5452 30.7716 35.2898 40.2029 35.2898H48.3932L601.609 5.50693C607.069 5.50693 615.756 4.01779 627.669 1.03949C629.158 0.543116 631.144 0.294922 633.626 0.294922C638.59 0.294922 644.298 2.28044 650.751 6.2515C657.204 10.2225 662.912 15.1863 667.876 21.1429C672.84 26.6031 675.322 32.0633 675.322 37.5235C675.322 46.9547 668.124 52.1667 653.729 53.1595L533.109 60.6052L531.62 458.896C531.62 464.356 531.868 469.32 532.364 473.787C533.357 478.751 533.853 483.467 533.853 487.934C533.853 501.833 529.138 512.009 519.706 518.461C510.772 525.411 502.085 528.885 493.647 528.885C488.186 528.885 479.251 526.155 466.842 520.695C454.929 515.731 441.775 509.278 427.38 501.336C412.985 493.394 399.086 484.956 385.684 476.021C372.282 467.582 360.865 459.392 351.434 451.45C342.499 443.508 338.031 436.559 338.031 430.602C338.031 424.149 342.499 420.923 351.434 420.923C355.901 420.923 360.617 421.915 365.58 423.901C385.932 431.843 405.043 438.544 422.912 444.004C441.278 449.465 458.155 453.932 473.543 457.407L475.032 62.8389Z" fill="black"/>
</g>
    <g transform="translate(249.97, 650.85) scale(1 1) translate(0, 0) scale(0.8472222222222222 0.8505747126436781) "><path d="M71.4788 86.8376C67.0114 87.334 63.0403 87.5822 59.5657 87.5822C56.091 87.5822 53.1127 87.5822 50.6308 87.5822C39.7104 87.5822 31.272 85.5967 25.3154 81.6256C20.848 77.6546 16.6287 72.6908 12.6577 66.7342C9.18304 60.2813 6.20476 54.0765 3.72285 48.1199C1.24095 41.667 0 37.1996 0 34.7177C0 28.7611 2.73009 25.7828 8.19028 25.7828C9.67942 25.7828 12.1613 26.2792 15.636 27.2719C24.0745 29.7538 33.0093 30.9948 42.4405 30.9948C44.9224 30.9948 47.1562 30.9948 49.1417 30.9948C51.6236 30.4984 53.8573 30.2503 55.8428 30.2503L332.744 7.4457C337.211 6.94933 341.927 6.20474 346.89 5.21197C351.854 4.21921 357.066 2.73004 362.526 0.744517C364.016 0.248143 366.001 0 368.483 0C373.447 0 379.652 2.23367 387.097 6.7011C394.543 11.1685 401.244 16.8769 407.201 23.8262C413.654 30.7756 416.88 37.4767 416.88 43.9297C416.88 49.3899 414.646 53.6091 410.179 56.5874C406.208 59.0693 401.244 60.5584 395.288 61.0548L71.4788 86.8376Z" fill="black"/>
</g>
  </g>
</svg>
