<?xml version='1.0' encoding='ASCII' standalone='yes'?>
<svg xmlns="http://www.w3.org/2000/svg" xmlns:xlink="http://www.w3.org/1999/xlink" version="1.1" width="1000.0px" viewBox="0 0 1000.0 1200.0" height="1200.0px">
  <g>
    <g transform="translate(195.0, 402.0) scale(1 1) "><path d="M502.697 62.7744L73.4502 87.6111C70.3452 87.6111 67.2402 87.8698 64.1352 88.3872H54.8202C41.8832 88.3872 32.8282 85.8001 27.653 80.6258C20.9258 74.4166 15.751 66.3964 12.1287 56.5652C9.02379 46.2165 7.47139 40.5248 7.47139 39.4899C7.47139 33.7981 10.5762 30.9523 16.7859 30.9523C17.8209 30.9523 18.5971 31.211 19.1146 31.7284H21.4433C30.2402 33.2807 39.5552 34.0569 49.3872 34.0569H57.9252L573.147 6.13813C578.839 6.13813 587.895 4.58584 600.314 1.48122C601.867 0.963802 603.937 0.705078 606.524 0.705078C611.699 0.705078 617.65 2.7748 624.377 6.91427C631.104 11.0538 637.055 16.2281 642.23 22.4373C647.405 28.129 649.992 33.8208 649.992 39.5125C649.992 49.3438 642.489 54.7768 627.482 55.8117L563.242 60.4459L562.732 178.542C562.732 184.233 562.991 189.408 563.508 194.065C564.543 199.239 565.061 204.154 565.061 208.811C565.061 223.299 560.145 233.907 550.313 240.633C540.998 247.877 531.942 251.499 523.145 251.499C517.453 251.499 508.138 248.654 495.201 242.962C485.277 236.811 460.257 221.175 448.486 205.338C448.486 198.611 453.144 195.248 462.458 195.248C467.115 195.248 497.013 194.725 502.187 196.795L502.697 62.7744Z" fill="black"/>
<path d="M115.138 224.852C112.033 221.23 110.481 217.349 110.481 213.21C110.481 208.036 111.516 204.672 113.586 203.12L72.1182 206.225C49.3492 206.225 34.3422 191.736 27.0973 162.76C27.0973 157.069 31.2372 154.223 39.5172 154.223C50.9012 156.292 61.2512 157.327 70.5652 157.327C75.7402 157.327 128.334 153.705 280.472 146.461H279.696C252.787 136.113 230.536 128.868 212.942 124.729C201.557 121.624 195.865 116.45 195.865 109.206C195.865 104.549 198.452 98.8571 203.627 92.1305C209.319 84.8864 215.012 81.2644 220.704 81.2644C224.326 81.2644 238.815 84.6277 264.172 91.3543C296.773 100.668 313.074 110.241 313.074 120.072C313.074 125.246 311.78 129.903 309.193 134.043C307.123 139.735 304.276 143.615 300.654 145.685C337.395 144.133 342.572 143.364 387.075 141.294C398.46 140.777 409.585 138.449 420.452 134.309C422.522 133.792 425.11 133.533 428.215 133.533C436.494 133.533 445.809 137.931 456.158 146.727C466.508 155.006 471.683 162.509 471.683 169.236C471.683 178.032 465.473 183.206 453.053 184.759L368.961 189.925C383.968 197.17 391.471 205.707 391.471 215.538C391.471 221.538 376.556 243.554 363.101 259.763L528.595 253.51H536.358C546.707 253.51 555.246 257.39 561.973 265.152C568.7 272.396 572.064 278.605 572.064 283.779C572.064 286.884 571.546 289.989 570.511 293.093C569.476 295.68 568.7 298.785 568.183 302.407L562.749 610.957V626.48C563.267 630.102 563.525 633.465 563.525 636.569C563.525 649.505 558.609 659.595 548.777 666.839C539.463 674.083 531.442 677.705 524.714 677.705C521.61 677.705 515.4 675.377 506.085 670.72C497.288 666.063 487.456 660.113 476.589 652.869C465.722 645.625 454.855 638.122 443.988 630.36C433.638 622.599 424.841 614.837 417.597 607.076C410.352 599.314 406.729 593.105 406.729 588.448C406.729 583.93 409.042 581.818 410.245 581.101C412.67 579.656 414.936 579.135 418.373 579.135C422.513 579.135 428.722 580.687 437.002 583.791C448.904 588.966 461.582 594.14 475.037 599.314C488.491 603.971 498.84 607.335 506.085 609.404L512.295 303.183L65.1942 322.587H29.7032C14.5872 322.587 10.8592 310.945 9.30679 303.183C8.27189 295.422 6.20188 287.919 3.09708 280.675C1.02718 276.535 -0.0078125 272.655 -0.0078125 269.033C-0.0078125 262.306 3.87329 258.943 11.6354 258.943C19.3976 258.943 35.9572 264.117 61.3132 274.466L145.624 269.516C132.902 252.009 117.23 226.943 115.138 224.852ZM327.046 192.254L164.04 200.792C162.068 200.828 160.672 200.71 159.951 201.534C159.27 202.313 162.488 205.707 170.25 213.986C178.529 222.265 186.809 232.096 195.089 243.48C203.091 253.364 207.454 261.108 208.177 266.711L298.431 262.663C307.228 249.72 317.924 233.393 320.836 226.404C326.528 213.986 329.493 201.901 329.493 192.07L327.046 192.254Z" fill="black"/>
</g>
    <g transform="translate(282.82, 690.56) scale(1 1) translate(0, 0) scale(0.8472222222222222 0.8505747126436781) "><path d="M75.2888 155.757C70.3193 156.171 65.8466 156.586 61.8709 157C57.8953 157 53.9198 157 49.9441 157C47.9563 157 45.9685 157 43.9807 157C41.9929 156.586 40.0048 156.378 38.0169 156.378C36.0291 155.964 34.2898 155.55 32.7989 155.135C31.805 154.307 30.8113 153.685 29.8174 153.271C21.3691 148.298 14.163 141.461 8.19956 132.759C2.73303 123.642 0 116.805 0 112.247C0 106.86 3.47865 104.166 10.4361 104.166C13.4178 104.166 15.9024 104.373 17.8902 104.788C22.3628 106.031 27.084 106.86 32.0535 107.274C37.5201 107.689 42.9865 107.896 48.453 107.896H57.3983L170.091 97.9505L168.6 44.1317C168.6 38.3304 167.357 33.3578 164.873 29.214C162.885 25.0701 159.903 20.5119 155.927 15.5393C153.94 13.053 152.946 10.7739 152.946 8.70203C152.946 2.90068 158.412 0 169.345 0C172.824 0 179.284 0.828766 188.726 2.4863C198.665 3.72943 208.356 6.21572 217.798 9.94516C227.737 13.6746 232.707 19.476 232.707 27.3492L231.962 95.4642L325.039 85.519C329.511 85.1047 334.481 84.6903 339.947 84.2759C345.911 83.4471 351.377 82.204 356.347 80.5464C359.825 79.7177 362.559 79.3033 364.547 79.3033C369.019 79.3033 374.983 81.168 382.437 84.8975C389.892 88.2125 396.849 92.7707 403.309 98.5721C409.77 104.373 413 110.175 413 115.976C413 120.949 410.764 124.885 406.291 127.786C401.819 130.272 396.352 131.723 389.891 132.137L75.2888 155.757Z" fill="black"/>
<path d="M412 335.023C412 340.642 409.269 345.396 403.807 349.285C398.841 353.175 393.628 356.2 388.166 358.361C382.704 360.522 379.228 361.603 377.738 361.603C371.283 361.603 365.572 358.145 360.607 351.23C346.704 332.214 315.055 296.158 299.662 277.574C284.269 258.99 268.628 241.487 252.738 225.064C248.269 219.878 246.035 215.34 246.035 211.45C246.035 207.992 249.014 203.238 254.973 197.188C260.931 191.137 267.138 188.112 273.593 188.112C278.559 188.112 283.773 190.489 289.235 195.243C294.2 199.565 300.903 206.264 309.345 215.34C318.283 223.983 327.469 233.491 336.904 243.864C346.835 254.236 373.021 281.865 381.462 292.237C390.4 302.177 397.6 311.037 403.062 318.816C409.021 326.163 412 331.566 412 335.023ZM33.938 372C27.9793 372 25 369.191 25 363.572C25 358.818 28.2276 352.336 34.6828 344.124C44.1172 332.455 53.8 319.274 63.731 304.579C73.662 289.453 82.5999 274.759 90.5448 260.497C98.9861 246.234 105.193 234.133 109.165 224.193C112.641 216.846 114.379 208.202 114.379 198.262C114.379 188.754 118.848 184 127.786 184C132.752 184 139.207 185.945 147.152 189.834C155.096 193.292 162.296 197.83 168.752 203.448C175.207 208.634 178.434 214.037 178.434 219.655C178.434 222.68 177.441 225.49 175.455 228.083C167.51 241.48 157.083 256.391 144.172 272.814C131.262 289.237 117.607 305.011 103.207 320.138C88.8068 334.832 75.3999 347.149 62.9862 357.09C50.5724 367.03 40.8897 372 33.938 372Z" fill="black"/>
</g>
  </g>
</svg>
