<?xml version='1.0' encoding='ASCII' standalone='yes'?>
<svg xmlns="http://www.w3.org/2000/svg" xmlns:xlink="http://www.w3.org/1999/xlink" version="1.1" width="1000.0px" viewBox="0 0 1000.0 1200.0" height="1200.0px">
  <g>
    <g transform="translate(154.0, 417.0) scale(1 1) "><path d="M299.096 268.902L614.235 248.406H621.681C634.587 248.406 644.514 252.391 651.464 260.36C658.91 267.832 662.632 274.307 662.632 279.786C662.632 282.774 662.136 285.763 661.143 288.751C660.15 291.241 659.654 294.23 659.654 297.717C656.179 366.95 651.96 424.976 646.996 471.796C642.529 518.616 637.565 556.47 632.105 585.359C627.141 613.749 621.929 635.665 616.469 651.106C611.505 666.546 607.286 677.006 603.811 682.485C600.833 688.462 598.599 691.948 597.11 692.944C585.197 705.895 573.532 712.37 562.115 712.37C555.662 712.37 546.231 709.63 533.821 704.151C521.908 699.17 509.251 692.696 495.848 684.726C482.446 676.757 469.54 668.289 457.131 659.324C444.721 650.857 434.297 642.638 425.859 634.669C417.42 626.7 413.201 619.975 413.201 614.497C413.201 608.52 416.676 605.531 423.625 605.531C430.078 605.531 439.261 608.52 451.174 614.497C475.993 626.451 510.74 638.404 555.414 650.358H556.903C557.896 648.366 560.626 639.401 565.093 623.462C570.057 604.535 575.269 578.137 580.729 544.267C586.19 510.397 590.905 472.045 594.876 429.21C599.344 385.877 602.074 342.295 603.067 298.464L224.788 317.849C223.288 318.402 197.788 330.376 193.885 331.553C184.79 334.295 175.901 336.809 167.219 339.094C158.951 340.922 152.13 341.836 146.755 341.836C137.247 341.836 132.492 338.637 132.492 332.238C132.492 325.84 138.28 320.127 149.856 315.1C175.488 304.131 201.327 291.105 208.372 283.767C218.288 277.517 242.788 259.265 251.966 250.424C259.821 244.025 264.989 236.484 267.47 227.801C269.537 221.859 277.27 210.039 282.645 210.039C287.606 210.039 292.773 213.01 298.148 218.951C303.936 224.436 308.69 230.606 312.411 237.461C316.132 243.859 319.992 250.424 317.992 253.914C315.654 257.995 312.411 257.388 299.096 268.902Z" fill="black"/>
<path d="M190.738 284.546C179.321 284.546 169.89 281.558 162.444 275.581C155.495 269.604 152.02 262.382 152.02 253.914C154.005 239.968 154.998 229.757 154.998 223.282C152.02 188.396 144.085 167.696 138.128 155.244C134.157 147.275 132.172 141.547 132.172 138.06C132.172 132.083 136.639 129.095 145.574 129.095C151.531 129.095 166.422 134.325 190.248 144.784L352.761 126.854C381.551 126.854 397.187 135.57 399.669 153.003C399.669 156.987 398.925 160.225 397.436 162.715C395.946 164.708 395.202 165.953 395.202 166.451L377.821 241.96C377.821 253.914 372.609 259.891 362.185 259.891C350.769 259.891 341.834 256.405 335.381 249.431C328.928 242.458 325.701 235.485 325.701 228.512V224.776C328.68 213.819 330.665 205.351 331.658 199.374L342.337 170.187L194.716 186.623L204.14 222.535L206.374 264.374C206.374 277.822 201.162 284.546 190.738 284.546Z" fill="black"/>
<path d="M103.488 108.816C98.0273 125.197 91.3262 142.818 83.3841 161.681C75.442 180.047 67.2517 197.172 58.8133 213.056C54.8422 221.495 47.8929 225.714 37.9653 225.714C31.5123 225.714 23.5703 222.736 14.139 216.779C4.7078 210.326 -0.0078125 203.377 -0.0078125 195.931C-0.0078125 192.953 1.48133 188.485 4.45961 182.529C13.3945 167.141 21.8329 150.016 29.775 131.153C38.2135 111.795 45.9074 92.1875 52.8567 72.3323C60.3024 51.9807 66.5072 33.1182 71.471 15.7449C73.9529 5.8173 79.6613 0.853516 88.5961 0.853516C97.531 0.853516 106.466 3.08723 115.401 7.55466C124.336 11.5257 128.803 17.4822 128.803 25.4243C128.803 27.9062 128.307 31.1327 127.314 35.1038C126.817 39.0748 125.328 44.535 122.846 51.4843L594.904 23.9352H600.861C615.752 23.9352 626.673 26.4171 633.622 31.3809C641.068 36.3447 646.031 41.8049 648.513 47.7615L651.492 55.2072C651.492 61.1637 649.506 66.3757 645.535 70.8432C642.06 74.8142 639.082 78.537 636.6 82.0117C613.27 119.737 591.43 149.271 571.078 170.616C550.726 191.464 536.579 201.888 528.637 201.888C522.681 201.888 519.703 198.413 519.703 191.464C519.703 185.507 522.929 176.076 529.382 163.17C536.828 149.271 544.025 134.876 550.975 119.985C557.924 105.093 562.888 93.1803 565.866 84.2454L103.488 108.816Z" fill="black"/>
</g>
    <g transform="translate(334.99, 761.0899999999999) scale(1 1) translate(0, 0) scale(0.8472222222222222 0.8505747126436781) "><path d="M67.7558 286.66C64.2812 286.66 60.8065 286.908 57.3319 287.404C53.8572 287.404 50.6307 287.404 47.6525 287.404C34.2502 287.404 24.0745 283.433 17.1251 275.491C10.6722 267.549 5.95653 259.855 2.97824 252.409L0 240.496C0 234.043 2.97817 230.817 8.93473 230.817C10.4239 230.817 11.6649 231.065 12.6577 231.562C14.1468 231.562 15.636 231.81 17.1251 232.306C27.5491 234.788 37.7248 236.029 47.6525 236.029H54.3536L300.062 224.86C306.019 224.364 311.479 223.868 316.443 223.371C321.406 222.378 326.618 220.889 332.078 218.904C334.064 218.407 336.546 218.159 339.524 218.159C344.488 218.159 350.445 220.393 357.394 224.86C364.84 229.328 371.293 234.788 376.753 241.241C382.709 247.694 385.688 253.402 385.688 258.366C385.688 263.826 383.206 267.549 378.242 269.535C373.278 271.52 368.066 272.761 362.606 273.257L67.7558 286.66ZM134.767 170.507C131.293 170.507 127.818 170.755 124.343 171.251C120.869 171.251 117.642 171.251 114.664 171.251C101.261 171.251 91.0858 167.528 84.1364 160.083C77.6835 152.637 73.2161 145.191 70.7342 137.746C68.2523 129.804 67.0113 125.336 67.0113 124.343C67.0113 118.387 69.9896 115.408 75.9462 115.408C77.4354 115.408 78.6762 115.657 79.669 116.153C81.1581 116.153 82.6473 116.401 84.1364 116.898C88.6039 117.89 93.3195 118.883 98.2833 119.876C103.247 120.372 108.459 120.62 113.919 120.62H120.62L222.627 114.664C229.08 114.168 234.788 113.671 239.752 113.175C244.716 112.182 249.679 110.693 254.643 108.707C256.629 108.211 259.111 107.963 262.089 107.963C266.556 107.963 272.265 110.445 279.214 115.408C286.163 119.876 292.616 125.088 298.573 131.044C305.026 137.001 308.252 142.709 308.252 148.17C308.252 154.126 305.77 157.849 300.806 159.338C295.843 160.331 290.383 161.075 284.426 161.572L134.767 170.507ZM108.707 66.2668C104.736 66.7632 101.013 67.0114 97.5388 67.0114C94.5605 67.0114 91.5822 67.0114 88.6039 67.0114C77.6835 67.0114 70.2378 65.274 66.2668 61.7994C62.2957 58.3247 56.8355 52.8645 49.8862 45.4188C43.4332 37.9731 40.2067 29.5346 40.2067 20.1034C40.2067 14.1468 43.1851 11.1686 49.1417 11.1686C50.6308 11.1686 51.8717 11.4168 52.8644 11.9132C54.3536 11.9132 55.8427 12.1613 57.3319 12.6577C61.7993 13.6504 66.515 14.6432 71.4788 15.636C76.4426 16.1324 81.6545 16.3805 87.1147 16.3805H93.8159L250.92 6.70114C257.373 6.20475 263.082 5.70835 268.045 5.21197C273.009 4.21921 277.973 2.73009 282.937 0.744561C284.922 0.248187 287.404 0 290.383 0C294.85 0 300.558 2.4819 307.508 7.4457C314.457 11.9131 320.91 17.1251 326.867 23.0817C333.319 29.0383 336.546 34.7466 336.546 40.2068C336.546 46.1634 334.064 49.8862 329.1 51.3754C324.136 52.3682 318.676 53.1127 312.72 53.6091L108.707 66.2668Z" fill="black"/>
</g>
  </g>
</svg>
