<?xml version='1.0' encoding='ASCII' standalone='yes'?>
<svg xmlns="http://www.w3.org/2000/svg" xmlns:xlink="http://www.w3.org/1999/xlink" version="1.1" width="1000.0px" viewBox="0 0 1000.0 1200.0" height="1200.0px">
  <g>
    <g transform="translate(203.0, 391.0) scale(1 1) "><path d="M154.968 125.549C135.596 150.78 115.729 173.29 95.3639 193.078C74.9993 212.372 57.1182 227.461 41.7206 238.345C26.8197 249.229 16.1407 254.67 9.68367 254.67C3.2266 254.67 -0.00195312 251.207 -0.00195312 244.281C-0.00195312 238.345 4.71668 230.677 14.1539 221.277C37.002 197.531 59.8501 170.074 82.6982 138.907C105.546 107.245 124.669 76.3251 140.067 46.1474C141.06 43.1791 142.054 39.7161 143.047 35.7584C144.04 31.3059 144.537 26.3588 144.537 20.9169V15.7224C144.537 5.82804 149.007 0.880859 157.948 0.880859C164.405 0.880859 171.359 3.60181 178.809 9.04371C186.26 14.4856 192.717 20.4222 198.18 26.8535C204.141 33.2848 207.121 38.9741 207.121 43.9212C207.121 47.3842 201.657 57.5259 190.73 74.3463L515.57 55.0523H523.02C535.935 55.0523 545.869 59.0101 552.822 66.9255C560.273 74.3463 563.998 80.7776 563.998 86.2195C563.998 89.1878 563.501 92.1561 562.508 95.1244C561.514 97.5979 561.018 100.566 561.018 104.029C557.541 172.795 553.319 230.429 548.352 276.933C543.882 323.436 531.915 430.035 526.451 458.728C521.484 486.927 516.269 508.694 510.805 524.031C505.838 539.367 501.616 549.756 498.139 555.198C495.159 561.134 492.924 564.597 491.434 565.587C479.513 578.45 467.841 584.881 456.417 584.881C449.96 584.881 440.522 582.16 428.105 576.718C416.184 571.771 403.519 565.34 390.108 557.424C376.697 549.509 363.783 541.098 351.365 532.194C338.948 523.783 328.517 515.62 320.073 507.705C311.629 499.79 307.408 493.111 307.408 487.669C307.408 481.732 310.884 478.764 317.838 478.764C324.295 478.764 333.484 481.732 345.405 487.669C370.24 499.542 405.009 511.415 449.711 523.289C450.705 523.289 451.202 523.289 451.202 523.289C452.195 521.31 454.927 512.405 459.397 496.574C464.364 477.775 469.579 451.555 475.043 417.914C480.507 384.273 492.225 277.18 496.199 234.634C500.669 191.594 503.401 148.306 504.394 104.771L154.968 125.549Z" fill="black"/>
</g>
    <g transform="translate(308.28, 560.1800000000001) scale(1 1) translate(0, 0) scale(0.8472222222222222 0.8505747126436781) "><path d="M279.08 169.876L184.743 177.044L159.194 275.959L267.288 270.224L279.08 169.876ZM47.1685 329H41.2724C28.6068 329 19.6536 325.894 14.4126 319.682C9.17171 312.992 5.45936 306.541 3.27563 300.329C1.09189 294.117 0 289.099 0 285.277C0 280.976 2.40212 278.826 7.20632 278.826C8.95331 278.826 10.7003 279.065 12.4473 279.542C17.6882 281.454 24.021 282.41 31.4457 282.41C33.6294 282.41 35.8132 282.41 37.9969 282.41C40.1806 281.932 42.3643 281.693 44.5481 281.693L108.095 278.109L133.644 179.911L94.3371 182.061H83.8551C74.2467 182.061 67.4772 180.627 63.5465 177.76C60.0525 174.415 56.3402 170.115 52.4095 164.858C49.3522 158.646 46.5134 151.956 43.8929 144.789C43.4562 143.355 43.2378 141.444 43.2378 139.054C43.2378 134.754 45.4215 132.603 49.789 132.603C51.0992 132.603 51.9727 132.842 52.4095 133.32C53.2829 133.32 54.1564 133.32 55.0299 133.32C62.4546 134.754 69.4425 135.471 75.9937 135.471C78.1774 135.471 80.5796 135.471 83.2 135.471C85.8205 134.993 88.4409 134.754 91.0614 134.754L146.091 131.887L161.159 63.0762L79.2693 68.8105C77.5224 68.8105 75.7753 69.0494 74.0283 69.5272C72.2813 69.5272 70.7528 69.5272 69.4426 69.5272C57.2137 69.5272 48.042 65.7044 41.9276 58.0588C36.2499 49.9354 31.8824 41.0951 28.8252 31.5381C28.3884 30.1046 28.1701 27.7153 28.1701 24.3703C28.1701 20.5475 30.5722 18.6361 35.3765 18.6361C37.5602 18.6361 39.3071 18.8751 40.6174 19.3529C48.0421 20.7865 55.2483 21.5032 62.2362 21.5032H71.4079L305.285 5.73417C309.653 5.25632 313.583 4.77848 317.077 4.30064C320.571 3.34495 323.628 2.38925 326.249 1.43353C328.433 0.955687 330.398 0.716758 332.145 0.716758C333.892 0.238914 335.202 0 336.076 0C340.006 0 344.811 1.91138 350.488 5.73417C356.166 9.55698 361.188 14.3355 365.556 20.0697C370.36 25.8039 372.762 31.2992 372.762 36.5556C372.762 45.1569 365.119 49.9354 349.833 50.891L211.603 60.2091L196.536 128.303L294.803 121.852C295.677 121.852 296.55 121.852 297.424 121.852C298.734 121.374 300.044 121.135 301.354 121.135C307.032 121.135 313.802 124.241 321.663 130.453C329.961 136.187 334.11 143.116 334.11 151.24C334.11 155.062 333.455 158.168 332.145 160.558C331.271 162.469 330.616 164.381 330.18 166.292L315.767 268.074L345.247 265.924C349.615 265.446 353.982 264.968 358.35 264.49C362.717 263.534 367.303 262.579 372.107 261.623C373.854 261.145 375.601 260.906 377.348 260.906C379.095 260.428 380.624 260.19 381.934 260.19C387.612 260.19 392.852 262.579 397.657 267.357C402.898 271.658 407.265 276.675 410.759 282.41C414.253 287.666 416 292.206 416 296.028C416 305.107 409.012 310.125 395.036 311.081L47.1685 329Z" fill="black"/>
</g>
  </g>
</svg>
