<?xml version='1.0' encoding='ASCII' standalone='yes'?>
<svg xmlns="http://www.w3.org/2000/svg" xmlns:xlink="http://www.w3.org/1999/xlink" version="1.1" width="1000.0px" viewBox="0 0 1000.0 1200.0" height="1200.0px">
  <g>
    <g transform="translate(203.0, 391.0) scale(1 1) "><path d="M154.968 125.549C135.596 150.78 115.729 173.29 95.3639 193.078C74.9993 212.372 57.1182 227.461 41.7206 238.345C26.8197 249.229 16.1407 254.67 9.68367 254.67C3.2266 254.67 -0.00195312 251.207 -0.00195312 244.281C-0.00195312 238.345 4.71668 230.677 14.1539 221.277C37.002 197.531 59.8501 170.074 82.6982 138.907C105.546 107.245 124.669 76.3251 140.067 46.1474C141.06 43.1791 142.054 39.7161 143.047 35.7584C144.04 31.3059 144.537 26.3588 144.537 20.9169V15.7224C144.537 5.82804 149.007 0.880859 157.948 0.880859C164.405 0.880859 171.359 3.60181 178.809 9.04371C186.26 14.4856 192.717 20.4222 198.18 26.8535C204.141 33.2848 207.121 38.9741 207.121 43.9212C207.121 47.3842 201.657 57.5259 190.73 74.3463L515.57 55.0523H523.02C535.935 55.0523 545.869 59.0101 552.822 66.9255C560.273 74.3463 563.998 80.7776 563.998 86.2195C563.998 89.1878 563.501 92.1561 562.508 95.1244C561.514 97.5979 561.018 100.566 561.018 104.029C557.541 172.795 553.319 230.429 548.352 276.933C543.882 323.436 531.915 430.035 526.451 458.728C521.484 486.927 516.269 508.694 510.805 524.031C505.838 539.367 501.616 549.756 498.139 555.198C495.159 561.134 492.924 564.597 491.434 565.587C479.513 578.45 467.841 584.881 456.417 584.881C449.96 584.881 440.522 582.16 428.105 576.718C416.184 571.771 403.519 565.34 390.108 557.424C376.697 549.509 363.783 541.098 351.365 532.194C338.948 523.783 328.517 515.62 320.073 507.705C311.629 499.79 307.408 493.111 307.408 487.669C307.408 481.732 310.884 478.764 317.838 478.764C324.295 478.764 333.484 481.732 345.405 487.669C370.24 499.542 405.009 511.415 449.711 523.289C450.705 523.289 451.202 523.289 451.202 523.289C452.195 521.31 454.927 512.405 459.397 496.574C464.364 477.775 469.579 451.555 475.043 417.914C480.507 384.273 492.225 277.18 496.199 234.634C500.669 191.594 503.401 148.306 504.394 104.771L154.968 125.549Z" fill="black"/>
</g>
    <g transform="translate(320.99, 572.09) scale(1 1) translate(0, 0) scale(0.8472222222222222 0.8505747126436781) "><path d="M67.7558 286.66C64.2812 286.66 60.8065 286.908 57.3319 287.404C53.8572 287.404 50.6307 287.404 47.6525 287.404C34.2502 287.404 24.0745 283.433 17.1251 275.491C10.6722 267.549 5.95653 259.855 2.97824 252.409L0 240.496C0 234.043 2.97817 230.817 8.93473 230.817C10.4239 230.817 11.6649 231.065 12.6577 231.562C14.1468 231.562 15.636 231.81 17.1251 232.306C27.5491 234.788 37.7248 236.029 47.6525 236.029H54.3536L300.062 224.86C306.019 224.364 311.479 223.868 316.443 223.371C321.406 222.378 326.618 220.889 332.078 218.904C334.064 218.407 336.546 218.159 339.524 218.159C344.488 218.159 350.445 220.393 357.394 224.86C364.84 229.328 371.293 234.788 376.753 241.241C382.709 247.694 385.688 253.402 385.688 258.366C385.688 263.826 383.206 267.549 378.242 269.535C373.278 271.52 368.066 272.761 362.606 273.257L67.7558 286.66ZM134.767 170.507C131.293 170.507 127.818 170.755 124.343 171.251C120.869 171.251 117.642 171.251 114.664 171.251C101.261 171.251 91.0858 167.528 84.1364 160.083C77.6835 152.637 73.2161 145.191 70.7342 137.746C68.2523 129.804 67.0113 125.336 67.0113 124.343C67.0113 118.387 69.9896 115.408 75.9462 115.408C77.4354 115.408 78.6762 115.657 79.669 116.153C81.1581 116.153 82.6473 116.401 84.1364 116.898C88.6039 117.89 93.3195 118.883 98.2833 119.876C103.247 120.372 108.459 120.62 113.919 120.62H120.62L222.627 114.664C229.08 114.168 234.788 113.671 239.752 113.175C244.716 112.182 249.679 110.693 254.643 108.707C256.629 108.211 259.111 107.963 262.089 107.963C266.556 107.963 272.265 110.445 279.214 115.408C286.163 119.876 292.616 125.088 298.573 131.044C305.026 137.001 308.252 142.709 308.252 148.17C308.252 154.126 305.77 157.849 300.806 159.338C295.843 160.331 290.383 161.075 284.426 161.572L134.767 170.507ZM108.707 66.2668C104.736 66.7632 101.013 67.0114 97.5388 67.0114C94.5605 67.0114 91.5822 67.0114 88.6039 67.0114C77.6835 67.0114 70.2378 65.274 66.2668 61.7994C62.2957 58.3247 56.8355 52.8645 49.8862 45.4188C43.4332 37.9731 40.2067 29.5346 40.2067 20.1034C40.2067 14.1468 43.1851 11.1686 49.1417 11.1686C50.6308 11.1686 51.8717 11.4168 52.8644 11.9132C54.3536 11.9132 55.8427 12.1613 57.3319 12.6577C61.7993 13.6504 66.515 14.6432 71.4788 15.636C76.4426 16.1324 81.6545 16.3805 87.1147 16.3805H93.8159L250.92 6.70114C257.373 6.20475 263.082 5.70835 268.045 5.21197C273.009 4.21921 277.973 2.73009 282.937 0.744561C284.922 0.248187 287.404 0 290.383 0C294.85 0 300.558 2.4819 307.508 7.4457C314.457 11.9131 320.91 17.1251 326.867 23.0817C333.319 29.0383 336.546 34.7466 336.546 40.2068C336.546 46.1634 334.064 49.8862 329.1 51.3754C324.136 52.3682 318.676 53.1127 312.72 53.6091L108.707 66.2668Z" fill="black"/>
</g>
  </g>
</svg>
