<?xml version='1.0' encoding='ASCII' standalone='yes'?>
<svg xmlns="http://www.w3.org/2000/svg" xmlns:xlink="http://www.w3.org/1999/xlink" version="1.1" width="1000.0px" viewBox="0 0 1000.0 1200.0" height="1200.0px">
  <g>
    <g transform="translate(154.0, 417.0) scale(1 1) "><path d="M299.096 268.902L614.235 248.406H621.681C634.587 248.406 644.514 252.391 651.464 260.36C658.91 267.832 662.632 274.307 662.632 279.786C662.632 282.774 662.136 285.763 661.143 288.751C660.15 291.241 659.654 294.23 659.654 297.717C656.179 366.95 651.96 424.976 646.996 471.796C642.529 518.616 637.565 556.47 632.105 585.359C627.141 613.749 621.929 635.665 616.469 651.106C611.505 666.546 607.286 677.006 603.811 682.485C600.833 688.462 598.599 691.948 597.11 692.944C585.197 705.895 573.532 712.37 562.115 712.37C555.662 712.37 546.231 709.63 533.821 704.151C521.908 699.17 509.251 692.696 495.848 684.726C482.446 676.757 469.54 668.289 457.131 659.324C444.721 650.857 434.297 642.638 425.859 634.669C417.42 626.7 413.201 619.975 413.201 614.497C413.201 608.52 416.676 605.531 423.625 605.531C430.078 605.531 439.261 608.52 451.174 614.497C475.993 626.451 510.74 638.404 555.414 650.358H556.903C557.896 648.366 560.626 639.401 565.093 623.462C570.057 604.535 575.269 578.137 580.729 544.267C586.19 510.397 590.905 472.045 594.876 429.21C599.344 385.877 602.074 342.295 603.067 298.464L224.788 317.849C223.288 318.402 197.788 330.376 193.885 331.553C184.79 334.295 175.901 336.809 167.219 339.094C158.951 340.922 152.13 341.836 146.755 341.836C137.247 341.836 132.492 338.637 132.492 332.238C132.492 325.84 138.28 320.127 149.856 315.1C175.488 304.131 201.327 291.105 208.372 283.767C218.288 277.517 242.788 259.265 251.966 250.424C259.821 244.025 264.989 236.484 267.47 227.801C269.537 221.859 277.27 210.039 282.645 210.039C287.606 210.039 292.773 213.01 298.148 218.951C303.936 224.436 308.69 230.606 312.411 237.461C316.132 243.859 319.992 250.424 317.992 253.914C315.654 257.995 312.411 257.388 299.096 268.902Z" fill="black"/>
<path d="M190.738 284.546C179.321 284.546 169.89 281.558 162.444 275.581C155.495 269.604 152.02 262.382 152.02 253.914C154.005 239.968 154.998 229.757 154.998 223.282C152.02 188.396 144.085 167.696 138.128 155.244C134.157 147.275 132.172 141.547 132.172 138.06C132.172 132.083 136.639 129.095 145.574 129.095C151.531 129.095 166.422 134.325 190.248 144.784L352.761 126.854C381.551 126.854 397.187 135.57 399.669 153.003C399.669 156.987 398.925 160.225 397.436 162.715C395.946 164.708 395.202 165.953 395.202 166.451L377.821 241.96C377.821 253.914 372.609 259.891 362.185 259.891C350.769 259.891 341.834 256.405 335.381 249.431C328.928 242.458 325.701 235.485 325.701 228.512V224.776C328.68 213.819 330.665 205.351 331.658 199.374L342.337 170.187L194.716 186.623L204.14 222.535L206.374 264.374C206.374 277.822 201.162 284.546 190.738 284.546Z" fill="black"/>
<path d="M103.488 108.816C98.0273 125.197 91.3262 142.818 83.3841 161.681C75.442 180.047 67.2517 197.172 58.8133 213.056C54.8422 221.495 47.8929 225.714 37.9653 225.714C31.5123 225.714 23.5703 222.736 14.139 216.779C4.7078 210.326 -0.0078125 203.377 -0.0078125 195.931C-0.0078125 192.953 1.48133 188.485 4.45961 182.529C13.3945 167.141 21.8329 150.016 29.775 131.153C38.2135 111.795 45.9074 92.1875 52.8567 72.3323C60.3024 51.9807 66.5072 33.1182 71.471 15.7449C73.9529 5.8173 79.6613 0.853516 88.5961 0.853516C97.531 0.853516 106.466 3.08723 115.401 7.55466C124.336 11.5257 128.803 17.4822 128.803 25.4243C128.803 27.9062 128.307 31.1327 127.314 35.1038C126.817 39.0748 125.328 44.535 122.846 51.4843L594.904 23.9352H600.861C615.752 23.9352 626.673 26.4171 633.622 31.3809C641.068 36.3447 646.031 41.8049 648.513 47.7615L651.492 55.2072C651.492 61.1637 649.506 66.3757 645.535 70.8432C642.06 74.8142 639.082 78.537 636.6 82.0117C613.27 119.737 591.43 149.271 571.078 170.616C550.726 191.464 536.579 201.888 528.637 201.888C522.681 201.888 519.703 198.413 519.703 191.464C519.703 185.507 522.929 176.076 529.382 163.17C536.828 149.271 544.025 134.876 550.975 119.985C557.924 105.093 562.888 93.1803 565.866 84.2454L103.488 108.816Z" fill="black"/>
</g>
    <g transform="translate(324.82, 718.56) scale(1 1) translate(0, 0) scale(0.8472222222222222 0.8505747126436781) "><path d="M75.2888 155.757C70.3193 156.171 65.8466 156.586 61.8709 157C57.8953 157 53.9198 157 49.9441 157C47.9563 157 45.9685 157 43.9807 157C41.9929 156.586 40.0048 156.378 38.0169 156.378C36.0291 155.964 34.2898 155.55 32.7989 155.135C31.805 154.307 30.8113 153.685 29.8174 153.271C21.3691 148.298 14.163 141.461 8.19956 132.759C2.73303 123.642 0 116.805 0 112.247C0 106.86 3.47865 104.166 10.4361 104.166C13.4178 104.166 15.9024 104.373 17.8902 104.788C22.3628 106.031 27.084 106.86 32.0535 107.274C37.5201 107.689 42.9865 107.896 48.453 107.896H57.3983L170.091 97.9505L168.6 44.1317C168.6 38.3304 167.357 33.3578 164.873 29.214C162.885 25.0701 159.903 20.5119 155.927 15.5393C153.94 13.053 152.946 10.7739 152.946 8.70203C152.946 2.90068 158.412 0 169.345 0C172.824 0 179.284 0.828766 188.726 2.4863C198.665 3.72943 208.356 6.21572 217.798 9.94516C227.737 13.6746 232.707 19.476 232.707 27.3492L231.962 95.4642L325.039 85.519C329.511 85.1047 334.481 84.6903 339.947 84.2759C345.911 83.4471 351.377 82.204 356.347 80.5464C359.825 79.7177 362.559 79.3033 364.547 79.3033C369.019 79.3033 374.983 81.168 382.437 84.8975C389.892 88.2125 396.849 92.7707 403.309 98.5721C409.77 104.373 413 110.175 413 115.976C413 120.949 410.764 124.885 406.291 127.786C401.819 130.272 396.352 131.723 389.891 132.137L75.2888 155.757Z" fill="black"/>
<path d="M412 335.023C412 340.642 409.269 345.396 403.807 349.285C398.841 353.175 393.628 356.2 388.166 358.361C382.704 360.522 379.228 361.603 377.738 361.603C371.283 361.603 365.572 358.145 360.607 351.23C346.704 332.214 315.055 296.158 299.662 277.574C284.269 258.99 268.628 241.487 252.738 225.064C248.269 219.878 246.035 215.34 246.035 211.45C246.035 207.992 249.014 203.238 254.973 197.188C260.931 191.137 267.138 188.112 273.593 188.112C278.559 188.112 283.773 190.489 289.235 195.243C294.2 199.565 300.903 206.264 309.345 215.34C318.283 223.983 327.469 233.491 336.904 243.864C346.835 254.236 373.021 281.865 381.462 292.237C390.4 302.177 397.6 311.037 403.062 318.816C409.021 326.163 412 331.566 412 335.023ZM33.938 372C27.9793 372 25 369.191 25 363.572C25 358.818 28.2276 352.336 34.6828 344.124C44.1172 332.455 53.8 319.274 63.731 304.579C73.662 289.453 82.5999 274.759 90.5448 260.497C98.9861 246.234 105.193 234.133 109.165 224.193C112.641 216.846 114.379 208.202 114.379 198.262C114.379 188.754 118.848 184 127.786 184C132.752 184 139.207 185.945 147.152 189.834C155.096 193.292 162.296 197.83 168.752 203.448C175.207 208.634 178.434 214.037 178.434 219.655C178.434 222.68 177.441 225.49 175.455 228.083C167.51 241.48 157.083 256.391 144.172 272.814C131.262 289.237 117.607 305.011 103.207 320.138C88.8068 334.832 75.3999 347.149 62.9862 357.09C50.5724 367.03 40.8897 372 33.938 372Z" fill="black"/>
</g>
  </g>
</svg>
