<?xml version='1.0' encoding='ASCII' standalone='yes'?>
<svg xmlns="http://www.w3.org/2000/svg" xmlns:xlink="http://www.w3.org/1999/xlink" version="1.1" width="1000.0px" viewBox="0 0 1000.0 1200.0" height="1200.0px">
  <g>
    <g transform="translate(203.0, 391.0) scale(1 1) "><path d="M154.968 125.549C135.596 150.78 115.729 173.29 95.3639 193.078C74.9993 212.372 57.1182 227.461 41.7206 238.345C26.8197 249.229 16.1407 254.67 9.68367 254.67C3.2266 254.67 -0.00195312 251.207 -0.00195312 244.281C-0.00195312 238.345 4.71668 230.677 14.1539 221.277C37.002 197.531 59.8501 170.074 82.6982 138.907C105.546 107.245 124.669 76.3251 140.067 46.1474C141.06 43.1791 142.054 39.7161 143.047 35.7584C144.04 31.3059 144.537 26.3588 144.537 20.9169V15.7224C144.537 5.82804 149.007 0.880859 157.948 0.880859C164.405 0.880859 171.359 3.60181 178.809 9.04371C186.26 14.4856 192.717 20.4222 198.18 26.8535C204.141 33.2848 207.121 38.9741 207.121 43.9212C207.121 47.3842 201.657 57.5259 190.73 74.3463L515.57 55.0523H523.02C535.935 55.0523 545.869 59.0101 552.822 66.9255C560.273 74.3463 563.998 80.7776 563.998 86.2195C563.998 89.1878 563.501 92.1561 562.508 95.1244C561.514 97.5979 561.018 100.566 561.018 104.029C557.541 172.795 553.319 230.429 548.352 276.933C543.882 323.436 531.915 430.035 526.451 458.728C521.484 486.927 516.269 508.694 510.805 524.031C505.838 539.367 501.616 549.756 498.139 555.198C495.159 561.134 492.924 564.597 491.434 565.587C479.513 578.45 467.841 584.881 456.417 584.881C449.96 584.881 440.522 582.16 428.105 576.718C416.184 571.771 403.519 565.34 390.108 557.424C376.697 549.509 363.783 541.098 351.365 532.194C338.948 523.783 328.517 515.62 320.073 507.705C311.629 499.79 307.408 493.111 307.408 487.669C307.408 481.732 310.884 478.764 317.838 478.764C324.295 478.764 333.484 481.732 345.405 487.669C370.24 499.542 405.009 511.415 449.711 523.289C450.705 523.289 451.202 523.289 451.202 523.289C452.195 521.31 454.927 512.405 459.397 496.574C464.364 477.775 469.579 451.555 475.043 417.914C480.507 384.273 492.225 277.18 496.199 234.634C500.669 191.594 503.401 148.306 504.394 104.771L154.968 125.549Z" fill="black"/>
</g>
    <g transform="translate(310.82, 529.56) scale(1 1) translate(0, 0) scale(0.8472222222222222 0.8505747126436781) "><path d="M75.2888 155.757C70.3193 156.171 65.8466 156.586 61.8709 157C57.8953 157 53.9198 157 49.9441 157C47.9563 157 45.9685 157 43.9807 157C41.9929 156.586 40.0048 156.378 38.0169 156.378C36.0291 155.964 34.2898 155.55 32.7989 155.135C31.805 154.307 30.8113 153.685 29.8174 153.271C21.3691 148.298 14.163 141.461 8.19956 132.759C2.73303 123.642 0 116.805 0 112.247C0 106.86 3.47865 104.166 10.4361 104.166C13.4178 104.166 15.9024 104.373 17.8902 104.788C22.3628 106.031 27.084 106.86 32.0535 107.274C37.5201 107.689 42.9865 107.896 48.453 107.896H57.3983L170.091 97.9505L168.6 44.1317C168.6 38.3304 167.357 33.3578 164.873 29.214C162.885 25.0701 159.903 20.5119 155.927 15.5393C153.94 13.053 152.946 10.7739 152.946 8.70203C152.946 2.90068 158.412 0 169.345 0C172.824 0 179.284 0.828766 188.726 2.4863C198.665 3.72943 208.356 6.21572 217.798 9.94516C227.737 13.6746 232.707 19.476 232.707 27.3492L231.962 95.4642L325.039 85.519C329.511 85.1047 334.481 84.6903 339.947 84.2759C345.911 83.4471 351.377 82.204 356.347 80.5464C359.825 79.7177 362.559 79.3033 364.547 79.3033C369.019 79.3033 374.983 81.168 382.437 84.8975C389.892 88.2125 396.849 92.7707 403.309 98.5721C409.77 104.373 413 110.175 413 115.976C413 120.949 410.764 124.885 406.291 127.786C401.819 130.272 396.352 131.723 389.891 132.137L75.2888 155.757Z" fill="black"/>
<path d="M412 335.023C412 340.642 409.269 345.396 403.807 349.285C398.841 353.175 393.628 356.2 388.166 358.361C382.704 360.522 379.228 361.603 377.738 361.603C371.283 361.603 365.572 358.145 360.607 351.23C346.704 332.214 315.055 296.158 299.662 277.574C284.269 258.99 268.628 241.487 252.738 225.064C248.269 219.878 246.035 215.34 246.035 211.45C246.035 207.992 249.014 203.238 254.973 197.188C260.931 191.137 267.138 188.112 273.593 188.112C278.559 188.112 283.773 190.489 289.235 195.243C294.2 199.565 300.903 206.264 309.345 215.34C318.283 223.983 327.469 233.491 336.904 243.864C346.835 254.236 373.021 281.865 381.462 292.237C390.4 302.177 397.6 311.037 403.062 318.816C409.021 326.163 412 331.566 412 335.023ZM33.938 372C27.9793 372 25 369.191 25 363.572C25 358.818 28.2276 352.336 34.6828 344.124C44.1172 332.455 53.8 319.274 63.731 304.579C73.662 289.453 82.5999 274.759 90.5448 260.497C98.9861 246.234 105.193 234.133 109.165 224.193C112.641 216.846 114.379 208.202 114.379 198.262C114.379 188.754 118.848 184 127.786 184C132.752 184 139.207 185.945 147.152 189.834C155.096 193.292 162.296 197.83 168.752 203.448C175.207 208.634 178.434 214.037 178.434 219.655C178.434 222.68 177.441 225.49 175.455 228.083C167.51 241.48 157.083 256.391 144.172 272.814C131.262 289.237 117.607 305.011 103.207 320.138C88.8068 334.832 75.3999 347.149 62.9862 357.09C50.5724 367.03 40.8897 372 33.938 372Z" fill="black"/>
</g>
  </g>
</svg>
