<?xml version='1.0' encoding='ASCII' standalone='yes'?>
<svg xmlns="http://www.w3.org/2000/svg" xmlns:xlink="http://www.w3.org/1999/xlink" version="1.1" width="1000.0px" viewBox="0 0 1000.0 1200.0" height="1200.0px">
  <g>
    <g transform="translate(154.0, 417.0) scale(1 1) "><path d="M299.096 268.902L614.235 248.406H621.681C634.587 248.406 644.514 252.391 651.464 260.36C658.91 267.832 662.632 274.307 662.632 279.786C662.632 282.774 662.136 285.763 661.143 288.751C660.15 291.241 659.654 294.23 659.654 297.717C656.179 366.95 651.96 424.976 646.996 471.796C642.529 518.616 637.565 556.47 632.105 585.359C627.141 613.749 621.929 635.665 616.469 651.106C611.505 666.546 607.286 677.006 603.811 682.485C600.833 688.462 598.599 691.948 597.11 692.944C585.197 705.895 573.532 712.37 562.115 712.37C555.662 712.37 546.231 709.63 533.821 704.151C521.908 699.17 509.251 692.696 495.848 684.726C482.446 676.757 469.54 668.289 457.131 659.324C444.721 650.857 434.297 642.638 425.859 634.669C417.42 626.7 413.201 619.975 413.201 614.497C413.201 608.52 416.676 605.531 423.625 605.531C430.078 605.531 439.261 608.52 451.174 614.497C475.993 626.451 510.74 638.404 555.414 650.358H556.903C557.896 648.366 560.626 639.401 565.093 623.462C570.057 604.535 575.269 578.137 580.729 544.267C586.19 510.397 590.905 472.045 594.876 429.21C599.344 385.877 602.074 342.295 603.067 298.464L224.788 317.849C223.288 318.402 197.788 330.376 193.885 331.553C184.79 334.295 175.901 336.809 167.219 339.094C158.951 340.922 152.13 341.836 146.755 341.836C137.247 341.836 132.492 338.637 132.492 332.238C132.492 325.84 138.28 320.127 149.856 315.1C175.488 304.131 201.327 291.105 208.372 283.767C218.288 277.517 242.788 259.265 251.966 250.424C259.821 244.025 264.989 236.484 267.47 227.801C269.537 221.859 277.27 210.039 282.645 210.039C287.606 210.039 292.773 213.01 298.148 218.951C303.936 224.436 308.69 230.606 312.411 237.461C316.132 243.859 319.992 250.424 317.992 253.914C315.654 257.995 312.411 257.388 299.096 268.902Z" fill="black"/>
<path d="M190.738 284.546C179.321 284.546 169.89 281.558 162.444 275.581C155.495 269.604 152.02 262.382 152.02 253.914C154.005 239.968 154.998 229.757 154.998 223.282C152.02 188.396 144.085 167.696 138.128 155.244C134.157 147.275 132.172 141.547 132.172 138.06C132.172 132.083 136.639 129.095 145.574 129.095C151.531 129.095 166.422 134.325 190.248 144.784L352.761 126.854C381.551 126.854 397.187 135.57 399.669 153.003C399.669 156.987 398.925 160.225 397.436 162.715C395.946 164.708 395.202 165.953 395.202 166.451L377.821 241.96C377.821 253.914 372.609 259.891 362.185 259.891C350.769 259.891 341.834 256.405 335.381 249.431C328.928 242.458 325.701 235.485 325.701 228.512V224.776C328.68 213.819 330.665 205.351 331.658 199.374L342.337 170.187L194.716 186.623L204.14 222.535L206.374 264.374C206.374 277.822 201.162 284.546 190.738 284.546Z" fill="black"/>
<path d="M103.488 108.816C98.0273 125.197 91.3262 142.818 83.3841 161.681C75.442 180.047 67.2517 197.172 58.8133 213.056C54.8422 221.495 47.8929 225.714 37.9653 225.714C31.5123 225.714 23.5703 222.736 14.139 216.779C4.7078 210.326 -0.0078125 203.377 -0.0078125 195.931C-0.0078125 192.953 1.48133 188.485 4.45961 182.529C13.3945 167.141 21.8329 150.016 29.775 131.153C38.2135 111.795 45.9074 92.1875 52.8567 72.3323C60.3024 51.9807 66.5072 33.1182 71.471 15.7449C73.9529 5.8173 79.6613 0.853516 88.5961 0.853516C97.531 0.853516 106.466 3.08723 115.401 7.55466C124.336 11.5257 128.803 17.4822 128.803 25.4243C128.803 27.9062 128.307 31.1327 127.314 35.1038C126.817 39.0748 125.328 44.535 122.846 51.4843L594.904 23.9352H600.861C615.752 23.9352 626.673 26.4171 633.622 31.3809C641.068 36.3447 646.031 41.8049 648.513 47.7615L651.492 55.2072C651.492 61.1637 649.506 66.3757 645.535 70.8432C642.06 74.8142 639.082 78.537 636.6 82.0117C613.27 119.737 591.43 149.271 571.078 170.616C550.726 191.464 536.579 201.888 528.637 201.888C522.681 201.888 519.703 198.413 519.703 191.464C519.703 185.507 522.929 176.076 529.382 163.17C536.828 149.271 544.025 134.876 550.975 119.985C557.924 105.093 562.888 93.1803 565.866 84.2454L103.488 108.816Z" fill="black"/>
</g>
    <g transform="translate(322.28, 749.1800000000001) scale(1 1) translate(0, 0) scale(0.8472222222222222 0.8505747126436781) "><path d="M279.08 169.876L184.743 177.044L159.194 275.959L267.288 270.224L279.08 169.876ZM47.1685 329H41.2724C28.6068 329 19.6536 325.894 14.4126 319.682C9.17171 312.992 5.45936 306.541 3.27563 300.329C1.09189 294.117 0 289.099 0 285.277C0 280.976 2.40212 278.826 7.20632 278.826C8.95331 278.826 10.7003 279.065 12.4473 279.542C17.6882 281.454 24.021 282.41 31.4457 282.41C33.6294 282.41 35.8132 282.41 37.9969 282.41C40.1806 281.932 42.3643 281.693 44.5481 281.693L108.095 278.109L133.644 179.911L94.3371 182.061H83.8551C74.2467 182.061 67.4772 180.627 63.5465 177.76C60.0525 174.415 56.3402 170.115 52.4095 164.858C49.3522 158.646 46.5134 151.956 43.8929 144.789C43.4562 143.355 43.2378 141.444 43.2378 139.054C43.2378 134.754 45.4215 132.603 49.789 132.603C51.0992 132.603 51.9727 132.842 52.4095 133.32C53.2829 133.32 54.1564 133.32 55.0299 133.32C62.4546 134.754 69.4425 135.471 75.9937 135.471C78.1774 135.471 80.5796 135.471 83.2 135.471C85.8205 134.993 88.4409 134.754 91.0614 134.754L146.091 131.887L161.159 63.0762L79.2693 68.8105C77.5224 68.8105 75.7753 69.0494 74.0283 69.5272C72.2813 69.5272 70.7528 69.5272 69.4426 69.5272C57.2137 69.5272 48.042 65.7044 41.9276 58.0588C36.2499 49.9354 31.8824 41.0951 28.8252 31.5381C28.3884 30.1046 28.1701 27.7153 28.1701 24.3703C28.1701 20.5475 30.5722 18.6361 35.3765 18.6361C37.5602 18.6361 39.3071 18.8751 40.6174 19.3529C48.0421 20.7865 55.2483 21.5032 62.2362 21.5032H71.4079L305.285 5.73417C309.653 5.25632 313.583 4.77848 317.077 4.30064C320.571 3.34495 323.628 2.38925 326.249 1.43353C328.433 0.955687 330.398 0.716758 332.145 0.716758C333.892 0.238914 335.202 0 336.076 0C340.006 0 344.811 1.91138 350.488 5.73417C356.166 9.55698 361.188 14.3355 365.556 20.0697C370.36 25.8039 372.762 31.2992 372.762 36.5556C372.762 45.1569 365.119 49.9354 349.833 50.891L211.603 60.2091L196.536 128.303L294.803 121.852C295.677 121.852 296.55 121.852 297.424 121.852C298.734 121.374 300.044 121.135 301.354 121.135C307.032 121.135 313.802 124.241 321.663 130.453C329.961 136.187 334.11 143.116 334.11 151.24C334.11 155.062 333.455 158.168 332.145 160.558C331.271 162.469 330.616 164.381 330.18 166.292L315.767 268.074L345.247 265.924C349.615 265.446 353.982 264.968 358.35 264.49C362.717 263.534 367.303 262.579 372.107 261.623C373.854 261.145 375.601 260.906 377.348 260.906C379.095 260.428 380.624 260.19 381.934 260.19C387.612 260.19 392.852 262.579 397.657 267.357C402.898 271.658 407.265 276.675 410.759 282.41C414.253 287.666 416 292.206 416 296.028C416 305.107 409.012 310.125 395.036 311.081L47.1685 329Z" fill="black"/>
</g>
  </g>
</svg>
