<?xml version='1.0' encoding='ASCII' standalone='yes'?>
<svg xmlns="http://www.w3.org/2000/svg" xmlns:xlink="http://www.w3.org/1999/xlink" version="1.1" width="1000.0px" viewBox="0 0 1000.0 1200.0" height="1200.0px">
  <g>
    <g transform="translate(142.0, 379.0) scale(1 1) "><path d="M332.514 283.858C331.025 283.362 325.514 281.358 323.514 280.358C319.514 278.358 310.98 272.92 306.017 267.46C301.053 261.999 298.571 256.291 298.571 250.335C298.571 246.86 298.819 244.13 299.316 242.144C300.805 234.699 302.046 227.501 303.038 220.552C304.031 213.106 304.528 204.667 304.528 195.236V150.562C286.161 169.921 263.576 189.528 236.772 209.383C210.463 228.742 184.652 245.619 159.336 260.014C134.517 273.913 111.187 285.826 89.3465 295.753C68.0022 305.185 50.3807 312.382 36.482 317.346C23.0797 321.813 14.8895 324.047 11.9112 324.047C3.96909 324.047 -0.00195312 320.821 -0.00195312 314.368C-0.00195312 307.418 6.2028 300.717 18.6123 294.264C63.7829 270.438 107.961 243.633 151.146 213.851C194.331 183.571 230.319 154.781 259.109 127.48L151.89 134.181C146.43 134.678 141.467 134.926 136.999 134.926H126.575C115.655 134.926 107.713 133.189 102.749 129.714C93.3176 122.765 86.8646 114.823 83.39 105.888C80.4117 96.9529 78.9225 91.7409 78.9225 90.2518C78.9225 85.288 81.4045 82.8061 86.3683 82.8061C87.361 82.8061 88.1056 83.0543 88.602 83.5507H90.8357C102.252 86.0326 113.917 87.2735 125.831 87.2735L132.532 87.2735L305.272 76.8495V52.7078C305.272 41.7875 302.542 31.8599 297.082 22.925C293.111 16.4721 291.125 12.0047 291.125 9.52277C291.125 3.56619 294.848 0.587891 302.294 0.587891C308.25 0.587891 317.682 2.82161 330.587 7.28903C342.501 11.2601 350.194 15.2311 353.669 19.2022C357.144 23.1732 358.881 28.6334 358.881 35.5827V73.8713L501.839 64.9364C508.292 64.44 513.256 63.6955 516.73 62.7027C520.205 61.7099 525.417 59.9726 532.366 57.4907C535.841 56.0015 539.316 55.257 542.79 55.257C547.754 55.257 553.462 57.7389 559.915 62.7027C566.368 67.1701 572.077 72.3821 577.04 78.3387C582.004 84.2952 584.486 89.7554 584.486 94.7192C584.486 99.683 582.252 103.158 577.785 105.143C573.318 107.129 568.602 108.37 563.638 108.866L394.621 119.29C432.345 143.613 475.531 167.687 524.176 191.513C573.318 215.34 621.963 235.443 670.112 251.824C680.039 255.795 685.003 260.51 685.003 265.971C685.003 267.956 683.266 271.927 679.791 277.884C676.317 283.84 671.353 289.549 664.9 295.009C658.943 299.973 652.49 302.455 645.541 302.455C642.563 302.455 631.89 298.732 613.524 291.286C595.158 283.344 571.828 272.423 543.535 258.525C515.241 244.626 484.465 227.749 451.208 207.894C417.95 188.039 386.927 167.439 358.137 146.095V260.014C358.137 269.942 355.903 276.891 351.435 280.862C347.332 284.509 338.674 285.366 332.514 283.858Z" fill="black"/>
</g>
    <g transform="translate(311.66999999999996, 707.61) scale(1 1) translate(0, 0) scale(0.8472222222222222 0.8505747126436781) "><path d="M69.9896 242.926H58.8211C44.9224 242.926 33.0093 240.444 23.0817 235.48C13.6505 230.516 6.2048 217.61 0.744606 196.762C0.744606 195.769 0.496378 195.025 0 194.528C0 194.032 0 193.287 0 192.295C0 186.835 2.73012 184.104 8.19031 184.104C10.1758 184.104 11.9131 184.353 13.4023 184.849C18.8625 186.835 24.0745 188.324 29.0383 189.316C34.0021 190.309 38.9659 190.806 43.9297 190.806H49.1417L325.893 181.126C330.857 180.63 336.069 180.133 341.53 179.637C347.486 178.644 352.946 177.155 357.91 175.17C361.385 174.177 364.363 173.68 366.845 173.68C372.801 173.68 378.758 176.162 384.715 181.126C391.168 186.09 396.876 191.798 401.84 198.251C406.804 204.704 409.285 210.413 409.285 215.376C409.285 220.837 407.052 224.808 402.584 227.29C398.613 229.275 393.898 230.516 388.438 231.012L69.9896 242.926ZM133.43 66.2668C130.948 66.7632 128.218 67.0113 125.24 67.0113C122.758 67.0113 120.276 67.0113 117.794 67.0113C104.392 67.0113 93.2234 64.2813 84.2886 58.8211C75.3537 52.8645 68.4044 40.455 63.4406 21.5925C63.4406 20.5998 63.1924 19.8552 62.696 19.3588C62.696 18.8624 62.696 18.1179 62.696 17.1251C62.696 11.6649 65.4261 8.93487 70.8863 8.93487C72.8718 8.93487 74.6091 9.18301 76.0982 9.67938C85.5295 13.154 95.2089 14.8914 105.137 14.8914H111.838L252.138 6.70114C257.101 6.20475 262.313 5.70839 267.774 5.21202C273.73 4.21925 279.19 2.73009 284.154 0.744561C286.14 0.248187 288.622 0 291.6 0C296.564 0 302.52 2.23371 309.47 6.70114C316.419 11.1686 322.624 16.6287 328.084 23.0817C333.544 29.5346 336.274 35.243 336.274 40.2068C336.274 45.667 334.04 49.3899 329.573 51.3754C325.106 53.3609 320.39 54.6018 315.426 55.0982L133.43 66.2668Z" fill="black"/>
</g>
  </g>
</svg>
