<?xml version='1.0' encoding='ASCII' standalone='yes'?>
<svg xmlns="http://www.w3.org/2000/svg" xmlns:xlink="http://www.w3.org/1999/xlink" version="1.1" width="1000.0px" viewBox="0 0 1000.0 1200.0" height="1200.0px">
  <g>
    <g transform="translate(160.0, 370.0) scale(1 1) "><path d="M127.653 355.033C127.653 345.602 126.909 337.66 125.419 331.207C123.93 324.258 120.952 316.315 116.485 307.381C115.492 303.906 114.995 301.672 114.995 300.679C114.995 294.226 119.711 291 129.142 291C133.61 291 140.311 291.993 149.246 293.978C158.18 295.964 166.867 299.19 175.306 303.658C183.744 307.629 187.963 313.834 187.963 322.272L186.942 570.802C186.942 587.183 188.183 600.833 190.665 611.754C193.643 622.178 200.096 630.864 210.023 637.814C220.447 644.267 237.324 649.231 260.654 652.705C283.984 655.684 316.497 657.173 358.193 657.173C384.005 657.173 410.064 656.428 436.372 654.939C463.176 652.953 488.492 650.223 512.318 646.749C529.195 643.77 541.852 640.792 550.291 637.814C558.729 634.339 564.686 629.624 568.161 623.667C572.132 617.214 574.146 613.776 578.646 602.776C582.617 585.403 583.541 584.619 586.52 567.742C589.498 550.866 591.731 533.989 593.22 517.112C596.199 491.3 602.156 478.394 611.091 478.394C618.04 478.394 622.755 483.854 625.237 494.775C627.719 505.198 629.457 516.863 630.449 529.769C631.442 542.675 631.938 554.588 631.938 565.509C632.435 576.429 632.683 583.378 632.683 586.357C632.683 619.118 633.61 622.417 628.646 641.776C624.178 661.135 612.09 675.291 597.199 684.722C582.804 694.649 560.715 701.599 530.932 705.57C502.639 709.044 473.6 711.775 443.817 713.76C414.034 715.746 385.246 716.738 357.448 716.738C314.263 716.738 278.027 715.249 248.741 712.271C219.454 709.293 195.628 703.088 177.262 693.657C159.392 684.722 146.487 671.568 138.545 654.194C130.603 636.325 126.631 612.995 126.631 584.205L127.653 355.033Z" fill="black"/>
<path d="M332.511 308.27C331.022 307.774 325.511 305.77 323.511 304.77C319.511 302.77 310.978 297.332 306.014 291.872C301.05 286.412 298.569 280.703 298.569 274.747C298.569 271.272 298.816 268.542 299.313 266.556C300.802 259.111 302.043 251.913 303.036 244.964C304.029 237.518 304.525 229.08 304.525 219.648V174.974C286.159 194.333 263.574 213.94 236.769 233.795C210.461 253.154 184.649 270.031 159.333 284.426C134.514 298.325 111.184 310.238 89.3437 320.165C67.9994 329.597 50.3779 336.794 36.4792 341.758C23.077 346.225 14.8865 348.459 11.9082 348.459C3.96611 348.459 -0.00488281 345.233 -0.00488281 338.78C-0.00488281 331.83 6.19985 325.129 18.6094 318.676C63.78 294.85 107.958 268.046 151.143 238.263C194.328 207.983 230.316 179.193 259.106 151.892L151.888 158.594C146.428 159.09 141.464 159.338 136.997 159.338H126.573C115.652 159.338 107.71 157.601 102.746 154.126C93.3149 147.177 86.8619 139.235 83.3872 130.3C80.4089 121.365 78.9199 116.153 78.9199 114.664C78.9199 109.7 81.4017 107.218 86.3655 107.218C87.3582 107.218 88.103 107.466 88.5994 107.963H90.833C102.25 110.445 113.915 111.686 125.828 111.686L132.529 111.686L305.27 101.262V52.1199C305.27 41.1996 302.54 31.272 297.079 22.3372C293.108 15.8842 291.123 11.4168 291.123 8.93487C291.123 2.9783 294.846 0 302.291 0C308.248 0 317.679 2.23371 330.585 6.70114C342.498 10.6722 350.192 14.6433 353.667 18.6143C357.141 22.5853 358.879 28.0455 358.879 34.9948V98.2834L501.835 89.3485C508.288 88.8521 513.252 88.1076 516.726 87.1148C520.201 86.122 525.413 84.3847 532.363 81.9028C535.837 80.4136 539.312 79.6691 542.786 79.6691C547.75 79.6691 553.458 82.151 559.911 87.1148C566.364 91.5822 572.073 96.7942 577.036 102.751C582 108.707 584.482 114.168 584.482 119.131C584.482 124.095 582.248 127.57 577.781 129.555C573.314 131.541 568.598 132.782 563.634 133.278L394.618 143.702C432.343 168.025 475.527 192.099 524.172 215.926C573.314 239.752 621.959 259.855 670.108 276.236C680.036 280.207 684.999 284.922 684.999 290.383C684.999 292.368 683.262 296.339 679.787 302.296C676.313 308.252 671.349 313.961 664.896 319.421C658.939 324.385 652.487 326.867 645.537 326.867C642.559 326.867 631.887 323.144 613.521 315.698C595.155 307.756 571.825 296.836 543.531 282.937C515.237 269.038 484.461 252.161 451.204 232.306C417.946 212.451 386.924 191.851 358.134 170.507V284.426C358.134 294.354 355.9 301.303 351.433 305.274C347.33 308.921 338.671 309.778 332.511 308.27Z" fill="black"/>
</g>
    <g transform="translate(372.97, 785.85) scale(1 1) translate(0, 0) scale(0.8472222222222222 0.8505747126436781) "><path d="M71.4788 86.8376C67.0114 87.334 63.0403 87.5822 59.5657 87.5822C56.091 87.5822 53.1127 87.5822 50.6308 87.5822C39.7104 87.5822 31.272 85.5967 25.3154 81.6256C20.848 77.6546 16.6287 72.6908 12.6577 66.7342C9.18304 60.2813 6.20476 54.0765 3.72285 48.1199C1.24095 41.667 0 37.1996 0 34.7177C0 28.7611 2.73009 25.7828 8.19028 25.7828C9.67942 25.7828 12.1613 26.2792 15.636 27.2719C24.0745 29.7538 33.0093 30.9948 42.4405 30.9948C44.9224 30.9948 47.1562 30.9948 49.1417 30.9948C51.6236 30.4984 53.8573 30.2503 55.8428 30.2503L332.744 7.4457C337.211 6.94933 341.927 6.20474 346.89 5.21197C351.854 4.21921 357.066 2.73004 362.526 0.744517C364.016 0.248143 366.001 0 368.483 0C373.447 0 379.652 2.23367 387.097 6.7011C394.543 11.1685 401.244 16.8769 407.201 23.8262C413.654 30.7756 416.88 37.4767 416.88 43.9297C416.88 49.3899 414.646 53.6091 410.179 56.5874C406.208 59.0693 401.244 60.5584 395.288 61.0548L71.4788 86.8376Z" fill="black"/>
</g>
  </g>
</svg>
