<?xml version='1.0' encoding='ASCII' standalone='yes'?>
<svg xmlns="http://www.w3.org/2000/svg" xmlns:xlink="http://www.w3.org/1999/xlink" version="1.1" width="1000.0px" viewBox="0 0 1000.0 1200.0" height="1200.0px">
  <g>
    <g transform="translate(160.0, 370.0) scale(1 1) "><path d="M127.653 355.033C127.653 345.602 126.909 337.66 125.419 331.207C123.93 324.258 120.952 316.315 116.485 307.381C115.492 303.906 114.995 301.672 114.995 300.679C114.995 294.226 119.711 291 129.142 291C133.61 291 140.311 291.993 149.246 293.978C158.18 295.964 166.867 299.19 175.306 303.658C183.744 307.629 187.963 313.834 187.963 322.272L186.942 570.802C186.942 587.183 188.183 600.833 190.665 611.754C193.643 622.178 200.096 630.864 210.023 637.814C220.447 644.267 237.324 649.231 260.654 652.705C283.984 655.684 316.497 657.173 358.193 657.173C384.005 657.173 410.064 656.428 436.372 654.939C463.176 652.953 488.492 650.223 512.318 646.749C529.195 643.77 541.852 640.792 550.291 637.814C558.729 634.339 564.686 629.624 568.161 623.667C572.132 617.214 574.146 613.776 578.646 602.776C582.617 585.403 583.541 584.619 586.52 567.742C589.498 550.866 591.731 533.989 593.22 517.112C596.199 491.3 602.156 478.394 611.091 478.394C618.04 478.394 622.755 483.854 625.237 494.775C627.719 505.198 629.457 516.863 630.449 529.769C631.442 542.675 631.938 554.588 631.938 565.509C632.435 576.429 632.683 583.378 632.683 586.357C632.683 619.118 633.61 622.417 628.646 641.776C624.178 661.135 612.09 675.291 597.199 684.722C582.804 694.649 560.715 701.599 530.932 705.57C502.639 709.044 473.6 711.775 443.817 713.76C414.034 715.746 385.246 716.738 357.448 716.738C314.263 716.738 278.027 715.249 248.741 712.271C219.454 709.293 195.628 703.088 177.262 693.657C159.392 684.722 146.487 671.568 138.545 654.194C130.603 636.325 126.631 612.995 126.631 584.205L127.653 355.033Z" fill="black"/>
<path d="M332.511 308.27C331.022 307.774 325.511 305.77 323.511 304.77C319.511 302.77 310.978 297.332 306.014 291.872C301.05 286.412 298.569 280.703 298.569 274.747C298.569 271.272 298.816 268.542 299.313 266.556C300.802 259.111 302.043 251.913 303.036 244.964C304.029 237.518 304.525 229.08 304.525 219.648V174.974C286.159 194.333 263.574 213.94 236.769 233.795C210.461 253.154 184.649 270.031 159.333 284.426C134.514 298.325 111.184 310.238 89.3437 320.165C67.9994 329.597 50.3779 336.794 36.4792 341.758C23.077 346.225 14.8865 348.459 11.9082 348.459C3.96611 348.459 -0.00488281 345.233 -0.00488281 338.78C-0.00488281 331.83 6.19985 325.129 18.6094 318.676C63.78 294.85 107.958 268.046 151.143 238.263C194.328 207.983 230.316 179.193 259.106 151.892L151.888 158.594C146.428 159.09 141.464 159.338 136.997 159.338H126.573C115.652 159.338 107.71 157.601 102.746 154.126C93.3149 147.177 86.8619 139.235 83.3872 130.3C80.4089 121.365 78.9199 116.153 78.9199 114.664C78.9199 109.7 81.4017 107.218 86.3655 107.218C87.3582 107.218 88.103 107.466 88.5994 107.963H90.833C102.25 110.445 113.915 111.686 125.828 111.686L132.529 111.686L305.27 101.262V52.1199C305.27 41.1996 302.54 31.272 297.079 22.3372C293.108 15.8842 291.123 11.4168 291.123 8.93487C291.123 2.9783 294.846 0 302.291 0C308.248 0 317.679 2.23371 330.585 6.70114C342.498 10.6722 350.192 14.6433 353.667 18.6143C357.141 22.5853 358.879 28.0455 358.879 34.9948V98.2834L501.835 89.3485C508.288 88.8521 513.252 88.1076 516.726 87.1148C520.201 86.122 525.413 84.3847 532.363 81.9028C535.837 80.4136 539.312 79.6691 542.786 79.6691C547.75 79.6691 553.458 82.151 559.911 87.1148C566.364 91.5822 572.073 96.7942 577.036 102.751C582 108.707 584.482 114.168 584.482 119.131C584.482 124.095 582.248 127.57 577.781 129.555C573.314 131.541 568.598 132.782 563.634 133.278L394.618 143.702C432.343 168.025 475.527 192.099 524.172 215.926C573.314 239.752 621.959 259.855 670.108 276.236C680.036 280.207 684.999 284.922 684.999 290.383C684.999 292.368 683.262 296.339 679.787 302.296C676.313 308.252 671.349 313.961 664.896 319.421C658.939 324.385 652.487 326.867 645.537 326.867C642.559 326.867 631.887 323.144 613.521 315.698C595.155 307.756 571.825 296.836 543.531 282.937C515.237 269.038 484.461 252.161 451.204 232.306C417.946 212.451 386.924 191.851 358.134 170.507V284.426C358.134 294.354 355.9 301.303 351.433 305.274C347.33 308.921 338.671 309.778 332.511 308.27Z" fill="black"/>
</g>
    <g transform="translate(371.28, 687.1800000000001) scale(1 1) translate(0, 0) scale(0.8472222222222222 0.8505747126436781) "><path d="M279.08 169.876L184.743 177.044L159.194 275.959L267.288 270.224L279.08 169.876ZM47.1685 329H41.2724C28.6068 329 19.6536 325.894 14.4126 319.682C9.17171 312.992 5.45936 306.541 3.27563 300.329C1.09189 294.117 0 289.099 0 285.277C0 280.976 2.40212 278.826 7.20632 278.826C8.95331 278.826 10.7003 279.065 12.4473 279.542C17.6882 281.454 24.021 282.41 31.4457 282.41C33.6294 282.41 35.8132 282.41 37.9969 282.41C40.1806 281.932 42.3643 281.693 44.5481 281.693L108.095 278.109L133.644 179.911L94.3371 182.061H83.8551C74.2467 182.061 67.4772 180.627 63.5465 177.76C60.0525 174.415 56.3402 170.115 52.4095 164.858C49.3522 158.646 46.5134 151.956 43.8929 144.789C43.4562 143.355 43.2378 141.444 43.2378 139.054C43.2378 134.754 45.4215 132.603 49.789 132.603C51.0992 132.603 51.9727 132.842 52.4095 133.32C53.2829 133.32 54.1564 133.32 55.0299 133.32C62.4546 134.754 69.4425 135.471 75.9937 135.471C78.1774 135.471 80.5796 135.471 83.2 135.471C85.8205 134.993 88.4409 134.754 91.0614 134.754L146.091 131.887L161.159 63.0762L79.2693 68.8105C77.5224 68.8105 75.7753 69.0494 74.0283 69.5272C72.2813 69.5272 70.7528 69.5272 69.4426 69.5272C57.2137 69.5272 48.042 65.7044 41.9276 58.0588C36.2499 49.9354 31.8824 41.0951 28.8252 31.5381C28.3884 30.1046 28.1701 27.7153 28.1701 24.3703C28.1701 20.5475 30.5722 18.6361 35.3765 18.6361C37.5602 18.6361 39.3071 18.8751 40.6174 19.3529C48.0421 20.7865 55.2483 21.5032 62.2362 21.5032H71.4079L305.285 5.73417C309.653 5.25632 313.583 4.77848 317.077 4.30064C320.571 3.34495 323.628 2.38925 326.249 1.43353C328.433 0.955687 330.398 0.716758 332.145 0.716758C333.892 0.238914 335.202 0 336.076 0C340.006 0 344.811 1.91138 350.488 5.73417C356.166 9.55698 361.188 14.3355 365.556 20.0697C370.36 25.8039 372.762 31.2992 372.762 36.5556C372.762 45.1569 365.119 49.9354 349.833 50.891L211.603 60.2091L196.536 128.303L294.803 121.852C295.677 121.852 296.55 121.852 297.424 121.852C298.734 121.374 300.044 121.135 301.354 121.135C307.032 121.135 313.802 124.241 321.663 130.453C329.961 136.187 334.11 143.116 334.11 151.24C334.11 155.062 333.455 158.168 332.145 160.558C331.271 162.469 330.616 164.381 330.18 166.292L315.767 268.074L345.247 265.924C349.615 265.446 353.982 264.968 358.35 264.49C362.717 263.534 367.303 262.579 372.107 261.623C373.854 261.145 375.601 260.906 377.348 260.906C379.095 260.428 380.624 260.19 381.934 260.19C387.612 260.19 392.852 262.579 397.657 267.357C402.898 271.658 407.265 276.675 410.759 282.41C414.253 287.666 416 292.206 416 296.028C416 305.107 409.012 310.125 395.036 311.081L47.1685 329Z" fill="black"/>
</g>
  </g>
</svg>
