<?xml version='1.0' encoding='ASCII' standalone='yes'?>
<svg xmlns="http://www.w3.org/2000/svg" xmlns:xlink="http://www.w3.org/1999/xlink" version="1.1" width="1000.0px" viewBox="0 0 1000.0 1200.0" height="1200.0px">
  <g>
    <g transform="translate(142.0, 379.0) scale(1 1) "><path d="M332.514 283.858C331.025 283.362 325.514 281.358 323.514 280.358C319.514 278.358 310.98 272.92 306.017 267.46C301.053 261.999 298.571 256.291 298.571 250.335C298.571 246.86 298.819 244.13 299.316 242.144C300.805 234.699 302.046 227.501 303.038 220.552C304.031 213.106 304.528 204.667 304.528 195.236V150.562C286.161 169.921 263.576 189.528 236.772 209.383C210.463 228.742 184.652 245.619 159.336 260.014C134.517 273.913 111.187 285.826 89.3465 295.753C68.0022 305.185 50.3807 312.382 36.482 317.346C23.0797 321.813 14.8895 324.047 11.9112 324.047C3.96909 324.047 -0.00195312 320.821 -0.00195312 314.368C-0.00195312 307.418 6.2028 300.717 18.6123 294.264C63.7829 270.438 107.961 243.633 151.146 213.851C194.331 183.571 230.319 154.781 259.109 127.48L151.89 134.181C146.43 134.678 141.467 134.926 136.999 134.926H126.575C115.655 134.926 107.713 133.189 102.749 129.714C93.3176 122.765 86.8646 114.823 83.39 105.888C80.4117 96.9529 78.9225 91.7409 78.9225 90.2518C78.9225 85.288 81.4045 82.8061 86.3683 82.8061C87.361 82.8061 88.1056 83.0543 88.602 83.5507H90.8357C102.252 86.0326 113.917 87.2735 125.831 87.2735L132.532 87.2735L305.272 76.8495V52.7078C305.272 41.7875 302.542 31.8599 297.082 22.925C293.111 16.4721 291.125 12.0047 291.125 9.52277C291.125 3.56619 294.848 0.587891 302.294 0.587891C308.25 0.587891 317.682 2.82161 330.587 7.28903C342.501 11.2601 350.194 15.2311 353.669 19.2022C357.144 23.1732 358.881 28.6334 358.881 35.5827V73.8713L501.839 64.9364C508.292 64.44 513.256 63.6955 516.73 62.7027C520.205 61.7099 525.417 59.9726 532.366 57.4907C535.841 56.0015 539.316 55.257 542.79 55.257C547.754 55.257 553.462 57.7389 559.915 62.7027C566.368 67.1701 572.077 72.3821 577.04 78.3387C582.004 84.2952 584.486 89.7554 584.486 94.7192C584.486 99.683 582.252 103.158 577.785 105.143C573.318 107.129 568.602 108.37 563.638 108.866L394.621 119.29C432.345 143.613 475.531 167.687 524.176 191.513C573.318 215.34 621.963 235.443 670.112 251.824C680.039 255.795 685.003 260.51 685.003 265.971C685.003 267.956 683.266 271.927 679.791 277.884C676.317 283.84 671.353 289.549 664.9 295.009C658.943 299.973 652.49 302.455 645.541 302.455C642.563 302.455 631.89 298.732 613.524 291.286C595.158 283.344 571.828 272.423 543.535 258.525C515.241 244.626 484.465 227.749 451.208 207.894C417.95 188.039 386.927 167.439 358.137 146.095V260.014C358.137 269.942 355.903 276.891 351.435 280.862C347.332 284.509 338.674 285.366 332.514 283.858Z" fill="black"/>
</g>
    <g transform="translate(309.97, 768.85) scale(1 1) translate(0, 0) scale(0.8472222222222222 0.8505747126436781) "><path d="M71.4788 86.8376C67.0114 87.334 63.0403 87.5822 59.5657 87.5822C56.091 87.5822 53.1127 87.5822 50.6308 87.5822C39.7104 87.5822 31.272 85.5967 25.3154 81.6256C20.848 77.6546 16.6287 72.6908 12.6577 66.7342C9.18304 60.2813 6.20476 54.0765 3.72285 48.1199C1.24095 41.667 0 37.1996 0 34.7177C0 28.7611 2.73009 25.7828 8.19028 25.7828C9.67942 25.7828 12.1613 26.2792 15.636 27.2719C24.0745 29.7538 33.0093 30.9948 42.4405 30.9948C44.9224 30.9948 47.1562 30.9948 49.1417 30.9948C51.6236 30.4984 53.8573 30.2503 55.8428 30.2503L332.744 7.4457C337.211 6.94933 341.927 6.20474 346.89 5.21197C351.854 4.21921 357.066 2.73004 362.526 0.744517C364.016 0.248143 366.001 0 368.483 0C373.447 0 379.652 2.23367 387.097 6.7011C394.543 11.1685 401.244 16.8769 407.201 23.8262C413.654 30.7756 416.88 37.4767 416.88 43.9297C416.88 49.3899 414.646 53.6091 410.179 56.5874C406.208 59.0693 401.244 60.5584 395.288 61.0548L71.4788 86.8376Z" fill="black"/>
</g>
  </g>
</svg>
