<?xml version='1.0' encoding='ASCII' standalone='yes'?>
<svg xmlns="http://www.w3.org/2000/svg" xmlns:xlink="http://www.w3.org/1999/xlink" version="1.1" width="1000.0px" viewBox="0 0 1000.0 1200.0" height="1200.0px">
  <g>
    <g transform="translate(142.0, 379.0) scale(1 1) "><path d="M332.514 283.858C331.025 283.362 325.514 281.358 323.514 280.358C319.514 278.358 310.98 272.92 306.017 267.46C301.053 261.999 298.571 256.291 298.571 250.335C298.571 246.86 298.819 244.13 299.316 242.144C300.805 234.699 302.046 227.501 303.038 220.552C304.031 213.106 304.528 204.667 304.528 195.236V150.562C286.161 169.921 263.576 189.528 236.772 209.383C210.463 228.742 184.652 245.619 159.336 260.014C134.517 273.913 111.187 285.826 89.3465 295.753C68.0022 305.185 50.3807 312.382 36.482 317.346C23.0797 321.813 14.8895 324.047 11.9112 324.047C3.96909 324.047 -0.00195312 320.821 -0.00195312 314.368C-0.00195312 307.418 6.2028 300.717 18.6123 294.264C63.7829 270.438 107.961 243.633 151.146 213.851C194.331 183.571 230.319 154.781 259.109 127.48L151.89 134.181C146.43 134.678 141.467 134.926 136.999 134.926H126.575C115.655 134.926 107.713 133.189 102.749 129.714C93.3176 122.765 86.8646 114.823 83.39 105.888C80.4117 96.9529 78.9225 91.7409 78.9225 90.2518C78.9225 85.288 81.4045 82.8061 86.3683 82.8061C87.361 82.8061 88.1056 83.0543 88.602 83.5507H90.8357C102.252 86.0326 113.917 87.2735 125.831 87.2735L132.532 87.2735L305.272 76.8495V52.7078C305.272 41.7875 302.542 31.8599 297.082 22.925C293.111 16.4721 291.125 12.0047 291.125 9.52277C291.125 3.56619 294.848 0.587891 302.294 0.587891C308.25 0.587891 317.682 2.82161 330.587 7.28903C342.501 11.2601 350.194 15.2311 353.669 19.2022C357.144 23.1732 358.881 28.6334 358.881 35.5827V73.8713L501.839 64.9364C508.292 64.44 513.256 63.6955 516.73 62.7027C520.205 61.7099 525.417 59.9726 532.366 57.4907C535.841 56.0015 539.316 55.257 542.79 55.257C547.754 55.257 553.462 57.7389 559.915 62.7027C566.368 67.1701 572.077 72.3821 577.04 78.3387C582.004 84.2952 584.486 89.7554 584.486 94.7192C584.486 99.683 582.252 103.158 577.785 105.143C573.318 107.129 568.602 108.37 563.638 108.866L394.621 119.29C432.345 143.613 475.531 167.687 524.176 191.513C573.318 215.34 621.963 235.443 670.112 251.824C680.039 255.795 685.003 260.51 685.003 265.971C685.003 267.956 683.266 271.927 679.791 277.884C676.317 283.84 671.353 289.549 664.9 295.009C658.943 299.973 652.49 302.455 645.541 302.455C642.563 302.455 631.89 298.732 613.524 291.286C595.158 283.344 571.828 272.423 543.535 258.525C515.241 244.626 484.465 227.749 451.208 207.894C417.95 188.039 386.927 167.439 358.137 146.095V260.014C358.137 269.942 355.903 276.891 351.435 280.862C347.332 284.509 338.674 285.366 332.514 283.858Z" fill="black"/>
</g>
    <g transform="translate(310.82, 639.56) scale(1 1) translate(0, 0) scale(0.8472222222222222 0.8505747126436781) "><path d="M75.2888 155.757C70.3193 156.171 65.8466 156.586 61.8709 157C57.8953 157 53.9198 157 49.9441 157C47.9563 157 45.9685 157 43.9807 157C41.9929 156.586 40.0048 156.378 38.0169 156.378C36.0291 155.964 34.2898 155.55 32.7989 155.135C31.805 154.307 30.8113 153.685 29.8174 153.271C21.3691 148.298 14.163 141.461 8.19956 132.759C2.73303 123.642 0 116.805 0 112.247C0 106.86 3.47865 104.166 10.4361 104.166C13.4178 104.166 15.9024 104.373 17.8902 104.788C22.3628 106.031 27.084 106.86 32.0535 107.274C37.5201 107.689 42.9865 107.896 48.453 107.896H57.3983L170.091 97.9505L168.6 44.1317C168.6 38.3304 167.357 33.3578 164.873 29.214C162.885 25.0701 159.903 20.5119 155.927 15.5393C153.94 13.053 152.946 10.7739 152.946 8.70203C152.946 2.90068 158.412 0 169.345 0C172.824 0 179.284 0.828766 188.726 2.4863C198.665 3.72943 208.356 6.21572 217.798 9.94516C227.737 13.6746 232.707 19.476 232.707 27.3492L231.962 95.4642L325.039 85.519C329.511 85.1047 334.481 84.6903 339.947 84.2759C345.911 83.4471 351.377 82.204 356.347 80.5464C359.825 79.7177 362.559 79.3033 364.547 79.3033C369.019 79.3033 374.983 81.168 382.437 84.8975C389.892 88.2125 396.849 92.7707 403.309 98.5721C409.77 104.373 413 110.175 413 115.976C413 120.949 410.764 124.885 406.291 127.786C401.819 130.272 396.352 131.723 389.891 132.137L75.2888 155.757Z" fill="black"/>
<path d="M412 335.023C412 340.642 409.269 345.396 403.807 349.285C398.841 353.175 393.628 356.2 388.166 358.361C382.704 360.522 379.228 361.603 377.738 361.603C371.283 361.603 365.572 358.145 360.607 351.23C346.704 332.214 315.055 296.158 299.662 277.574C284.269 258.99 268.628 241.487 252.738 225.064C248.269 219.878 246.035 215.34 246.035 211.45C246.035 207.992 249.014 203.238 254.973 197.188C260.931 191.137 267.138 188.112 273.593 188.112C278.559 188.112 283.773 190.489 289.235 195.243C294.2 199.565 300.903 206.264 309.345 215.34C318.283 223.983 327.469 233.491 336.904 243.864C346.835 254.236 373.021 281.865 381.462 292.237C390.4 302.177 397.6 311.037 403.062 318.816C409.021 326.163 412 331.566 412 335.023ZM33.938 372C27.9793 372 25 369.191 25 363.572C25 358.818 28.2276 352.336 34.6828 344.124C44.1172 332.455 53.8 319.274 63.731 304.579C73.662 289.453 82.5999 274.759 90.5448 260.497C98.9861 246.234 105.193 234.133 109.165 224.193C112.641 216.846 114.379 208.202 114.379 198.262C114.379 188.754 118.848 184 127.786 184C132.752 184 139.207 185.945 147.152 189.834C155.096 193.292 162.296 197.83 168.752 203.448C175.207 208.634 178.434 214.037 178.434 219.655C178.434 222.68 177.441 225.49 175.455 228.083C167.51 241.48 157.083 256.391 144.172 272.814C131.262 289.237 117.607 305.011 103.207 320.138C88.8068 334.832 75.3999 347.149 62.9862 357.09C50.5724 367.03 40.8897 372 33.938 372Z" fill="black"/>
</g>
  </g>
</svg>
