<?xml version='1.0' encoding='ASCII' standalone='yes'?>
<svg xmlns="http://www.w3.org/2000/svg" xmlns:xlink="http://www.w3.org/1999/xlink" version="1.1" width="1000.0px" viewBox="0 0 1000.0 1200.0" height="1200.0px">
  <g>
    <g transform="translate(142.0, 379.0) scale(1 1) "><path d="M332.514 283.858C331.025 283.362 325.514 281.358 323.514 280.358C319.514 278.358 310.98 272.92 306.017 267.46C301.053 261.999 298.571 256.291 298.571 250.335C298.571 246.86 298.819 244.13 299.316 242.144C300.805 234.699 302.046 227.501 303.038 220.552C304.031 213.106 304.528 204.667 304.528 195.236V150.562C286.161 169.921 263.576 189.528 236.772 209.383C210.463 228.742 184.652 245.619 159.336 260.014C134.517 273.913 111.187 285.826 89.3465 295.753C68.0022 305.185 50.3807 312.382 36.482 317.346C23.0797 321.813 14.8895 324.047 11.9112 324.047C3.96909 324.047 -0.00195312 320.821 -0.00195312 314.368C-0.00195312 307.418 6.2028 300.717 18.6123 294.264C63.7829 270.438 107.961 243.633 151.146 213.851C194.331 183.571 230.319 154.781 259.109 127.48L151.89 134.181C146.43 134.678 141.467 134.926 136.999 134.926H126.575C115.655 134.926 107.713 133.189 102.749 129.714C93.3176 122.765 86.8646 114.823 83.39 105.888C80.4117 96.9529 78.9225 91.7409 78.9225 90.2518C78.9225 85.288 81.4045 82.8061 86.3683 82.8061C87.361 82.8061 88.1056 83.0543 88.602 83.5507H90.8357C102.252 86.0326 113.917 87.2735 125.831 87.2735L132.532 87.2735L305.272 76.8495V52.7078C305.272 41.7875 302.542 31.8599 297.082 22.925C293.111 16.4721 291.125 12.0047 291.125 9.52277C291.125 3.56619 294.848 0.587891 302.294 0.587891C308.25 0.587891 317.682 2.82161 330.587 7.28903C342.501 11.2601 350.194 15.2311 353.669 19.2022C357.144 23.1732 358.881 28.6334 358.881 35.5827V73.8713L501.839 64.9364C508.292 64.44 513.256 63.6955 516.73 62.7027C520.205 61.7099 525.417 59.9726 532.366 57.4907C535.841 56.0015 539.316 55.257 542.79 55.257C547.754 55.257 553.462 57.7389 559.915 62.7027C566.368 67.1701 572.077 72.3821 577.04 78.3387C582.004 84.2952 584.486 89.7554 584.486 94.7192C584.486 99.683 582.252 103.158 577.785 105.143C573.318 107.129 568.602 108.37 563.638 108.866L394.621 119.29C432.345 143.613 475.531 167.687 524.176 191.513C573.318 215.34 621.963 235.443 670.112 251.824C680.039 255.795 685.003 260.51 685.003 265.971C685.003 267.956 683.266 271.927 679.791 277.884C676.317 283.84 671.353 289.549 664.9 295.009C658.943 299.973 652.49 302.455 645.541 302.455C642.563 302.455 631.89 298.732 613.524 291.286C595.158 283.344 571.828 272.423 543.535 258.525C515.241 244.626 484.465 227.749 451.208 207.894C417.95 188.039 386.927 167.439 358.137 146.095V260.014C358.137 269.942 355.903 276.891 351.435 280.862C347.332 284.509 338.674 285.366 332.514 283.858Z" fill="black"/>
</g>
    <g transform="translate(320.99, 682.09) scale(1 1) translate(0, 0) scale(0.8472222222222222 0.8505747126436781) "><path d="M67.7558 286.66C64.2812 286.66 60.8065 286.908 57.3319 287.404C53.8572 287.404 50.6307 287.404 47.6525 287.404C34.2502 287.404 24.0745 283.433 17.1251 275.491C10.6722 267.549 5.95653 259.855 2.97824 252.409L0 240.496C0 234.043 2.97817 230.817 8.93473 230.817C10.4239 230.817 11.6649 231.065 12.6577 231.562C14.1468 231.562 15.636 231.81 17.1251 232.306C27.5491 234.788 37.7248 236.029 47.6525 236.029H54.3536L300.062 224.86C306.019 224.364 311.479 223.868 316.443 223.371C321.406 222.378 326.618 220.889 332.078 218.904C334.064 218.407 336.546 218.159 339.524 218.159C344.488 218.159 350.445 220.393 357.394 224.86C364.84 229.328 371.293 234.788 376.753 241.241C382.709 247.694 385.688 253.402 385.688 258.366C385.688 263.826 383.206 267.549 378.242 269.535C373.278 271.52 368.066 272.761 362.606 273.257L67.7558 286.66ZM134.767 170.507C131.293 170.507 127.818 170.755 124.343 171.251C120.869 171.251 117.642 171.251 114.664 171.251C101.261 171.251 91.0858 167.528 84.1364 160.083C77.6835 152.637 73.2161 145.191 70.7342 137.746C68.2523 129.804 67.0113 125.336 67.0113 124.343C67.0113 118.387 69.9896 115.408 75.9462 115.408C77.4354 115.408 78.6762 115.657 79.669 116.153C81.1581 116.153 82.6473 116.401 84.1364 116.898C88.6039 117.89 93.3195 118.883 98.2833 119.876C103.247 120.372 108.459 120.62 113.919 120.62H120.62L222.627 114.664C229.08 114.168 234.788 113.671 239.752 113.175C244.716 112.182 249.679 110.693 254.643 108.707C256.629 108.211 259.111 107.963 262.089 107.963C266.556 107.963 272.265 110.445 279.214 115.408C286.163 119.876 292.616 125.088 298.573 131.044C305.026 137.001 308.252 142.709 308.252 148.17C308.252 154.126 305.77 157.849 300.806 159.338C295.843 160.331 290.383 161.075 284.426 161.572L134.767 170.507ZM108.707 66.2668C104.736 66.7632 101.013 67.0114 97.5388 67.0114C94.5605 67.0114 91.5822 67.0114 88.6039 67.0114C77.6835 67.0114 70.2378 65.274 66.2668 61.7994C62.2957 58.3247 56.8355 52.8645 49.8862 45.4188C43.4332 37.9731 40.2067 29.5346 40.2067 20.1034C40.2067 14.1468 43.1851 11.1686 49.1417 11.1686C50.6308 11.1686 51.8717 11.4168 52.8644 11.9132C54.3536 11.9132 55.8427 12.1613 57.3319 12.6577C61.7993 13.6504 66.515 14.6432 71.4788 15.636C76.4426 16.1324 81.6545 16.3805 87.1147 16.3805H93.8159L250.92 6.70114C257.373 6.20475 263.082 5.70835 268.045 5.21197C273.009 4.21921 277.973 2.73009 282.937 0.744561C284.922 0.248187 287.404 0 290.383 0C294.85 0 300.558 2.4819 307.508 7.4457C314.457 11.9131 320.91 17.1251 326.867 23.0817C333.319 29.0383 336.546 34.7466 336.546 40.2068C336.546 46.1634 334.064 49.8862 329.1 51.3754C324.136 52.3682 318.676 53.1127 312.72 53.6091L108.707 66.2668Z" fill="black"/>
</g>
  </g>
</svg>
