<?xml version='1.0' encoding='ASCII' standalone='yes'?>
<svg xmlns="http://www.w3.org/2000/svg" xmlns:xlink="http://www.w3.org/1999/xlink" version="1.1" width="1000.0px" viewBox="0 0 1000.0 1200.0" height="1200.0px">
  <g>
    <g transform="translate(142.0, 379.0) scale(1 1) "><path d="M332.514 283.858C331.025 283.362 325.514 281.358 323.514 280.358C319.514 278.358 310.98 272.92 306.017 267.46C301.053 261.999 298.571 256.291 298.571 250.335C298.571 246.86 298.819 244.13 299.316 242.144C300.805 234.699 302.046 227.501 303.038 220.552C304.031 213.106 304.528 204.667 304.528 195.236V150.562C286.161 169.921 263.576 189.528 236.772 209.383C210.463 228.742 184.652 245.619 159.336 260.014C134.517 273.913 111.187 285.826 89.3465 295.753C68.0022 305.185 50.3807 312.382 36.482 317.346C23.0797 321.813 14.8895 324.047 11.9112 324.047C3.96909 324.047 -0.00195312 320.821 -0.00195312 314.368C-0.00195312 307.418 6.2028 300.717 18.6123 294.264C63.7829 270.438 107.961 243.633 151.146 213.851C194.331 183.571 230.319 154.781 259.109 127.48L151.89 134.181C146.43 134.678 141.467 134.926 136.999 134.926H126.575C115.655 134.926 107.713 133.189 102.749 129.714C93.3176 122.765 86.8646 114.823 83.39 105.888C80.4117 96.9529 78.9225 91.7409 78.9225 90.2518C78.9225 85.288 81.4045 82.8061 86.3683 82.8061C87.361 82.8061 88.1056 83.0543 88.602 83.5507H90.8357C102.252 86.0326 113.917 87.2735 125.831 87.2735L132.532 87.2735L305.272 76.8495V52.7078C305.272 41.7875 302.542 31.8599 297.082 22.925C293.111 16.4721 291.125 12.0047 291.125 9.52277C291.125 3.56619 294.848 0.587891 302.294 0.587891C308.25 0.587891 317.682 2.82161 330.587 7.28903C342.501 11.2601 350.194 15.2311 353.669 19.2022C357.144 23.1732 358.881 28.6334 358.881 35.5827V73.8713L501.839 64.9364C508.292 64.44 513.256 63.6955 516.73 62.7027C520.205 61.7099 525.417 59.9726 532.366 57.4907C535.841 56.0015 539.316 55.257 542.79 55.257C547.754 55.257 553.462 57.7389 559.915 62.7027C566.368 67.1701 572.077 72.3821 577.04 78.3387C582.004 84.2952 584.486 89.7554 584.486 94.7192C584.486 99.683 582.252 103.158 577.785 105.143C573.318 107.129 568.602 108.37 563.638 108.866L394.621 119.29C432.345 143.613 475.531 167.687 524.176 191.513C573.318 215.34 621.963 235.443 670.112 251.824C680.039 255.795 685.003 260.51 685.003 265.971C685.003 267.956 683.266 271.927 679.791 277.884C676.317 283.84 671.353 289.549 664.9 295.009C658.943 299.973 652.49 302.455 645.541 302.455C642.563 302.455 631.89 298.732 613.524 291.286C595.158 283.344 571.828 272.423 543.535 258.525C515.241 244.626 484.465 227.749 451.208 207.894C417.95 188.039 386.927 167.439 358.137 146.095V260.014C358.137 269.942 355.903 276.891 351.435 280.862C347.332 284.509 338.674 285.366 332.514 283.858Z" fill="black"/>
</g>
    <g transform="translate(321.83000000000004, 678.69) scale(1 1) translate(0, 0) scale(0.8472222222222222 0.8505747126436781) "><path d="M330.492 38.4277L245.518 42.8831L244.497 130.552C244.497 139.092 245.113 144.29 246.345 146.146C247.577 148.002 250.657 149.302 255.585 150.044H261.128C268.52 150.044 268.286 149.302 274.035 147.817C279.784 145.96 283.89 144.661 286.354 143.918C287.176 143.547 287.997 143.361 288.818 143.361C290.05 142.99 291.282 142.804 292.514 142.804C295.799 142.804 299.7 144.104 304.217 146.703C308.734 148.931 312.84 152.086 316.536 156.17C318.589 158.769 320.232 161.183 321.464 163.411L330.492 38.4277ZM67.7551 298.231L68.371 321.065V323.849C68.371 334.616 63.854 340 54.82 340C50.7136 340 45.786 338.701 40.0371 336.102C32.235 333.131 26.6914 329.604 23.4063 325.52C20.1212 321.807 18.4787 317.723 18.4787 313.268C18.4787 312.154 18.4787 311.226 18.4787 310.483C18.8893 309.741 19.0946 309.184 19.0946 308.812C20.3265 301.015 20.9425 292.476 20.9425 283.194V272.055L12.9351 52.9077C12.5244 47.3385 11.4978 41.5836 9.85529 35.6431C8.21274 29.3313 6.15955 23.9477 3.69573 19.4923C1.23192 14.2944 0 10.7672 0 8.91076C0 3.71281 3.49041 1.11382 10.4712 1.11382C17.8627 1.11382 32.8509 5.56922 55.436 14.48L343.427 0.556921C344.248 0.556921 345.069 0.556921 345.891 0.556921C347.123 0.185644 348.354 0 349.586 0C354.925 0 361.495 2.59897 369.297 7.79692C377.099 12.6236 381 18.1928 381 24.5046C381 27.4749 380.384 30.0738 379.152 32.3015C378.331 34.158 377.715 35.8287 377.304 37.3138L357.594 253.677C369.092 266.672 374.84 275.768 374.84 280.966C374.84 285.793 372.377 288.577 367.449 289.32C362.932 289.691 357.594 290.063 351.434 290.434L67.7551 298.231ZM320.848 173.992C318.795 176.591 315.509 178.819 310.992 180.675C303.601 183.645 294.978 185.687 285.122 186.801C275.267 187.915 266.028 188.472 257.404 188.472C249.014 188.472 236.695 187.358 227.251 185.131C218.217 182.532 211.646 177.705 207.54 170.651C203.434 163.225 201.38 152.643 201.38 138.906V135.564L202.401 44.5538L171.659 46.7815C167.659 88.0109 162.512 89.3323 153.585 124.393C144.333 160.736 120.94 183.254 88.9102 207.016C80.2868 212.957 73.7166 215.927 69.1996 215.927C63.8613 215.927 61.1922 213.514 61.1922 208.687C61.1922 204.603 64.0666 199.219 69.8156 192.536C87.0623 173.601 100.596 160.272 106.773 139.43C115.175 119.973 116.147 113.488 122.383 89.8031C124.436 66.041 125.463 73.6995 125.463 48.4523L57.8998 51.7938L66.5232 259.803L313.861 252.563L320.848 173.992Z" fill="black"/>
</g>
  </g>
</svg>
