<?xml version='1.0' encoding='ASCII' standalone='yes'?>
<svg xmlns="http://www.w3.org/2000/svg" xmlns:xlink="http://www.w3.org/1999/xlink" version="1.1" width="1000.0px" viewBox="0 0 1000.0 1200.0" height="1200.0px">
  <g>
    <g transform="translate(160.0, 370.0) scale(1 1) "><path d="M127.653 355.033C127.653 345.602 126.909 337.66 125.419 331.207C123.93 324.258 120.952 316.315 116.485 307.381C115.492 303.906 114.995 301.672 114.995 300.679C114.995 294.226 119.711 291 129.142 291C133.61 291 140.311 291.993 149.246 293.978C158.18 295.964 166.867 299.19 175.306 303.658C183.744 307.629 187.963 313.834 187.963 322.272L186.942 570.802C186.942 587.183 188.183 600.833 190.665 611.754C193.643 622.178 200.096 630.864 210.023 637.814C220.447 644.267 237.324 649.231 260.654 652.705C283.984 655.684 316.497 657.173 358.193 657.173C384.005 657.173 410.064 656.428 436.372 654.939C463.176 652.953 488.492 650.223 512.318 646.749C529.195 643.77 541.852 640.792 550.291 637.814C558.729 634.339 564.686 629.624 568.161 623.667C572.132 617.214 574.146 613.776 578.646 602.776C582.617 585.403 583.541 584.619 586.52 567.742C589.498 550.866 591.731 533.989 593.22 517.112C596.199 491.3 602.156 478.394 611.091 478.394C618.04 478.394 622.755 483.854 625.237 494.775C627.719 505.198 629.457 516.863 630.449 529.769C631.442 542.675 631.938 554.588 631.938 565.509C632.435 576.429 632.683 583.378 632.683 586.357C632.683 619.118 633.61 622.417 628.646 641.776C624.178 661.135 612.09 675.291 597.199 684.722C582.804 694.649 560.715 701.599 530.932 705.57C502.639 709.044 473.6 711.775 443.817 713.76C414.034 715.746 385.246 716.738 357.448 716.738C314.263 716.738 278.027 715.249 248.741 712.271C219.454 709.293 195.628 703.088 177.262 693.657C159.392 684.722 146.487 671.568 138.545 654.194C130.603 636.325 126.631 612.995 126.631 584.205L127.653 355.033Z" fill="black"/>
<path d="M332.511 308.27C331.022 307.774 325.511 305.77 323.511 304.77C319.511 302.77 310.978 297.332 306.014 291.872C301.05 286.412 298.569 280.703 298.569 274.747C298.569 271.272 298.816 268.542 299.313 266.556C300.802 259.111 302.043 251.913 303.036 244.964C304.029 237.518 304.525 229.08 304.525 219.648V174.974C286.159 194.333 263.574 213.94 236.769 233.795C210.461 253.154 184.649 270.031 159.333 284.426C134.514 298.325 111.184 310.238 89.3437 320.165C67.9994 329.597 50.3779 336.794 36.4792 341.758C23.077 346.225 14.8865 348.459 11.9082 348.459C3.96611 348.459 -0.00488281 345.233 -0.00488281 338.78C-0.00488281 331.83 6.19985 325.129 18.6094 318.676C63.78 294.85 107.958 268.046 151.143 238.263C194.328 207.983 230.316 179.193 259.106 151.892L151.888 158.594C146.428 159.09 141.464 159.338 136.997 159.338H126.573C115.652 159.338 107.71 157.601 102.746 154.126C93.3149 147.177 86.8619 139.235 83.3872 130.3C80.4089 121.365 78.9199 116.153 78.9199 114.664C78.9199 109.7 81.4017 107.218 86.3655 107.218C87.3582 107.218 88.103 107.466 88.5994 107.963H90.833C102.25 110.445 113.915 111.686 125.828 111.686L132.529 111.686L305.27 101.262V52.1199C305.27 41.1996 302.54 31.272 297.079 22.3372C293.108 15.8842 291.123 11.4168 291.123 8.93487C291.123 2.9783 294.846 0 302.291 0C308.248 0 317.679 2.23371 330.585 6.70114C342.498 10.6722 350.192 14.6433 353.667 18.6143C357.141 22.5853 358.879 28.0455 358.879 34.9948V98.2834L501.835 89.3485C508.288 88.8521 513.252 88.1076 516.726 87.1148C520.201 86.122 525.413 84.3847 532.363 81.9028C535.837 80.4136 539.312 79.6691 542.786 79.6691C547.75 79.6691 553.458 82.151 559.911 87.1148C566.364 91.5822 572.073 96.7942 577.036 102.751C582 108.707 584.482 114.168 584.482 119.131C584.482 124.095 582.248 127.57 577.781 129.555C573.314 131.541 568.598 132.782 563.634 133.278L394.618 143.702C432.343 168.025 475.527 192.099 524.172 215.926C573.314 239.752 621.959 259.855 670.108 276.236C680.036 280.207 684.999 284.922 684.999 290.383C684.999 292.368 683.262 296.339 679.787 302.296C676.313 308.252 671.349 313.961 664.896 319.421C658.939 324.385 652.487 326.867 645.537 326.867C642.559 326.867 631.887 323.144 613.521 315.698C595.155 307.756 571.825 296.836 543.531 282.937C515.237 269.038 484.461 252.161 451.204 232.306C417.946 212.451 386.924 191.851 358.134 170.507V284.426C358.134 294.354 355.9 301.303 351.433 305.274C347.33 308.921 338.671 309.778 332.511 308.27Z" fill="black"/>
</g>
    <g transform="translate(373.82, 656.56) scale(1 1) translate(0, 0) scale(0.8472222222222222 0.8505747126436781) "><path d="M75.2888 155.757C70.3193 156.171 65.8466 156.586 61.8709 157C57.8953 157 53.9198 157 49.9441 157C47.9563 157 45.9685 157 43.9807 157C41.9929 156.586 40.0048 156.378 38.0169 156.378C36.0291 155.964 34.2898 155.55 32.7989 155.135C31.805 154.307 30.8113 153.685 29.8174 153.271C21.3691 148.298 14.163 141.461 8.19956 132.759C2.73303 123.642 0 116.805 0 112.247C0 106.86 3.47865 104.166 10.4361 104.166C13.4178 104.166 15.9024 104.373 17.8902 104.788C22.3628 106.031 27.084 106.86 32.0535 107.274C37.5201 107.689 42.9865 107.896 48.453 107.896H57.3983L170.091 97.9505L168.6 44.1317C168.6 38.3304 167.357 33.3578 164.873 29.214C162.885 25.0701 159.903 20.5119 155.927 15.5393C153.94 13.053 152.946 10.7739 152.946 8.70203C152.946 2.90068 158.412 0 169.345 0C172.824 0 179.284 0.828766 188.726 2.4863C198.665 3.72943 208.356 6.21572 217.798 9.94516C227.737 13.6746 232.707 19.476 232.707 27.3492L231.962 95.4642L325.039 85.519C329.511 85.1047 334.481 84.6903 339.947 84.2759C345.911 83.4471 351.377 82.204 356.347 80.5464C359.825 79.7177 362.559 79.3033 364.547 79.3033C369.019 79.3033 374.983 81.168 382.437 84.8975C389.892 88.2125 396.849 92.7707 403.309 98.5721C409.77 104.373 413 110.175 413 115.976C413 120.949 410.764 124.885 406.291 127.786C401.819 130.272 396.352 131.723 389.891 132.137L75.2888 155.757Z" fill="black"/>
<path d="M412 335.023C412 340.642 409.269 345.396 403.807 349.285C398.841 353.175 393.628 356.2 388.166 358.361C382.704 360.522 379.228 361.603 377.738 361.603C371.283 361.603 365.572 358.145 360.607 351.23C346.704 332.214 315.055 296.158 299.662 277.574C284.269 258.99 268.628 241.487 252.738 225.064C248.269 219.878 246.035 215.34 246.035 211.45C246.035 207.992 249.014 203.238 254.973 197.188C260.931 191.137 267.138 188.112 273.593 188.112C278.559 188.112 283.773 190.489 289.235 195.243C294.2 199.565 300.903 206.264 309.345 215.34C318.283 223.983 327.469 233.491 336.904 243.864C346.835 254.236 373.021 281.865 381.462 292.237C390.4 302.177 397.6 311.037 403.062 318.816C409.021 326.163 412 331.566 412 335.023ZM33.938 372C27.9793 372 25 369.191 25 363.572C25 358.818 28.2276 352.336 34.6828 344.124C44.1172 332.455 53.8 319.274 63.731 304.579C73.662 289.453 82.5999 274.759 90.5448 260.497C98.9861 246.234 105.193 234.133 109.165 224.193C112.641 216.846 114.379 208.202 114.379 198.262C114.379 188.754 118.848 184 127.786 184C132.752 184 139.207 185.945 147.152 189.834C155.096 193.292 162.296 197.83 168.752 203.448C175.207 208.634 178.434 214.037 178.434 219.655C178.434 222.68 177.441 225.49 175.455 228.083C167.51 241.48 157.083 256.391 144.172 272.814C131.262 289.237 117.607 305.011 103.207 320.138C88.8068 334.832 75.3999 347.149 62.9862 357.09C50.5724 367.03 40.8897 372 33.938 372Z" fill="black"/>
</g>
  </g>
</svg>
