<?xml version='1.0' encoding='ASCII' standalone='yes'?>
<svg xmlns="http://www.w3.org/2000/svg" xmlns:xlink="http://www.w3.org/1999/xlink" version="1.1" width="1000.0px" viewBox="0 0 1000.0 1200.0" height="1200.0px">
  <g>
    <g transform="translate(125.0, 443.0) scale(1 1) "><path d="M233.823 157.398L573.129 137.177L585.436 56.2952L239.097 77.3948C237.925 103.183 236.167 129.851 233.823 157.398ZM12.3065 582.029C4.10215 582.029 0 577.927 0 569.721C0 562.688 4.39516 555.655 13.1855 548.621C124.53 440.779 180.202 285.168 180.202 81.7906C180.202 60.1048 176.392 39.8843 168.774 21.129L167.895 14.0957C167.895 6.47644 173.462 2.66678 184.597 2.66678C192.801 2.66678 210.968 9.99307 239.097 24.6456L604.774 0.0292969C617.081 0.0292969 628.215 4.132 638.177 12.3374C648.726 19.9568 654 26.697 654 32.558C654 38.419 652.828 42.8148 650.484 45.7453C648.726 48.6758 641.987 79.7393 630.266 138.936C644.917 151.83 652.242 161.794 652.242 168.827C652.242 177.032 649.312 182.307 643.452 184.652C638.177 186.996 502.22 195.495 235.581 210.147C227.376 317.99 192.508 408.836 130.976 482.685C97.5726 524.298 66.2204 553.896 36.9194 571.479C25.7849 578.513 17.5806 582.029 12.3065 582.029Z" fill="black"/>
</g>
    <g transform="translate(398.97, 808.85) scale(1 1) translate(0, 0) scale(0.8472222222222222 0.8505747126436781) "><path d="M71.4788 86.8376C67.0114 87.334 63.0403 87.5822 59.5657 87.5822C56.091 87.5822 53.1127 87.5822 50.6308 87.5822C39.7104 87.5822 31.272 85.5967 25.3154 81.6256C20.848 77.6546 16.6287 72.6908 12.6577 66.7342C9.18304 60.2813 6.20476 54.0765 3.72285 48.1199C1.24095 41.667 0 37.1996 0 34.7177C0 28.7611 2.73009 25.7828 8.19028 25.7828C9.67942 25.7828 12.1613 26.2792 15.636 27.2719C24.0745 29.7538 33.0093 30.9948 42.4405 30.9948C44.9224 30.9948 47.1562 30.9948 49.1417 30.9948C51.6236 30.4984 53.8573 30.2503 55.8428 30.2503L332.744 7.4457C337.211 6.94933 341.927 6.20474 346.89 5.21197C351.854 4.21921 357.066 2.73004 362.526 0.744517C364.016 0.248143 366.001 0 368.483 0C373.447 0 379.652 2.23367 387.097 6.7011C394.543 11.1685 401.244 16.8769 407.201 23.8262C413.654 30.7756 416.88 37.4767 416.88 43.9297C416.88 49.3899 414.646 53.6091 410.179 56.5874C406.208 59.0693 401.244 60.5584 395.288 61.0548L71.4788 86.8376Z" fill="black"/>
</g>
  </g>
</svg>
