<?xml version='1.0' encoding='ASCII' standalone='yes'?>
<svg xmlns="http://www.w3.org/2000/svg" xmlns:xlink="http://www.w3.org/1999/xlink" version="1.1" width="1000.0px" viewBox="0 0 1000.0 1200.0" height="1200.0px">
  <g>
    <g transform="translate(125.0, 443.0) scale(1 1) "><path d="M233.823 157.398L573.129 137.177L585.436 56.2952L239.097 77.3948C237.925 103.183 236.167 129.851 233.823 157.398ZM12.3065 582.029C4.10215 582.029 0 577.927 0 569.721C0 562.688 4.39516 555.655 13.1855 548.621C124.53 440.779 180.202 285.168 180.202 81.7906C180.202 60.1048 176.392 39.8843 168.774 21.129L167.895 14.0957C167.895 6.47644 173.462 2.66678 184.597 2.66678C192.801 2.66678 210.968 9.99307 239.097 24.6456L604.774 0.0292969C617.081 0.0292969 628.215 4.132 638.177 12.3374C648.726 19.9568 654 26.697 654 32.558C654 38.419 652.828 42.8148 650.484 45.7453C648.726 48.6758 641.987 79.7393 630.266 138.936C644.917 151.83 652.242 161.794 652.242 168.827C652.242 177.032 649.312 182.307 643.452 184.652C638.177 186.996 502.22 195.495 235.581 210.147C227.376 317.99 192.508 408.836 130.976 482.685C97.5726 524.298 66.2204 553.896 36.9194 571.479C25.7849 578.513 17.5806 582.029 12.3065 582.029Z" fill="black"/>
</g>
    <g transform="translate(400.67, 747.61) scale(1 1) translate(0, 0) scale(0.8472222222222222 0.8505747126436781) "><path d="M69.9896 242.926H58.8211C44.9224 242.926 33.0093 240.444 23.0817 235.48C13.6505 230.516 6.2048 217.61 0.744606 196.762C0.744606 195.769 0.496378 195.025 0 194.528C0 194.032 0 193.287 0 192.295C0 186.835 2.73012 184.104 8.19031 184.104C10.1758 184.104 11.9131 184.353 13.4023 184.849C18.8625 186.835 24.0745 188.324 29.0383 189.316C34.0021 190.309 38.9659 190.806 43.9297 190.806H49.1417L325.893 181.126C330.857 180.63 336.069 180.133 341.53 179.637C347.486 178.644 352.946 177.155 357.91 175.17C361.385 174.177 364.363 173.68 366.845 173.68C372.801 173.68 378.758 176.162 384.715 181.126C391.168 186.09 396.876 191.798 401.84 198.251C406.804 204.704 409.285 210.413 409.285 215.376C409.285 220.837 407.052 224.808 402.584 227.29C398.613 229.275 393.898 230.516 388.438 231.012L69.9896 242.926ZM133.43 66.2668C130.948 66.7632 128.218 67.0113 125.24 67.0113C122.758 67.0113 120.276 67.0113 117.794 67.0113C104.392 67.0113 93.2234 64.2813 84.2886 58.8211C75.3537 52.8645 68.4044 40.455 63.4406 21.5925C63.4406 20.5998 63.1924 19.8552 62.696 19.3588C62.696 18.8624 62.696 18.1179 62.696 17.1251C62.696 11.6649 65.4261 8.93487 70.8863 8.93487C72.8718 8.93487 74.6091 9.18301 76.0982 9.67938C85.5295 13.154 95.2089 14.8914 105.137 14.8914H111.838L252.138 6.70114C257.101 6.20475 262.313 5.70839 267.774 5.21202C273.73 4.21925 279.19 2.73009 284.154 0.744561C286.14 0.248187 288.622 0 291.6 0C296.564 0 302.52 2.23371 309.47 6.70114C316.419 11.1686 322.624 16.6287 328.084 23.0817C333.544 29.5346 336.274 35.243 336.274 40.2068C336.274 45.667 334.04 49.3899 329.573 51.3754C325.106 53.3609 320.39 54.6018 315.426 55.0982L133.43 66.2668Z" fill="black"/>
</g>
  </g>
</svg>
