<?xml version='1.0' encoding='ASCII' standalone='yes'?>
<svg xmlns="http://www.w3.org/2000/svg" xmlns:xlink="http://www.w3.org/1999/xlink" version="1.1" width="1000.0px" viewBox="0 0 1000.0 1200.0" height="1200.0px">
  <g>
    <g transform="translate(138.0, 431.0) scale(1 1) "><path d="M194.041 476.979C191.559 466.059 190.318 452.408 190.318 436.028L190.134 322.208L285.42 307.714C297.951 305.307 304.216 299.772 304.216 291.107C304.216 284.85 301.084 279.314 294.818 274.501C288.553 269.206 282.046 265.115 275.299 262.227C268.551 258.857 263.25 257.172 259.394 257.172C256.02 257.172 252.887 258.135 249.996 260.06C245.176 262.467 231.508 265.963 231.508 265.963L190.134 273.111L190.857 106.313C202.906 101.018 216.16 94.52 230.619 86.8184C245.56 79.1168 258.573 71.656 269.658 64.4358C281.225 56.7342 287.009 50.7173 287.009 46.3852C287.009 41.5717 284.84 35.7955 280.502 29.0567C276.164 21.8364 270.622 15.3383 263.874 9.56207C257.609 3.30454 251.584 0.175781 245.801 0.175781C239.535 0.175781 235.198 3.30454 232.788 9.56207C229.896 18.7077 223.872 26.6499 214.714 33.3888C193.026 49.7546 166.759 66.1204 135.913 82.4863C105.55 98.3707 75.4271 112.089 45.5455 123.641C32.0505 128.936 25.303 134.953 25.303 141.692C25.303 148.431 30.8456 151.8 41.9307 151.8C48.1963 151.8 56.1486 150.838 65.7879 148.912C75.9091 146.506 86.2713 143.858 96.8744 140.97C107.96 137.601 117.599 134.713 125.792 132.306L138.082 127.974L135.913 281.775L50.606 295.494C41.9307 296.938 32.5324 297.66 22.4112 297.66H10.1212C3.3737 297.66 0 300.548 0 306.324C0 308.249 0.963913 311.137 2.89176 314.988C3.37373 315.951 5.06057 318.839 7.95235 323.653C11.3261 328.466 15.9047 333.28 21.6883 338.093C27.4718 342.906 33.9783 345.313 41.2077 345.313C45.0635 345.313 49.1601 345.072 53.4978 344.591C58.3174 343.628 63.619 342.666 69.4026 341.703L135.19 330.873L134.008 449.43C134.008 478.22 137.979 501.55 145.921 519.42C153.863 536.793 162.769 549.947 180.639 558.882C199.005 568.313 222.831 574.518 252.117 577.496C281.404 580.474 317.64 581.964 360.825 581.964C388.622 581.964 455.412 580.971 485.195 578.985C514.978 577 544.016 574.27 572.31 570.795C602.093 566.824 624.182 559.875 638.577 549.947C653.468 540.516 665.556 526.36 670.023 507.001C674.987 487.643 674.061 484.343 674.061 451.582C674.061 448.604 673.812 441.654 673.316 430.734C673.316 419.814 672.82 407.9 671.827 394.995C670.834 382.089 669.097 370.424 666.615 360C664.133 349.079 659.417 343.619 652.468 343.619C643.533 343.619 637.577 356.525 634.598 382.337C633.109 399.214 630.876 416.091 627.897 432.968C624.919 449.845 623.994 450.628 620.023 468.001C615.523 479.001 613.509 482.439 609.538 488.892C606.064 494.849 600.107 499.564 591.669 503.039C583.23 506.017 570.573 508.996 553.696 511.974C529.869 515.449 504.554 518.179 477.749 520.164C451.441 521.653 387.381 522.398 361.569 522.398C319.873 522.398 287.36 520.909 264.031 517.93C240.701 514.456 223.824 509.492 213.4 503.039C203.472 496.09 197.019 487.403 194.041 476.979Z" fill="black"/>
</g>
    <g transform="translate(431.28, 550.1800000000001) scale(1 1) translate(0, 0) scale(0.8472222222222222 0.8505747126436781) "><path d="M279.08 169.876L184.743 177.044L159.194 275.959L267.288 270.224L279.08 169.876ZM47.1685 329H41.2724C28.6068 329 19.6536 325.894 14.4126 319.682C9.17171 312.992 5.45936 306.541 3.27563 300.329C1.09189 294.117 0 289.099 0 285.277C0 280.976 2.40212 278.826 7.20632 278.826C8.95331 278.826 10.7003 279.065 12.4473 279.542C17.6882 281.454 24.021 282.41 31.4457 282.41C33.6294 282.41 35.8132 282.41 37.9969 282.41C40.1806 281.932 42.3643 281.693 44.5481 281.693L108.095 278.109L133.644 179.911L94.3371 182.061H83.8551C74.2467 182.061 67.4772 180.627 63.5465 177.76C60.0525 174.415 56.3402 170.115 52.4095 164.858C49.3522 158.646 46.5134 151.956 43.8929 144.789C43.4562 143.355 43.2378 141.444 43.2378 139.054C43.2378 134.754 45.4215 132.603 49.789 132.603C51.0992 132.603 51.9727 132.842 52.4095 133.32C53.2829 133.32 54.1564 133.32 55.0299 133.32C62.4546 134.754 69.4425 135.471 75.9937 135.471C78.1774 135.471 80.5796 135.471 83.2 135.471C85.8205 134.993 88.4409 134.754 91.0614 134.754L146.091 131.887L161.159 63.0762L79.2693 68.8105C77.5224 68.8105 75.7753 69.0494 74.0283 69.5272C72.2813 69.5272 70.7528 69.5272 69.4426 69.5272C57.2137 69.5272 48.042 65.7044 41.9276 58.0588C36.2499 49.9354 31.8824 41.0951 28.8252 31.5381C28.3884 30.1046 28.1701 27.7153 28.1701 24.3703C28.1701 20.5475 30.5722 18.6361 35.3765 18.6361C37.5602 18.6361 39.3071 18.8751 40.6174 19.3529C48.0421 20.7865 55.2483 21.5032 62.2362 21.5032H71.4079L305.285 5.73417C309.653 5.25632 313.583 4.77848 317.077 4.30064C320.571 3.34495 323.628 2.38925 326.249 1.43353C328.433 0.955687 330.398 0.716758 332.145 0.716758C333.892 0.238914 335.202 0 336.076 0C340.006 0 344.811 1.91138 350.488 5.73417C356.166 9.55698 361.188 14.3355 365.556 20.0697C370.36 25.8039 372.762 31.2992 372.762 36.5556C372.762 45.1569 365.119 49.9354 349.833 50.891L211.603 60.2091L196.536 128.303L294.803 121.852C295.677 121.852 296.55 121.852 297.424 121.852C298.734 121.374 300.044 121.135 301.354 121.135C307.032 121.135 313.802 124.241 321.663 130.453C329.961 136.187 334.11 143.116 334.11 151.24C334.11 155.062 333.455 158.168 332.145 160.558C331.271 162.469 330.616 164.381 330.18 166.292L315.767 268.074L345.247 265.924C349.615 265.446 353.982 264.968 358.35 264.49C362.717 263.534 367.303 262.579 372.107 261.623C373.854 261.145 375.601 260.906 377.348 260.906C379.095 260.428 380.624 260.19 381.934 260.19C387.612 260.19 392.852 262.579 397.657 267.357C402.898 271.658 407.265 276.675 410.759 282.41C414.253 287.666 416 292.206 416 296.028C416 305.107 409.012 310.125 395.036 311.081L47.1685 329Z" fill="black"/>
</g>
  </g>
</svg>
