<?xml version='1.0' encoding='ASCII' standalone='yes'?>
<svg xmlns="http://www.w3.org/2000/svg" xmlns:xlink="http://www.w3.org/1999/xlink" version="1.1" width="1000.0px" viewBox="0 0 1000.0 1200.0" height="1200.0px">
  <g>
    <g transform="translate(138.0, 431.0) scale(1 1) "><path d="M194.041 476.979C191.559 466.059 190.318 452.408 190.318 436.028L190.134 322.208L285.42 307.714C297.951 305.307 304.216 299.772 304.216 291.107C304.216 284.85 301.084 279.314 294.818 274.501C288.553 269.206 282.046 265.115 275.299 262.227C268.551 258.857 263.25 257.172 259.394 257.172C256.02 257.172 252.887 258.135 249.996 260.06C245.176 262.467 231.508 265.963 231.508 265.963L190.134 273.111L190.857 106.313C202.906 101.018 216.16 94.52 230.619 86.8184C245.56 79.1168 258.573 71.656 269.658 64.4358C281.225 56.7342 287.009 50.7173 287.009 46.3852C287.009 41.5717 284.84 35.7955 280.502 29.0567C276.164 21.8364 270.622 15.3383 263.874 9.56207C257.609 3.30454 251.584 0.175781 245.801 0.175781C239.535 0.175781 235.198 3.30454 232.788 9.56207C229.896 18.7077 223.872 26.6499 214.714 33.3888C193.026 49.7546 166.759 66.1204 135.913 82.4863C105.55 98.3707 75.4271 112.089 45.5455 123.641C32.0505 128.936 25.303 134.953 25.303 141.692C25.303 148.431 30.8456 151.8 41.9307 151.8C48.1963 151.8 56.1486 150.838 65.7879 148.912C75.9091 146.506 86.2713 143.858 96.8744 140.97C107.96 137.601 117.599 134.713 125.792 132.306L138.082 127.974L135.913 281.775L50.606 295.494C41.9307 296.938 32.5324 297.66 22.4112 297.66H10.1212C3.3737 297.66 0 300.548 0 306.324C0 308.249 0.963913 311.137 2.89176 314.988C3.37373 315.951 5.06057 318.839 7.95235 323.653C11.3261 328.466 15.9047 333.28 21.6883 338.093C27.4718 342.906 33.9783 345.313 41.2077 345.313C45.0635 345.313 49.1601 345.072 53.4978 344.591C58.3174 343.628 63.619 342.666 69.4026 341.703L135.19 330.873L134.008 449.43C134.008 478.22 137.979 501.55 145.921 519.42C153.863 536.793 162.769 549.947 180.639 558.882C199.005 568.313 222.831 574.518 252.117 577.496C281.404 580.474 317.64 581.964 360.825 581.964C388.622 581.964 455.412 580.971 485.195 578.985C514.978 577 544.016 574.27 572.31 570.795C602.093 566.824 624.182 559.875 638.577 549.947C653.468 540.516 665.556 526.36 670.023 507.001C674.987 487.643 674.061 484.343 674.061 451.582C674.061 448.604 673.812 441.654 673.316 430.734C673.316 419.814 672.82 407.9 671.827 394.995C670.834 382.089 669.097 370.424 666.615 360C664.133 349.079 659.417 343.619 652.468 343.619C643.533 343.619 637.577 356.525 634.598 382.337C633.109 399.214 630.876 416.091 627.897 432.968C624.919 449.845 623.994 450.628 620.023 468.001C615.523 479.001 613.509 482.439 609.538 488.892C606.064 494.849 600.107 499.564 591.669 503.039C583.23 506.017 570.573 508.996 553.696 511.974C529.869 515.449 504.554 518.179 477.749 520.164C451.441 521.653 387.381 522.398 361.569 522.398C319.873 522.398 287.36 520.909 264.031 517.93C240.701 514.456 223.824 509.492 213.4 503.039C203.472 496.09 197.019 487.403 194.041 476.979Z" fill="black"/>
</g>
    <g transform="translate(434.67, 587.61) scale(1 1) translate(0, 0) scale(0.8472222222222222 0.8505747126436781) "><path d="M69.9896 242.926H58.8211C44.9224 242.926 33.0093 240.444 23.0817 235.48C13.6505 230.516 6.2048 217.61 0.744606 196.762C0.744606 195.769 0.496378 195.025 0 194.528C0 194.032 0 193.287 0 192.295C0 186.835 2.73012 184.104 8.19031 184.104C10.1758 184.104 11.9131 184.353 13.4023 184.849C18.8625 186.835 24.0745 188.324 29.0383 189.316C34.0021 190.309 38.9659 190.806 43.9297 190.806H49.1417L325.893 181.126C330.857 180.63 336.069 180.133 341.53 179.637C347.486 178.644 352.946 177.155 357.91 175.17C361.385 174.177 364.363 173.68 366.845 173.68C372.801 173.68 378.758 176.162 384.715 181.126C391.168 186.09 396.876 191.798 401.84 198.251C406.804 204.704 409.285 210.413 409.285 215.376C409.285 220.837 407.052 224.808 402.584 227.29C398.613 229.275 393.898 230.516 388.438 231.012L69.9896 242.926ZM133.43 66.2668C130.948 66.7632 128.218 67.0113 125.24 67.0113C122.758 67.0113 120.276 67.0113 117.794 67.0113C104.392 67.0113 93.2234 64.2813 84.2886 58.8211C75.3537 52.8645 68.4044 40.455 63.4406 21.5925C63.4406 20.5998 63.1924 19.8552 62.696 19.3588C62.696 18.8624 62.696 18.1179 62.696 17.1251C62.696 11.6649 65.4261 8.93487 70.8863 8.93487C72.8718 8.93487 74.6091 9.18301 76.0982 9.67938C85.5295 13.154 95.2089 14.8914 105.137 14.8914H111.838L252.138 6.70114C257.101 6.20475 262.313 5.70839 267.774 5.21202C273.73 4.21925 279.19 2.73009 284.154 0.744561C286.14 0.248187 288.622 0 291.6 0C296.564 0 302.52 2.23371 309.47 6.70114C316.419 11.1686 322.624 16.6287 328.084 23.0817C333.544 29.5346 336.274 35.243 336.274 40.2068C336.274 45.667 334.04 49.3899 329.573 51.3754C325.106 53.3609 320.39 54.6018 315.426 55.0982L133.43 66.2668Z" fill="black"/>
</g>
  </g>
</svg>
