<?xml version='1.0' encoding='ASCII' standalone='yes'?>
<svg xmlns="http://www.w3.org/2000/svg" xmlns:xlink="http://www.w3.org/1999/xlink" version="1.1" width="1000.0px" viewBox="0 0 1000.0 1200.0" height="1200.0px">
  <g>
    <g transform="translate(230.0, 545.0) scale(1 1) "><path d="M12.6538 64.4745C12.6538 55.0433 11.9092 47.1012 10.4201 40.6482C8.93094 33.6989 5.95266 25.7568 1.48524 16.822C0.492482 13.3473 -0.00390625 11.1136 -0.00390625 10.1208C-0.00390625 3.66788 4.71172 0.441406 14.1429 0.441406C18.6104 0.441406 25.3115 1.43417 34.2464 3.41969C43.1812 5.40522 51.8679 8.63169 60.3063 13.0991C68.7448 17.0702 72.964 23.2749 72.964 31.7134L71.9423 280.244C71.9423 296.624 73.1833 310.275 75.6652 321.195C78.6435 331.619 85.0964 340.306 95.024 347.255C105.448 353.708 122.325 358.672 145.655 362.147C168.985 365.125 201.498 366.614 243.194 366.614C269.005 366.614 295.065 365.87 321.374 364.38C348.178 362.395 373.494 359.665 397.32 356.19C414.197 353.212 426.854 350.234 435.293 347.255C443.731 343.781 449.688 339.065 453.163 333.108C457.134 326.655 459.147 323.218 463.647 312.218C467.618 294.844 468.543 294.061 471.521 277.184C474.5 260.307 476.733 243.43 478.223 226.553C481.201 200.741 487.157 187.835 496.092 187.835C503.042 187.835 507.757 193.296 510.239 204.216C512.721 214.64 514.458 226.305 515.451 239.211C516.444 252.117 516.94 264.03 516.94 274.95C517.437 285.871 517.685 292.82 517.685 295.798C517.685 328.559 518.611 331.859 513.647 351.218C509.18 370.577 497.092 384.732 482.201 394.163C467.806 404.091 445.717 411.04 415.934 415.011C387.64 418.486 358.602 421.216 328.819 423.201C299.036 425.187 270.246 426.18 242.449 426.18C199.264 426.18 163.028 424.691 133.742 421.712C104.455 418.734 80.629 412.529 62.2629 403.098C44.3932 394.163 31.4873 381.009 23.5452 363.636C15.6031 345.766 11.6321 322.436 11.6321 293.646L12.6538 64.4745Z" fill="black"/>
</g>
    <g transform="translate(353.28999999999996, 507.56) scale(1 1) translate(0, 0) scale(0.8472222222222222 0.8505747126436781) "><path d="M243.243 359C218.946 359 210.277 359 188.606 353.383C168.276 350.336 152.161 342.467 140.26 329.775C128.359 316.575 122.409 296.013 122.409 268.09L123.153 181.791L58.0151 193.998C53.0566 195.014 47.8501 195.521 42.3957 195.521C26.0324 195.521 12.6444 183.844 2.2314 160.491C0.74384 157.444 0 154.906 0 152.875C0 147.798 2.47925 144.752 7.43781 143.737L26.0324 144.498C34.4619 144.498 83.4845 136.861 123.153 127.722L123.897 48.7386C123.897 36.554 121.17 25.8924 115.715 16.7539C114.228 14.7231 113.484 11.9308 113.484 8.37693C113.484 2.79231 117.203 0 124.641 0C129.599 0 136.789 1.52307 146.21 4.56923C155.632 7.61541 162.822 10.9154 167.78 14.4693C173.234 18.0231 175.962 23.1001 175.962 29.7001L175.218 117.06C264.968 96.245 299.088 87.6365 303.551 85.098C308.509 82.0518 312.724 80.5287 316.195 80.5287C319.17 80.5287 323.633 82.3057 329.583 85.8595C345.946 98.5519 354.128 109.721 354.128 119.367C354.128 126.983 347.682 132.314 334.789 135.36L174.474 170.368L173.73 257.428C173.73 268.598 174.97 277.482 177.449 284.082C183.895 297.79 184.706 307.712 229.829 307.712C275.944 307.712 306.439 304.412 321.314 297.812C329.744 293.751 335.439 297.416 340.398 278.123C345.356 258.323 349.323 240.046 352.298 223.292C355.769 206.031 361.719 197.4 370.149 197.4C382.05 197.4 388 218.977 388 262.131C388 279.9 387.759 281.312 385.28 297.051C383.297 312.789 377.346 325.228 367.429 334.366C348.587 352.136 316.195 359 243.243 359Z" fill="black"/>
</g>
  </g>
</svg>
