<?xml version='1.0' encoding='ASCII' standalone='yes'?>
<svg xmlns="http://www.w3.org/2000/svg" xmlns:xlink="http://www.w3.org/1999/xlink" version="1.1" width="1000.0px" viewBox="0 0 1000.0 1200.0" height="1200.0px">
  <g>
    <g transform="translate(138.0, 431.0) scale(1 1) "><path d="M194.041 476.979C191.559 466.059 190.318 452.408 190.318 436.028L190.134 322.208L285.42 307.714C297.951 305.307 304.216 299.772 304.216 291.107C304.216 284.85 301.084 279.314 294.818 274.501C288.553 269.206 282.046 265.115 275.299 262.227C268.551 258.857 263.25 257.172 259.394 257.172C256.02 257.172 252.887 258.135 249.996 260.06C245.176 262.467 231.508 265.963 231.508 265.963L190.134 273.111L190.857 106.313C202.906 101.018 216.16 94.52 230.619 86.8184C245.56 79.1168 258.573 71.656 269.658 64.4358C281.225 56.7342 287.009 50.7173 287.009 46.3852C287.009 41.5717 284.84 35.7955 280.502 29.0567C276.164 21.8364 270.622 15.3383 263.874 9.56207C257.609 3.30454 251.584 0.175781 245.801 0.175781C239.535 0.175781 235.198 3.30454 232.788 9.56207C229.896 18.7077 223.872 26.6499 214.714 33.3888C193.026 49.7546 166.759 66.1204 135.913 82.4863C105.55 98.3707 75.4271 112.089 45.5455 123.641C32.0505 128.936 25.303 134.953 25.303 141.692C25.303 148.431 30.8456 151.8 41.9307 151.8C48.1963 151.8 56.1486 150.838 65.7879 148.912C75.9091 146.506 86.2713 143.858 96.8744 140.97C107.96 137.601 117.599 134.713 125.792 132.306L138.082 127.974L135.913 281.775L50.606 295.494C41.9307 296.938 32.5324 297.66 22.4112 297.66H10.1212C3.3737 297.66 0 300.548 0 306.324C0 308.249 0.963913 311.137 2.89176 314.988C3.37373 315.951 5.06057 318.839 7.95235 323.653C11.3261 328.466 15.9047 333.28 21.6883 338.093C27.4718 342.906 33.9783 345.313 41.2077 345.313C45.0635 345.313 49.1601 345.072 53.4978 344.591C58.3174 343.628 63.619 342.666 69.4026 341.703L135.19 330.873L134.008 449.43C134.008 478.22 137.979 501.55 145.921 519.42C153.863 536.793 162.769 549.947 180.639 558.882C199.005 568.313 222.831 574.518 252.117 577.496C281.404 580.474 317.64 581.964 360.825 581.964C388.622 581.964 455.412 580.971 485.195 578.985C514.978 577 544.016 574.27 572.31 570.795C602.093 566.824 624.182 559.875 638.577 549.947C653.468 540.516 665.556 526.36 670.023 507.001C674.987 487.643 674.061 484.343 674.061 451.582C674.061 448.604 673.812 441.654 673.316 430.734C673.316 419.814 672.82 407.9 671.827 394.995C670.834 382.089 669.097 370.424 666.615 360C664.133 349.079 659.417 343.619 652.468 343.619C643.533 343.619 637.577 356.525 634.598 382.337C633.109 399.214 630.876 416.091 627.897 432.968C624.919 449.845 623.994 450.628 620.023 468.001C615.523 479.001 613.509 482.439 609.538 488.892C606.064 494.849 600.107 499.564 591.669 503.039C583.23 506.017 570.573 508.996 553.696 511.974C529.869 515.449 504.554 518.179 477.749 520.164C451.441 521.653 387.381 522.398 361.569 522.398C319.873 522.398 287.36 520.909 264.031 517.93C240.701 514.456 223.824 509.492 213.4 503.039C203.472 496.09 197.019 487.403 194.041 476.979Z" fill="black"/>
</g>
    <g transform="translate(433.82, 519.56) scale(1 1) translate(0, 0) scale(0.8472222222222222 0.8505747126436781) "><path d="M75.2888 155.757C70.3193 156.171 65.8466 156.586 61.8709 157C57.8953 157 53.9198 157 49.9441 157C47.9563 157 45.9685 157 43.9807 157C41.9929 156.586 40.0048 156.378 38.0169 156.378C36.0291 155.964 34.2898 155.55 32.7989 155.135C31.805 154.307 30.8113 153.685 29.8174 153.271C21.3691 148.298 14.163 141.461 8.19956 132.759C2.73303 123.642 0 116.805 0 112.247C0 106.86 3.47865 104.166 10.4361 104.166C13.4178 104.166 15.9024 104.373 17.8902 104.788C22.3628 106.031 27.084 106.86 32.0535 107.274C37.5201 107.689 42.9865 107.896 48.453 107.896H57.3983L170.091 97.9505L168.6 44.1317C168.6 38.3304 167.357 33.3578 164.873 29.214C162.885 25.0701 159.903 20.5119 155.927 15.5393C153.94 13.053 152.946 10.7739 152.946 8.70203C152.946 2.90068 158.412 0 169.345 0C172.824 0 179.284 0.828766 188.726 2.4863C198.665 3.72943 208.356 6.21572 217.798 9.94516C227.737 13.6746 232.707 19.476 232.707 27.3492L231.962 95.4642L325.039 85.519C329.511 85.1047 334.481 84.6903 339.947 84.2759C345.911 83.4471 351.377 82.204 356.347 80.5464C359.825 79.7177 362.559 79.3033 364.547 79.3033C369.019 79.3033 374.983 81.168 382.437 84.8975C389.892 88.2125 396.849 92.7707 403.309 98.5721C409.77 104.373 413 110.175 413 115.976C413 120.949 410.764 124.885 406.291 127.786C401.819 130.272 396.352 131.723 389.891 132.137L75.2888 155.757Z" fill="black"/>
<path d="M412 335.023C412 340.642 409.269 345.396 403.807 349.285C398.841 353.175 393.628 356.2 388.166 358.361C382.704 360.522 379.228 361.603 377.738 361.603C371.283 361.603 365.572 358.145 360.607 351.23C346.704 332.214 315.055 296.158 299.662 277.574C284.269 258.99 268.628 241.487 252.738 225.064C248.269 219.878 246.035 215.34 246.035 211.45C246.035 207.992 249.014 203.238 254.973 197.188C260.931 191.137 267.138 188.112 273.593 188.112C278.559 188.112 283.773 190.489 289.235 195.243C294.2 199.565 300.903 206.264 309.345 215.34C318.283 223.983 327.469 233.491 336.904 243.864C346.835 254.236 373.021 281.865 381.462 292.237C390.4 302.177 397.6 311.037 403.062 318.816C409.021 326.163 412 331.566 412 335.023ZM33.938 372C27.9793 372 25 369.191 25 363.572C25 358.818 28.2276 352.336 34.6828 344.124C44.1172 332.455 53.8 319.274 63.731 304.579C73.662 289.453 82.5999 274.759 90.5448 260.497C98.9861 246.234 105.193 234.133 109.165 224.193C112.641 216.846 114.379 208.202 114.379 198.262C114.379 188.754 118.848 184 127.786 184C132.752 184 139.207 185.945 147.152 189.834C155.096 193.292 162.296 197.83 168.752 203.448C175.207 208.634 178.434 214.037 178.434 219.655C178.434 222.68 177.441 225.49 175.455 228.083C167.51 241.48 157.083 256.391 144.172 272.814C131.262 289.237 117.607 305.011 103.207 320.138C88.8068 334.832 75.3999 347.149 62.9862 357.09C50.5724 367.03 40.8897 372 33.938 372Z" fill="black"/>
</g>
  </g>
</svg>
