<?xml version='1.0' encoding='ASCII' standalone='yes'?>
<svg xmlns="http://www.w3.org/2000/svg" xmlns:xlink="http://www.w3.org/1999/xlink" version="1.1" width="1000.0px" viewBox="0 0 1000.0 1200.0" height="1200.0px">
  <g>
    <g transform="translate(203.0, 406.0) scale(1 1) "><path d="M91.7415 157.89C80.3247 157.89 70.8935 154.912 63.4478 148.956C56.4984 142.999 53.0238 135.801 53.0238 127.363C55.0093 113.464 56.0021 103.289 56.0021 96.8356C53.0238 62.0684 45.0889 41.4395 39.1324 29.03C35.1613 21.0879 33.1758 15.3796 33.1758 11.9049C33.1758 5.94833 37.6432 2.97006 46.5781 2.97006C52.5346 2.97006 67.4261 8.18204 91.2523 18.606L253.765 0.736328C282.555 0.736328 298.191 9.42299 300.673 26.7963C300.673 30.7673 299.929 33.9938 298.439 36.4757C296.95 38.4612 296.206 39.7022 296.206 40.1986L278.825 115.45C278.825 127.363 273.613 133.32 263.189 133.32C251.772 133.32 242.838 129.845 236.385 122.896C229.932 115.946 226.705 108.997 226.705 102.048V98.3247C229.684 87.4044 231.669 78.9659 232.662 73.0093L243.341 43.9214L95.7197 60.302L105.144 96.091L107.377 137.787C107.377 151.189 102.165 157.89 91.7415 157.89Z" fill="black"/>
<path d="M154.867 192.608C135.508 217.924 115.653 240.509 95.3011 260.364C74.9495 279.723 57.0798 294.863 41.692 305.783C26.8006 316.703 16.1285 322.164 9.67554 322.164C3.22259 322.164 -0.00390625 318.689 -0.00390625 311.74C-0.00390625 305.783 4.71171 298.089 14.1429 288.658C36.9764 264.832 59.8099 237.283 82.6434 206.011C105.477 174.242 124.588 143.218 139.975 112.939C140.968 109.961 141.961 106.486 142.954 102.515C143.946 98.0478 144.443 93.084 144.443 87.6238V82.4118C144.443 72.4842 148.91 67.5204 157.845 67.5204C164.298 67.5204 171.247 70.2505 178.693 75.7107C186.139 81.1709 192.592 87.1274 198.052 93.5804C204.009 100.033 206.987 105.742 206.987 110.705C206.987 114.18 201.527 124.356 190.606 141.233L515.239 121.874H522.685C535.591 121.874 545.518 125.845 552.468 133.787C559.913 141.233 563.636 147.686 563.636 153.146C563.636 156.124 563.14 159.103 562.147 162.081C561.154 164.563 560.658 167.541 560.658 171.016C557.183 240.013 552.964 297.841 548 344.501C543.533 391.161 533.569 471.885 528.109 500.675C523.145 528.969 517.933 550.81 512.473 566.198C507.509 581.586 503.29 592.01 499.815 597.47C496.837 603.426 494.603 606.901 493.114 607.894C481.201 620.8 469.536 627.253 458.119 627.253C451.666 627.253 442.235 624.522 429.825 619.062C417.912 614.098 405.255 607.646 391.852 599.703C378.45 591.761 365.544 583.323 353.135 574.388C340.725 565.95 330.301 557.759 321.863 549.817C313.424 541.875 309.205 535.174 309.205 529.714C309.205 523.757 312.68 520.779 319.629 520.779C326.082 520.779 335.265 523.757 347.178 529.714C371.997 541.627 406.744 553.54 451.418 565.453C452.411 565.453 452.907 565.453 452.907 565.453C453.9 563.468 456.63 554.533 461.097 538.649C466.061 519.786 471.273 493.478 476.733 459.724C482.194 425.97 491.909 344.749 495.88 302.06C500.348 258.875 503.078 215.442 504.071 171.76L154.867 192.608Z" fill="black"/>
</g>
    <g transform="translate(320.99, 642.09) scale(1 1) translate(0, 0) scale(0.8472222222222222 0.8505747126436781) "><path d="M67.7558 286.66C64.2812 286.66 60.8065 286.908 57.3319 287.404C53.8572 287.404 50.6307 287.404 47.6525 287.404C34.2502 287.404 24.0745 283.433 17.1251 275.491C10.6722 267.549 5.95653 259.855 2.97824 252.409L0 240.496C0 234.043 2.97817 230.817 8.93473 230.817C10.4239 230.817 11.6649 231.065 12.6577 231.562C14.1468 231.562 15.636 231.81 17.1251 232.306C27.5491 234.788 37.7248 236.029 47.6525 236.029H54.3536L300.062 224.86C306.019 224.364 311.479 223.868 316.443 223.371C321.406 222.378 326.618 220.889 332.078 218.904C334.064 218.407 336.546 218.159 339.524 218.159C344.488 218.159 350.445 220.393 357.394 224.86C364.84 229.328 371.293 234.788 376.753 241.241C382.709 247.694 385.688 253.402 385.688 258.366C385.688 263.826 383.206 267.549 378.242 269.535C373.278 271.52 368.066 272.761 362.606 273.257L67.7558 286.66ZM134.767 170.507C131.293 170.507 127.818 170.755 124.343 171.251C120.869 171.251 117.642 171.251 114.664 171.251C101.261 171.251 91.0858 167.528 84.1364 160.083C77.6835 152.637 73.2161 145.191 70.7342 137.746C68.2523 129.804 67.0113 125.336 67.0113 124.343C67.0113 118.387 69.9896 115.408 75.9462 115.408C77.4354 115.408 78.6762 115.657 79.669 116.153C81.1581 116.153 82.6473 116.401 84.1364 116.898C88.6039 117.89 93.3195 118.883 98.2833 119.876C103.247 120.372 108.459 120.62 113.919 120.62H120.62L222.627 114.664C229.08 114.168 234.788 113.671 239.752 113.175C244.716 112.182 249.679 110.693 254.643 108.707C256.629 108.211 259.111 107.963 262.089 107.963C266.556 107.963 272.265 110.445 279.214 115.408C286.163 119.876 292.616 125.088 298.573 131.044C305.026 137.001 308.252 142.709 308.252 148.17C308.252 154.126 305.77 157.849 300.806 159.338C295.843 160.331 290.383 161.075 284.426 161.572L134.767 170.507ZM108.707 66.2668C104.736 66.7632 101.013 67.0114 97.5388 67.0114C94.5605 67.0114 91.5822 67.0114 88.6039 67.0114C77.6835 67.0114 70.2378 65.274 66.2668 61.7994C62.2957 58.3247 56.8355 52.8645 49.8862 45.4188C43.4332 37.9731 40.2067 29.5346 40.2067 20.1034C40.2067 14.1468 43.1851 11.1686 49.1417 11.1686C50.6308 11.1686 51.8717 11.4168 52.8644 11.9132C54.3536 11.9132 55.8427 12.1613 57.3319 12.6577C61.7993 13.6504 66.515 14.6432 71.4788 15.636C76.4426 16.1324 81.6545 16.3805 87.1147 16.3805H93.8159L250.92 6.70114C257.373 6.20475 263.082 5.70835 268.045 5.21197C273.009 4.21921 277.973 2.73009 282.937 0.744561C284.922 0.248187 287.404 0 290.383 0C294.85 0 300.558 2.4819 307.508 7.4457C314.457 11.9131 320.91 17.1251 326.867 23.0817C333.319 29.0383 336.546 34.7466 336.546 40.2068C336.546 46.1634 334.064 49.8862 329.1 51.3754C324.136 52.3682 318.676 53.1127 312.72 53.6091L108.707 66.2668Z" fill="black"/>
</g>
  </g>
</svg>
