<?xml version='1.0' encoding='ASCII' standalone='yes'?>
<svg xmlns="http://www.w3.org/2000/svg" xmlns:xlink="http://www.w3.org/1999/xlink" version="1.1" width="1000.0px" viewBox="0 0 1000.0 1200.0" height="1200.0px">
  <g>
    <g transform="translate(203.0, 406.0) scale(1 1) "><path d="M91.7415 157.89C80.3247 157.89 70.8935 154.912 63.4478 148.956C56.4984 142.999 53.0238 135.801 53.0238 127.363C55.0093 113.464 56.0021 103.289 56.0021 96.8356C53.0238 62.0684 45.0889 41.4395 39.1324 29.03C35.1613 21.0879 33.1758 15.3796 33.1758 11.9049C33.1758 5.94833 37.6432 2.97006 46.5781 2.97006C52.5346 2.97006 67.4261 8.18204 91.2523 18.606L253.765 0.736328C282.555 0.736328 298.191 9.42299 300.673 26.7963C300.673 30.7673 299.929 33.9938 298.439 36.4757C296.95 38.4612 296.206 39.7022 296.206 40.1986L278.825 115.45C278.825 127.363 273.613 133.32 263.189 133.32C251.772 133.32 242.838 129.845 236.385 122.896C229.932 115.946 226.705 108.997 226.705 102.048V98.3247C229.684 87.4044 231.669 78.9659 232.662 73.0093L243.341 43.9214L95.7197 60.302L105.144 96.091L107.377 137.787C107.377 151.189 102.165 157.89 91.7415 157.89Z" fill="black"/>
<path d="M154.867 192.608C135.508 217.924 115.653 240.509 95.3011 260.364C74.9495 279.723 57.0798 294.863 41.692 305.783C26.8006 316.703 16.1285 322.164 9.67554 322.164C3.22259 322.164 -0.00390625 318.689 -0.00390625 311.74C-0.00390625 305.783 4.71171 298.089 14.1429 288.658C36.9764 264.832 59.8099 237.283 82.6434 206.011C105.477 174.242 124.588 143.218 139.975 112.939C140.968 109.961 141.961 106.486 142.954 102.515C143.946 98.0478 144.443 93.084 144.443 87.6238V82.4118C144.443 72.4842 148.91 67.5204 157.845 67.5204C164.298 67.5204 171.247 70.2505 178.693 75.7107C186.139 81.1709 192.592 87.1274 198.052 93.5804C204.009 100.033 206.987 105.742 206.987 110.705C206.987 114.18 201.527 124.356 190.606 141.233L515.239 121.874H522.685C535.591 121.874 545.518 125.845 552.468 133.787C559.913 141.233 563.636 147.686 563.636 153.146C563.636 156.124 563.14 159.103 562.147 162.081C561.154 164.563 560.658 167.541 560.658 171.016C557.183 240.013 552.964 297.841 548 344.501C543.533 391.161 533.569 471.885 528.109 500.675C523.145 528.969 517.933 550.81 512.473 566.198C507.509 581.586 503.29 592.01 499.815 597.47C496.837 603.426 494.603 606.901 493.114 607.894C481.201 620.8 469.536 627.253 458.119 627.253C451.666 627.253 442.235 624.522 429.825 619.062C417.912 614.098 405.255 607.646 391.852 599.703C378.45 591.761 365.544 583.323 353.135 574.388C340.725 565.95 330.301 557.759 321.863 549.817C313.424 541.875 309.205 535.174 309.205 529.714C309.205 523.757 312.68 520.779 319.629 520.779C326.082 520.779 335.265 523.757 347.178 529.714C371.997 541.627 406.744 553.54 451.418 565.453C452.411 565.453 452.907 565.453 452.907 565.453C453.9 563.468 456.63 554.533 461.097 538.649C466.061 519.786 471.273 493.478 476.733 459.724C482.194 425.97 491.909 344.749 495.88 302.06C500.348 258.875 503.078 215.442 504.071 171.76L154.867 192.608Z" fill="black"/>
</g>
    <g transform="translate(310.82, 599.56) scale(1 1) translate(0, 0) scale(0.8472222222222222 0.8505747126436781) "><path d="M75.2888 155.757C70.3193 156.171 65.8466 156.586 61.8709 157C57.8953 157 53.9198 157 49.9441 157C47.9563 157 45.9685 157 43.9807 157C41.9929 156.586 40.0048 156.378 38.0169 156.378C36.0291 155.964 34.2898 155.55 32.7989 155.135C31.805 154.307 30.8113 153.685 29.8174 153.271C21.3691 148.298 14.163 141.461 8.19956 132.759C2.73303 123.642 0 116.805 0 112.247C0 106.86 3.47865 104.166 10.4361 104.166C13.4178 104.166 15.9024 104.373 17.8902 104.788C22.3628 106.031 27.084 106.86 32.0535 107.274C37.5201 107.689 42.9865 107.896 48.453 107.896H57.3983L170.091 97.9505L168.6 44.1317C168.6 38.3304 167.357 33.3578 164.873 29.214C162.885 25.0701 159.903 20.5119 155.927 15.5393C153.94 13.053 152.946 10.7739 152.946 8.70203C152.946 2.90068 158.412 0 169.345 0C172.824 0 179.284 0.828766 188.726 2.4863C198.665 3.72943 208.356 6.21572 217.798 9.94516C227.737 13.6746 232.707 19.476 232.707 27.3492L231.962 95.4642L325.039 85.519C329.511 85.1047 334.481 84.6903 339.947 84.2759C345.911 83.4471 351.377 82.204 356.347 80.5464C359.825 79.7177 362.559 79.3033 364.547 79.3033C369.019 79.3033 374.983 81.168 382.437 84.8975C389.892 88.2125 396.849 92.7707 403.309 98.5721C409.77 104.373 413 110.175 413 115.976C413 120.949 410.764 124.885 406.291 127.786C401.819 130.272 396.352 131.723 389.891 132.137L75.2888 155.757Z" fill="black"/>
<path d="M412 335.023C412 340.642 409.269 345.396 403.807 349.285C398.841 353.175 393.628 356.2 388.166 358.361C382.704 360.522 379.228 361.603 377.738 361.603C371.283 361.603 365.572 358.145 360.607 351.23C346.704 332.214 315.055 296.158 299.662 277.574C284.269 258.99 268.628 241.487 252.738 225.064C248.269 219.878 246.035 215.34 246.035 211.45C246.035 207.992 249.014 203.238 254.973 197.188C260.931 191.137 267.138 188.112 273.593 188.112C278.559 188.112 283.773 190.489 289.235 195.243C294.2 199.565 300.903 206.264 309.345 215.34C318.283 223.983 327.469 233.491 336.904 243.864C346.835 254.236 373.021 281.865 381.462 292.237C390.4 302.177 397.6 311.037 403.062 318.816C409.021 326.163 412 331.566 412 335.023ZM33.938 372C27.9793 372 25 369.191 25 363.572C25 358.818 28.2276 352.336 34.6828 344.124C44.1172 332.455 53.8 319.274 63.731 304.579C73.662 289.453 82.5999 274.759 90.5448 260.497C98.9861 246.234 105.193 234.133 109.165 224.193C112.641 216.846 114.379 208.202 114.379 198.262C114.379 188.754 118.848 184 127.786 184C132.752 184 139.207 185.945 147.152 189.834C155.096 193.292 162.296 197.83 168.752 203.448C175.207 208.634 178.434 214.037 178.434 219.655C178.434 222.68 177.441 225.49 175.455 228.083C167.51 241.48 157.083 256.391 144.172 272.814C131.262 289.237 117.607 305.011 103.207 320.138C88.8068 334.832 75.3999 347.149 62.9862 357.09C50.5724 367.03 40.8897 372 33.938 372Z" fill="black"/>
</g>
  </g>
</svg>
