<?xml version='1.0' encoding='ASCII' standalone='yes'?>
<svg xmlns="http://www.w3.org/2000/svg" xmlns:xlink="http://www.w3.org/1999/xlink" version="1.1" width="1000.0px" viewBox="0 0 1000.0 1200.0" height="1200.0px">
  <g>
    <g transform="translate(203.0, 406.0) scale(1 1) "><path d="M91.7415 157.89C80.3247 157.89 70.8935 154.912 63.4478 148.956C56.4984 142.999 53.0238 135.801 53.0238 127.363C55.0093 113.464 56.0021 103.289 56.0021 96.8356C53.0238 62.0684 45.0889 41.4395 39.1324 29.03C35.1613 21.0879 33.1758 15.3796 33.1758 11.9049C33.1758 5.94833 37.6432 2.97006 46.5781 2.97006C52.5346 2.97006 67.4261 8.18204 91.2523 18.606L253.765 0.736328C282.555 0.736328 298.191 9.42299 300.673 26.7963C300.673 30.7673 299.929 33.9938 298.439 36.4757C296.95 38.4612 296.206 39.7022 296.206 40.1986L278.825 115.45C278.825 127.363 273.613 133.32 263.189 133.32C251.772 133.32 242.838 129.845 236.385 122.896C229.932 115.946 226.705 108.997 226.705 102.048V98.3247C229.684 87.4044 231.669 78.9659 232.662 73.0093L243.341 43.9214L95.7197 60.302L105.144 96.091L107.377 137.787C107.377 151.189 102.165 157.89 91.7415 157.89Z" fill="black"/>
<path d="M154.867 192.608C135.508 217.924 115.653 240.509 95.3011 260.364C74.9495 279.723 57.0798 294.863 41.692 305.783C26.8006 316.703 16.1285 322.164 9.67554 322.164C3.22259 322.164 -0.00390625 318.689 -0.00390625 311.74C-0.00390625 305.783 4.71171 298.089 14.1429 288.658C36.9764 264.832 59.8099 237.283 82.6434 206.011C105.477 174.242 124.588 143.218 139.975 112.939C140.968 109.961 141.961 106.486 142.954 102.515C143.946 98.0478 144.443 93.084 144.443 87.6238V82.4118C144.443 72.4842 148.91 67.5204 157.845 67.5204C164.298 67.5204 171.247 70.2505 178.693 75.7107C186.139 81.1709 192.592 87.1274 198.052 93.5804C204.009 100.033 206.987 105.742 206.987 110.705C206.987 114.18 201.527 124.356 190.606 141.233L515.239 121.874H522.685C535.591 121.874 545.518 125.845 552.468 133.787C559.913 141.233 563.636 147.686 563.636 153.146C563.636 156.124 563.14 159.103 562.147 162.081C561.154 164.563 560.658 167.541 560.658 171.016C557.183 240.013 552.964 297.841 548 344.501C543.533 391.161 533.569 471.885 528.109 500.675C523.145 528.969 517.933 550.81 512.473 566.198C507.509 581.586 503.29 592.01 499.815 597.47C496.837 603.426 494.603 606.901 493.114 607.894C481.201 620.8 469.536 627.253 458.119 627.253C451.666 627.253 442.235 624.522 429.825 619.062C417.912 614.098 405.255 607.646 391.852 599.703C378.45 591.761 365.544 583.323 353.135 574.388C340.725 565.95 330.301 557.759 321.863 549.817C313.424 541.875 309.205 535.174 309.205 529.714C309.205 523.757 312.68 520.779 319.629 520.779C326.082 520.779 335.265 523.757 347.178 529.714C371.997 541.627 406.744 553.54 451.418 565.453C452.411 565.453 452.907 565.453 452.907 565.453C453.9 563.468 456.63 554.533 461.097 538.649C466.061 519.786 471.273 493.478 476.733 459.724C482.194 425.97 491.909 344.749 495.88 302.06C500.348 258.875 503.078 215.442 504.071 171.76L154.867 192.608Z" fill="black"/>
</g>
    <g transform="translate(319.28999999999996, 599.56) scale(1 1) translate(0, 0) scale(0.8472222222222222 0.8505747126436781) "><path d="M243.243 359C218.946 359 210.277 359 188.606 353.383C168.276 350.336 152.161 342.467 140.26 329.775C128.359 316.575 122.409 296.013 122.409 268.09L123.153 181.791L58.0151 193.998C53.0566 195.014 47.8501 195.521 42.3957 195.521C26.0324 195.521 12.6444 183.844 2.2314 160.491C0.74384 157.444 0 154.906 0 152.875C0 147.798 2.47925 144.752 7.43781 143.737L26.0324 144.498C34.4619 144.498 83.4845 136.861 123.153 127.722L123.897 48.7386C123.897 36.554 121.17 25.8924 115.715 16.7539C114.228 14.7231 113.484 11.9308 113.484 8.37693C113.484 2.79231 117.203 0 124.641 0C129.599 0 136.789 1.52307 146.21 4.56923C155.632 7.61541 162.822 10.9154 167.78 14.4693C173.234 18.0231 175.962 23.1001 175.962 29.7001L175.218 117.06C264.968 96.245 299.088 87.6365 303.551 85.098C308.509 82.0518 312.724 80.5287 316.195 80.5287C319.17 80.5287 323.633 82.3057 329.583 85.8595C345.946 98.5519 354.128 109.721 354.128 119.367C354.128 126.983 347.682 132.314 334.789 135.36L174.474 170.368L173.73 257.428C173.73 268.598 174.97 277.482 177.449 284.082C183.895 297.79 184.706 307.712 229.829 307.712C275.944 307.712 306.439 304.412 321.314 297.812C329.744 293.751 335.439 297.416 340.398 278.123C345.356 258.323 349.323 240.046 352.298 223.292C355.769 206.031 361.719 197.4 370.149 197.4C382.05 197.4 388 218.977 388 262.131C388 279.9 387.759 281.312 385.28 297.051C383.297 312.789 377.346 325.228 367.429 334.366C348.587 352.136 316.195 359 243.243 359Z" fill="black"/>
</g>
  </g>
</svg>
