<?xml version='1.0' encoding='ASCII' standalone='yes'?>
<svg xmlns="http://www.w3.org/2000/svg" xmlns:xlink="http://www.w3.org/1999/xlink" version="1.1" width="1000.0px" viewBox="0 0 1000.0 1200.0" height="1200.0px">
  <g>
    <g transform="translate(203.0, 406.0) scale(1 1) "><path d="M91.7415 157.89C80.3247 157.89 70.8935 154.912 63.4478 148.956C56.4984 142.999 53.0238 135.801 53.0238 127.363C55.0093 113.464 56.0021 103.289 56.0021 96.8356C53.0238 62.0684 45.0889 41.4395 39.1324 29.03C35.1613 21.0879 33.1758 15.3796 33.1758 11.9049C33.1758 5.94833 37.6432 2.97006 46.5781 2.97006C52.5346 2.97006 67.4261 8.18204 91.2523 18.606L253.765 0.736328C282.555 0.736328 298.191 9.42299 300.673 26.7963C300.673 30.7673 299.929 33.9938 298.439 36.4757C296.95 38.4612 296.206 39.7022 296.206 40.1986L278.825 115.45C278.825 127.363 273.613 133.32 263.189 133.32C251.772 133.32 242.838 129.845 236.385 122.896C229.932 115.946 226.705 108.997 226.705 102.048V98.3247C229.684 87.4044 231.669 78.9659 232.662 73.0093L243.341 43.9214L95.7197 60.302L105.144 96.091L107.377 137.787C107.377 151.189 102.165 157.89 91.7415 157.89Z" fill="black"/>
<path d="M154.867 192.608C135.508 217.924 115.653 240.509 95.3011 260.364C74.9495 279.723 57.0798 294.863 41.692 305.783C26.8006 316.703 16.1285 322.164 9.67554 322.164C3.22259 322.164 -0.00390625 318.689 -0.00390625 311.74C-0.00390625 305.783 4.71171 298.089 14.1429 288.658C36.9764 264.832 59.8099 237.283 82.6434 206.011C105.477 174.242 124.588 143.218 139.975 112.939C140.968 109.961 141.961 106.486 142.954 102.515C143.946 98.0478 144.443 93.084 144.443 87.6238V82.4118C144.443 72.4842 148.91 67.5204 157.845 67.5204C164.298 67.5204 171.247 70.2505 178.693 75.7107C186.139 81.1709 192.592 87.1274 198.052 93.5804C204.009 100.033 206.987 105.742 206.987 110.705C206.987 114.18 201.527 124.356 190.606 141.233L515.239 121.874H522.685C535.591 121.874 545.518 125.845 552.468 133.787C559.913 141.233 563.636 147.686 563.636 153.146C563.636 156.124 563.14 159.103 562.147 162.081C561.154 164.563 560.658 167.541 560.658 171.016C557.183 240.013 552.964 297.841 548 344.501C543.533 391.161 533.569 471.885 528.109 500.675C523.145 528.969 517.933 550.81 512.473 566.198C507.509 581.586 503.29 592.01 499.815 597.47C496.837 603.426 494.603 606.901 493.114 607.894C481.201 620.8 469.536 627.253 458.119 627.253C451.666 627.253 442.235 624.522 429.825 619.062C417.912 614.098 405.255 607.646 391.852 599.703C378.45 591.761 365.544 583.323 353.135 574.388C340.725 565.95 330.301 557.759 321.863 549.817C313.424 541.875 309.205 535.174 309.205 529.714C309.205 523.757 312.68 520.779 319.629 520.779C326.082 520.779 335.265 523.757 347.178 529.714C371.997 541.627 406.744 553.54 451.418 565.453C452.411 565.453 452.907 565.453 452.907 565.453C453.9 563.468 456.63 554.533 461.097 538.649C466.061 519.786 471.273 493.478 476.733 459.724C482.194 425.97 491.909 344.749 495.88 302.06C500.348 258.875 503.078 215.442 504.071 171.76L154.867 192.608Z" fill="black"/>
</g>
    <g transform="translate(311.66999999999996, 667.61) scale(1 1) translate(0, 0) scale(0.8472222222222222 0.8505747126436781) "><path d="M69.9896 242.926H58.8211C44.9224 242.926 33.0093 240.444 23.0817 235.48C13.6505 230.516 6.2048 217.61 0.744606 196.762C0.744606 195.769 0.496378 195.025 0 194.528C0 194.032 0 193.287 0 192.295C0 186.835 2.73012 184.104 8.19031 184.104C10.1758 184.104 11.9131 184.353 13.4023 184.849C18.8625 186.835 24.0745 188.324 29.0383 189.316C34.0021 190.309 38.9659 190.806 43.9297 190.806H49.1417L325.893 181.126C330.857 180.63 336.069 180.133 341.53 179.637C347.486 178.644 352.946 177.155 357.91 175.17C361.385 174.177 364.363 173.68 366.845 173.68C372.801 173.68 378.758 176.162 384.715 181.126C391.168 186.09 396.876 191.798 401.84 198.251C406.804 204.704 409.285 210.413 409.285 215.376C409.285 220.837 407.052 224.808 402.584 227.29C398.613 229.275 393.898 230.516 388.438 231.012L69.9896 242.926ZM133.43 66.2668C130.948 66.7632 128.218 67.0113 125.24 67.0113C122.758 67.0113 120.276 67.0113 117.794 67.0113C104.392 67.0113 93.2234 64.2813 84.2886 58.8211C75.3537 52.8645 68.4044 40.455 63.4406 21.5925C63.4406 20.5998 63.1924 19.8552 62.696 19.3588C62.696 18.8624 62.696 18.1179 62.696 17.1251C62.696 11.6649 65.4261 8.93487 70.8863 8.93487C72.8718 8.93487 74.6091 9.18301 76.0982 9.67938C85.5295 13.154 95.2089 14.8914 105.137 14.8914H111.838L252.138 6.70114C257.101 6.20475 262.313 5.70839 267.774 5.21202C273.73 4.21925 279.19 2.73009 284.154 0.744561C286.14 0.248187 288.622 0 291.6 0C296.564 0 302.52 2.23371 309.47 6.70114C316.419 11.1686 322.624 16.6287 328.084 23.0817C333.544 29.5346 336.274 35.243 336.274 40.2068C336.274 45.667 334.04 49.3899 329.573 51.3754C325.106 53.3609 320.39 54.6018 315.426 55.0982L133.43 66.2668Z" fill="black"/>
</g>
  </g>
</svg>
