<?xml version='1.0' encoding='ASCII' standalone='yes'?>
<svg xmlns="http://www.w3.org/2000/svg" xmlns:xlink="http://www.w3.org/1999/xlink" version="1.1" width="1000.0px" viewBox="0 0 1000.0 1200.0" height="1200.0px">
  <g>
    <g transform="translate(107.0, 384.0) scale(1 1) "><path d="M237.748 160.363L582.761 139.829L595.274 57.6965L243.11 79.1225C241.919 105.31 240.131 132.39 237.748 160.363ZM12.5056 591.56C4.16334 591.56 -0.0078125 587.394 -0.0078125 579.062C-0.0078125 571.92 4.46128 564.778 13.3994 557.636C126.616 448.125 183.225 290.109 183.225 83.5862C183.225 61.5651 179.352 41.0318 171.605 21.9865L170.711 14.8445C170.711 7.10738 176.372 3.23882 187.694 3.23882C196.036 3.23882 214.508 10.6784 243.11 25.5575L614.938 0.560547C627.452 0.560547 638.773 4.7267 648.903 13.059C659.629 20.7962 664.992 27.6406 664.992 33.5923C664.992 39.5439 663.8 44.0077 661.417 46.9835C659.629 49.9593 652.777 81.5031 640.859 141.615C655.756 154.709 663.204 164.826 663.204 171.968C663.204 180.301 660.225 185.657 654.266 188.038C648.903 190.419 510.66 199.048 239.535 213.928C231.193 323.438 195.738 415.689 133.171 490.68C99.2059 532.937 67.3264 562.993 37.5325 580.848C26.2108 587.99 17.8685 591.56 12.5056 591.56Z" fill="black"/>
<path d="M318.249 550.296C318.249 566.677 319.49 580.327 321.972 591.248C324.95 601.672 331.403 610.358 341.331 617.308C351.755 623.76 374.632 628.724 397.962 632.199C421.292 635.177 453.805 636.666 495.501 636.666C521.313 636.666 547.373 635.922 573.681 634.433C600.486 632.447 625.801 629.717 649.627 626.242C666.504 623.264 679.161 620.286 687.6 617.308C696.038 613.833 701.995 609.117 705.47 603.161C709.441 596.708 711.455 593.27 715.955 582.27C719.926 564.897 720.851 564.113 723.829 547.236C726.807 530.359 729.04 513.482 730.53 496.605C733.508 470.794 739.465 457.888 748.4 457.888C755.349 457.888 760.064 463.348 762.546 474.268C765.028 484.692 766.766 496.357 767.759 509.263C768.751 522.169 769.247 534.082 769.247 545.003C769.744 555.923 769.992 562.872 769.992 565.851C769.992 598.612 770.919 601.911 765.955 621.27C761.487 640.629 749.4 654.784 734.508 664.215C720.113 674.143 698.024 681.092 668.242 685.063C639.948 688.538 610.909 691.268 581.126 693.254C551.343 695.239 522.553 696.232 494.756 696.232C451.571 696.232 415.335 694.743 386.049 691.765C356.762 688.786 339.936 682.582 321.57 673.15C303.7 664.215 290.794 651.061 282.852 633.688C274.91 615.818 270.939 592.489 270.939 563.698L270.693 532.441L246.262 538.299C241.301 539.214 236.753 540.128 232.619 541.042C228.898 541.499 225.384 541.727 222.077 541.727C215.875 541.727 210.294 539.442 205.333 534.872C200.372 530.302 196.445 525.731 193.551 521.161C191.07 516.591 189.623 513.848 189.21 512.934C187.556 509.278 186.729 506.536 186.729 504.708C186.729 499.223 189.623 496.481 195.411 496.481H205.953C214.635 496.481 222.697 495.796 230.138 494.424L271.314 485.824L273.174 406.163L269.729 407.056C268.229 407.609 260.729 409.583 256.827 410.76C247.731 413.502 238.843 416.016 230.161 418.301C221.893 420.129 215.071 421.043 209.697 421.043C200.188 421.043 195.434 417.844 195.434 411.445C195.434 405.047 201.222 399.334 212.797 394.307C238.429 383.338 264.268 370.313 271.314 362.974C281.229 356.724 305.729 338.472 314.908 329.631C322.763 323.232 327.93 315.691 330.411 307.008C332.478 301.066 336.199 298.096 341.573 298.096C346.534 298.096 351.702 301.066 357.077 307.008C362.864 312.492 367.619 318.662 371.34 325.518C375.06 331.916 376.921 337.4 376.921 341.971C376.921 346.084 371.96 351.797 362.038 359.11C352.529 365.965 337.729 375.124 328.551 380.361C324.729 382.542 322.729 383.826 318.443 385.597L317.823 477.597L331.333 473.796C336.294 472.881 340.635 471.739 344.356 470.368C348.49 468.997 352.624 467.168 356.758 464.883C359.239 463.055 361.926 462.141 364.82 462.141C368.127 462.141 372.675 463.741 378.463 466.94C384.251 469.682 389.832 473.567 395.206 478.594C400.581 483.165 403.268 488.421 403.268 494.362C403.268 502.588 397.894 507.844 387.145 510.129L317.823 524.215L318.249 550.296Z" fill="black"/>
</g>
    <g transform="translate(489.67, 714.61) scale(1 1) translate(0, 0) scale(0.8472222222222222 0.8505747126436781) "><path d="M69.9896 242.926H58.8211C44.9224 242.926 33.0093 240.444 23.0817 235.48C13.6505 230.516 6.2048 217.61 0.744606 196.762C0.744606 195.769 0.496378 195.025 0 194.528C0 194.032 0 193.287 0 192.295C0 186.835 2.73012 184.104 8.19031 184.104C10.1758 184.104 11.9131 184.353 13.4023 184.849C18.8625 186.835 24.0745 188.324 29.0383 189.316C34.0021 190.309 38.9659 190.806 43.9297 190.806H49.1417L325.893 181.126C330.857 180.63 336.069 180.133 341.53 179.637C347.486 178.644 352.946 177.155 357.91 175.17C361.385 174.177 364.363 173.68 366.845 173.68C372.801 173.68 378.758 176.162 384.715 181.126C391.168 186.09 396.876 191.798 401.84 198.251C406.804 204.704 409.285 210.413 409.285 215.376C409.285 220.837 407.052 224.808 402.584 227.29C398.613 229.275 393.898 230.516 388.438 231.012L69.9896 242.926ZM133.43 66.2668C130.948 66.7632 128.218 67.0113 125.24 67.0113C122.758 67.0113 120.276 67.0113 117.794 67.0113C104.392 67.0113 93.2234 64.2813 84.2886 58.8211C75.3537 52.8645 68.4044 40.455 63.4406 21.5925C63.4406 20.5998 63.1924 19.8552 62.696 19.3588C62.696 18.8624 62.696 18.1179 62.696 17.1251C62.696 11.6649 65.4261 8.93487 70.8863 8.93487C72.8718 8.93487 74.6091 9.18301 76.0982 9.67938C85.5295 13.154 95.2089 14.8914 105.137 14.8914H111.838L252.138 6.70114C257.101 6.20475 262.313 5.70839 267.774 5.21202C273.73 4.21925 279.19 2.73009 284.154 0.744561C286.14 0.248187 288.622 0 291.6 0C296.564 0 302.52 2.23371 309.47 6.70114C316.419 11.1686 322.624 16.6287 328.084 23.0817C333.544 29.5346 336.274 35.243 336.274 40.2068C336.274 45.667 334.04 49.3899 329.573 51.3754C325.106 53.3609 320.39 54.6018 315.426 55.0982L133.43 66.2668Z" fill="black"/>
</g>
  </g>
</svg>
