<?xml version='1.0' encoding='ASCII' standalone='yes'?>
<svg xmlns="http://www.w3.org/2000/svg" xmlns:xlink="http://www.w3.org/1999/xlink" version="1.1" width="1000.0px" viewBox="0 0 1000.0 1200.0" height="1200.0px">
  <g>
    <g transform="translate(107.0, 384.0) scale(1 1) "><path d="M237.748 160.363L582.761 139.829L595.274 57.6965L243.11 79.1225C241.919 105.31 240.131 132.39 237.748 160.363ZM12.5056 591.56C4.16334 591.56 -0.0078125 587.394 -0.0078125 579.062C-0.0078125 571.92 4.46128 564.778 13.3994 557.636C126.616 448.125 183.225 290.109 183.225 83.5862C183.225 61.5651 179.352 41.0318 171.605 21.9865L170.711 14.8445C170.711 7.10738 176.372 3.23882 187.694 3.23882C196.036 3.23882 214.508 10.6784 243.11 25.5575L614.938 0.560547C627.452 0.560547 638.773 4.7267 648.903 13.059C659.629 20.7962 664.992 27.6406 664.992 33.5923C664.992 39.5439 663.8 44.0077 661.417 46.9835C659.629 49.9593 652.777 81.5031 640.859 141.615C655.756 154.709 663.204 164.826 663.204 171.968C663.204 180.301 660.225 185.657 654.266 188.038C648.903 190.419 510.66 199.048 239.535 213.928C231.193 323.438 195.738 415.689 133.171 490.68C99.2059 532.937 67.3264 562.993 37.5325 580.848C26.2108 587.99 17.8685 591.56 12.5056 591.56Z" fill="black"/>
<path d="M318.249 550.296C318.249 566.677 319.49 580.327 321.972 591.248C324.95 601.672 331.403 610.358 341.331 617.308C351.755 623.76 374.632 628.724 397.962 632.199C421.292 635.177 453.805 636.666 495.501 636.666C521.313 636.666 547.373 635.922 573.681 634.433C600.486 632.447 625.801 629.717 649.627 626.242C666.504 623.264 679.161 620.286 687.6 617.308C696.038 613.833 701.995 609.117 705.47 603.161C709.441 596.708 711.455 593.27 715.955 582.27C719.926 564.897 720.851 564.113 723.829 547.236C726.807 530.359 729.04 513.482 730.53 496.605C733.508 470.794 739.465 457.888 748.4 457.888C755.349 457.888 760.064 463.348 762.546 474.268C765.028 484.692 766.766 496.357 767.759 509.263C768.751 522.169 769.247 534.082 769.247 545.003C769.744 555.923 769.992 562.872 769.992 565.851C769.992 598.612 770.919 601.911 765.955 621.27C761.487 640.629 749.4 654.784 734.508 664.215C720.113 674.143 698.024 681.092 668.242 685.063C639.948 688.538 610.909 691.268 581.126 693.254C551.343 695.239 522.553 696.232 494.756 696.232C451.571 696.232 415.335 694.743 386.049 691.765C356.762 688.786 339.936 682.582 321.57 673.15C303.7 664.215 290.794 651.061 282.852 633.688C274.91 615.818 270.939 592.489 270.939 563.698L270.693 532.441L246.262 538.299C241.301 539.214 236.753 540.128 232.619 541.042C228.898 541.499 225.384 541.727 222.077 541.727C215.875 541.727 210.294 539.442 205.333 534.872C200.372 530.302 196.445 525.731 193.551 521.161C191.07 516.591 189.623 513.848 189.21 512.934C187.556 509.278 186.729 506.536 186.729 504.708C186.729 499.223 189.623 496.481 195.411 496.481H205.953C214.635 496.481 222.697 495.796 230.138 494.424L271.314 485.824L273.174 406.163L269.729 407.056C268.229 407.609 260.729 409.583 256.827 410.76C247.731 413.502 238.843 416.016 230.161 418.301C221.893 420.129 215.071 421.043 209.697 421.043C200.188 421.043 195.434 417.844 195.434 411.445C195.434 405.047 201.222 399.334 212.797 394.307C238.429 383.338 264.268 370.313 271.314 362.974C281.229 356.724 305.729 338.472 314.908 329.631C322.763 323.232 327.93 315.691 330.411 307.008C332.478 301.066 336.199 298.096 341.573 298.096C346.534 298.096 351.702 301.066 357.077 307.008C362.864 312.492 367.619 318.662 371.34 325.518C375.06 331.916 376.921 337.4 376.921 341.971C376.921 346.084 371.96 351.797 362.038 359.11C352.529 365.965 337.729 375.124 328.551 380.361C324.729 382.542 322.729 383.826 318.443 385.597L317.823 477.597L331.333 473.796C336.294 472.881 340.635 471.739 344.356 470.368C348.49 468.997 352.624 467.168 356.758 464.883C359.239 463.055 361.926 462.141 364.82 462.141C368.127 462.141 372.675 463.741 378.463 466.94C384.251 469.682 389.832 473.567 395.206 478.594C400.581 483.165 403.268 488.421 403.268 494.362C403.268 502.588 397.894 507.844 387.145 510.129L317.823 524.215L318.249 550.296Z" fill="black"/>
</g>
    <g transform="translate(486.28, 677.1800000000001) scale(1 1) translate(0, 0) scale(0.8472222222222222 0.8505747126436781) "><path d="M279.08 169.876L184.743 177.044L159.194 275.959L267.288 270.224L279.08 169.876ZM47.1685 329H41.2724C28.6068 329 19.6536 325.894 14.4126 319.682C9.17171 312.992 5.45936 306.541 3.27563 300.329C1.09189 294.117 0 289.099 0 285.277C0 280.976 2.40212 278.826 7.20632 278.826C8.95331 278.826 10.7003 279.065 12.4473 279.542C17.6882 281.454 24.021 282.41 31.4457 282.41C33.6294 282.41 35.8132 282.41 37.9969 282.41C40.1806 281.932 42.3643 281.693 44.5481 281.693L108.095 278.109L133.644 179.911L94.3371 182.061H83.8551C74.2467 182.061 67.4772 180.627 63.5465 177.76C60.0525 174.415 56.3402 170.115 52.4095 164.858C49.3522 158.646 46.5134 151.956 43.8929 144.789C43.4562 143.355 43.2378 141.444 43.2378 139.054C43.2378 134.754 45.4215 132.603 49.789 132.603C51.0992 132.603 51.9727 132.842 52.4095 133.32C53.2829 133.32 54.1564 133.32 55.0299 133.32C62.4546 134.754 69.4425 135.471 75.9937 135.471C78.1774 135.471 80.5796 135.471 83.2 135.471C85.8205 134.993 88.4409 134.754 91.0614 134.754L146.091 131.887L161.159 63.0762L79.2693 68.8105C77.5224 68.8105 75.7753 69.0494 74.0283 69.5272C72.2813 69.5272 70.7528 69.5272 69.4426 69.5272C57.2137 69.5272 48.042 65.7044 41.9276 58.0588C36.2499 49.9354 31.8824 41.0951 28.8252 31.5381C28.3884 30.1046 28.1701 27.7153 28.1701 24.3703C28.1701 20.5475 30.5722 18.6361 35.3765 18.6361C37.5602 18.6361 39.3071 18.8751 40.6174 19.3529C48.0421 20.7865 55.2483 21.5032 62.2362 21.5032H71.4079L305.285 5.73417C309.653 5.25632 313.583 4.77848 317.077 4.30064C320.571 3.34495 323.628 2.38925 326.249 1.43353C328.433 0.955687 330.398 0.716758 332.145 0.716758C333.892 0.238914 335.202 0 336.076 0C340.006 0 344.811 1.91138 350.488 5.73417C356.166 9.55698 361.188 14.3355 365.556 20.0697C370.36 25.8039 372.762 31.2992 372.762 36.5556C372.762 45.1569 365.119 49.9354 349.833 50.891L211.603 60.2091L196.536 128.303L294.803 121.852C295.677 121.852 296.55 121.852 297.424 121.852C298.734 121.374 300.044 121.135 301.354 121.135C307.032 121.135 313.802 124.241 321.663 130.453C329.961 136.187 334.11 143.116 334.11 151.24C334.11 155.062 333.455 158.168 332.145 160.558C331.271 162.469 330.616 164.381 330.18 166.292L315.767 268.074L345.247 265.924C349.615 265.446 353.982 264.968 358.35 264.49C362.717 263.534 367.303 262.579 372.107 261.623C373.854 261.145 375.601 260.906 377.348 260.906C379.095 260.428 380.624 260.19 381.934 260.19C387.612 260.19 392.852 262.579 397.657 267.357C402.898 271.658 407.265 276.675 410.759 282.41C414.253 287.666 416 292.206 416 296.028C416 305.107 409.012 310.125 395.036 311.081L47.1685 329Z" fill="black"/>
</g>
  </g>
</svg>
