<?xml version='1.0' encoding='ASCII' standalone='yes'?>
<svg xmlns="http://www.w3.org/2000/svg" xmlns:xlink="http://www.w3.org/1999/xlink" version="1.1" width="1000.0px" viewBox="0 0 1000.0 1200.0" height="1200.0px">
  <g>
    <g transform="translate(138.0, 431.0) scale(1 1) "><path d="M194.041 476.979C191.559 466.059 190.318 452.408 190.318 436.028L190.134 322.208L285.42 307.714C297.951 305.307 304.216 299.772 304.216 291.107C304.216 284.85 301.084 279.314 294.818 274.501C288.553 269.206 282.046 265.115 275.299 262.227C268.551 258.857 263.25 257.172 259.394 257.172C256.02 257.172 252.887 258.135 249.996 260.06C245.176 262.467 231.508 265.963 231.508 265.963L190.134 273.111L190.857 106.313C202.906 101.018 216.16 94.52 230.619 86.8184C245.56 79.1168 258.573 71.656 269.658 64.4358C281.225 56.7342 287.009 50.7173 287.009 46.3852C287.009 41.5717 284.84 35.7955 280.502 29.0567C276.164 21.8364 270.622 15.3383 263.874 9.56207C257.609 3.30454 251.584 0.175781 245.801 0.175781C239.535 0.175781 235.198 3.30454 232.788 9.56207C229.896 18.7077 223.872 26.6499 214.714 33.3888C193.026 49.7546 166.759 66.1204 135.913 82.4863C105.55 98.3707 75.4271 112.089 45.5455 123.641C32.0505 128.936 25.303 134.953 25.303 141.692C25.303 148.431 30.8456 151.8 41.9307 151.8C48.1963 151.8 56.1486 150.838 65.7879 148.912C75.9091 146.506 86.2713 143.858 96.8744 140.97C107.96 137.601 117.599 134.713 125.792 132.306L138.082 127.974L135.913 281.775L50.606 295.494C41.9307 296.938 32.5324 297.66 22.4112 297.66H10.1212C3.3737 297.66 0 300.548 0 306.324C0 308.249 0.963913 311.137 2.89176 314.988C3.37373 315.951 5.06057 318.839 7.95235 323.653C11.3261 328.466 15.9047 333.28 21.6883 338.093C27.4718 342.906 33.9783 345.313 41.2077 345.313C45.0635 345.313 49.1601 345.072 53.4978 344.591C58.3174 343.628 63.619 342.666 69.4026 341.703L135.19 330.873L134.008 449.43C134.008 478.22 137.979 501.55 145.921 519.42C153.863 536.793 162.769 549.947 180.639 558.882C199.005 568.313 222.831 574.518 252.117 577.496C281.404 580.474 317.64 581.964 360.825 581.964C388.622 581.964 455.412 580.971 485.195 578.985C514.978 577 544.016 574.27 572.31 570.795C602.093 566.824 624.182 559.875 638.577 549.947C653.468 540.516 665.556 526.36 670.023 507.001C674.987 487.643 674.061 484.343 674.061 451.582C674.061 448.604 673.812 441.654 673.316 430.734C673.316 419.814 672.82 407.9 671.827 394.995C670.834 382.089 669.097 370.424 666.615 360C664.133 349.079 659.417 343.619 652.468 343.619C643.533 343.619 637.577 356.525 634.598 382.337C633.109 399.214 630.876 416.091 627.897 432.968C624.919 449.845 623.994 450.628 620.023 468.001C615.523 479.001 613.509 482.439 609.538 488.892C606.064 494.849 600.107 499.564 591.669 503.039C583.23 506.017 570.573 508.996 553.696 511.974C529.869 515.449 504.554 518.179 477.749 520.164C451.441 521.653 387.381 522.398 361.569 522.398C319.873 522.398 287.36 520.909 264.031 517.93C240.701 514.456 223.824 509.492 213.4 503.039C203.472 496.09 197.019 487.403 194.041 476.979Z" fill="black"/>
</g>
    <g transform="translate(442.29, 519.56) scale(1 1) translate(0, 0) scale(0.8472222222222222 0.8505747126436781) "><path d="M243.243 359C218.946 359 210.277 359 188.606 353.383C168.276 350.336 152.161 342.467 140.26 329.775C128.359 316.575 122.409 296.013 122.409 268.09L123.153 181.791L58.0151 193.998C53.0566 195.014 47.8501 195.521 42.3957 195.521C26.0324 195.521 12.6444 183.844 2.2314 160.491C0.74384 157.444 0 154.906 0 152.875C0 147.798 2.47925 144.752 7.43781 143.737L26.0324 144.498C34.4619 144.498 83.4845 136.861 123.153 127.722L123.897 48.7386C123.897 36.554 121.17 25.8924 115.715 16.7539C114.228 14.7231 113.484 11.9308 113.484 8.37693C113.484 2.79231 117.203 0 124.641 0C129.599 0 136.789 1.52307 146.21 4.56923C155.632 7.61541 162.822 10.9154 167.78 14.4693C173.234 18.0231 175.962 23.1001 175.962 29.7001L175.218 117.06C264.968 96.245 299.088 87.6365 303.551 85.098C308.509 82.0518 312.724 80.5287 316.195 80.5287C319.17 80.5287 323.633 82.3057 329.583 85.8595C345.946 98.5519 354.128 109.721 354.128 119.367C354.128 126.983 347.682 132.314 334.789 135.36L174.474 170.368L173.73 257.428C173.73 268.598 174.97 277.482 177.449 284.082C183.895 297.79 184.706 307.712 229.829 307.712C275.944 307.712 306.439 304.412 321.314 297.812C329.744 293.751 335.439 297.416 340.398 278.123C345.356 258.323 349.323 240.046 352.298 223.292C355.769 206.031 361.719 197.4 370.149 197.4C382.05 197.4 388 218.977 388 262.131C388 279.9 387.759 281.312 385.28 297.051C383.297 312.789 377.346 325.228 367.429 334.366C348.587 352.136 316.195 359 243.243 359Z" fill="black"/>
</g>
  </g>
</svg>
