<?xml version='1.0' encoding='ASCII' standalone='yes'?>
<svg xmlns="http://www.w3.org/2000/svg" xmlns:xlink="http://www.w3.org/1999/xlink" version="1.1" width="1000.0px" viewBox="0 0 1000.0 1200.0" height="1200.0px">
  <g>
    <g transform="translate(203.0, 406.0) scale(1 1) "><path d="M91.7415 157.89C80.3247 157.89 70.8935 154.912 63.4478 148.956C56.4984 142.999 53.0238 135.801 53.0238 127.363C55.0093 113.464 56.0021 103.289 56.0021 96.8356C53.0238 62.0684 45.0889 41.4395 39.1324 29.03C35.1613 21.0879 33.1758 15.3796 33.1758 11.9049C33.1758 5.94833 37.6432 2.97006 46.5781 2.97006C52.5346 2.97006 67.4261 8.18204 91.2523 18.606L253.765 0.736328C282.555 0.736328 298.191 9.42299 300.673 26.7963C300.673 30.7673 299.929 33.9938 298.439 36.4757C296.95 38.4612 296.206 39.7022 296.206 40.1986L278.825 115.45C278.825 127.363 273.613 133.32 263.189 133.32C251.772 133.32 242.838 129.845 236.385 122.896C229.932 115.946 226.705 108.997 226.705 102.048V98.3247C229.684 87.4044 231.669 78.9659 232.662 73.0093L243.341 43.9214L95.7197 60.302L105.144 96.091L107.377 137.787C107.377 151.189 102.165 157.89 91.7415 157.89Z" fill="black"/>
<path d="M154.867 192.608C135.508 217.924 115.653 240.509 95.3011 260.364C74.9495 279.723 57.0798 294.863 41.692 305.783C26.8006 316.703 16.1285 322.164 9.67554 322.164C3.22259 322.164 -0.00390625 318.689 -0.00390625 311.74C-0.00390625 305.783 4.71171 298.089 14.1429 288.658C36.9764 264.832 59.8099 237.283 82.6434 206.011C105.477 174.242 124.588 143.218 139.975 112.939C140.968 109.961 141.961 106.486 142.954 102.515C143.946 98.0478 144.443 93.084 144.443 87.6238V82.4118C144.443 72.4842 148.91 67.5204 157.845 67.5204C164.298 67.5204 171.247 70.2505 178.693 75.7107C186.139 81.1709 192.592 87.1274 198.052 93.5804C204.009 100.033 206.987 105.742 206.987 110.705C206.987 114.18 201.527 124.356 190.606 141.233L515.239 121.874H522.685C535.591 121.874 545.518 125.845 552.468 133.787C559.913 141.233 563.636 147.686 563.636 153.146C563.636 156.124 563.14 159.103 562.147 162.081C561.154 164.563 560.658 167.541 560.658 171.016C557.183 240.013 552.964 297.841 548 344.501C543.533 391.161 533.569 471.885 528.109 500.675C523.145 528.969 517.933 550.81 512.473 566.198C507.509 581.586 503.29 592.01 499.815 597.47C496.837 603.426 494.603 606.901 493.114 607.894C481.201 620.8 469.536 627.253 458.119 627.253C451.666 627.253 442.235 624.522 429.825 619.062C417.912 614.098 405.255 607.646 391.852 599.703C378.45 591.761 365.544 583.323 353.135 574.388C340.725 565.95 330.301 557.759 321.863 549.817C313.424 541.875 309.205 535.174 309.205 529.714C309.205 523.757 312.68 520.779 319.629 520.779C326.082 520.779 335.265 523.757 347.178 529.714C371.997 541.627 406.744 553.54 451.418 565.453C452.411 565.453 452.907 565.453 452.907 565.453C453.9 563.468 456.63 554.533 461.097 538.649C466.061 519.786 471.273 493.478 476.733 459.724C482.194 425.97 491.909 344.749 495.88 302.06C500.348 258.875 503.078 215.442 504.071 171.76L154.867 192.608Z" fill="black"/>
</g>
    <g transform="translate(308.28, 630.1800000000001) scale(1 1) translate(0, 0) scale(0.8472222222222222 0.8505747126436781) "><path d="M279.08 169.876L184.743 177.044L159.194 275.959L267.288 270.224L279.08 169.876ZM47.1685 329H41.2724C28.6068 329 19.6536 325.894 14.4126 319.682C9.17171 312.992 5.45936 306.541 3.27563 300.329C1.09189 294.117 0 289.099 0 285.277C0 280.976 2.40212 278.826 7.20632 278.826C8.95331 278.826 10.7003 279.065 12.4473 279.542C17.6882 281.454 24.021 282.41 31.4457 282.41C33.6294 282.41 35.8132 282.41 37.9969 282.41C40.1806 281.932 42.3643 281.693 44.5481 281.693L108.095 278.109L133.644 179.911L94.3371 182.061H83.8551C74.2467 182.061 67.4772 180.627 63.5465 177.76C60.0525 174.415 56.3402 170.115 52.4095 164.858C49.3522 158.646 46.5134 151.956 43.8929 144.789C43.4562 143.355 43.2378 141.444 43.2378 139.054C43.2378 134.754 45.4215 132.603 49.789 132.603C51.0992 132.603 51.9727 132.842 52.4095 133.32C53.2829 133.32 54.1564 133.32 55.0299 133.32C62.4546 134.754 69.4425 135.471 75.9937 135.471C78.1774 135.471 80.5796 135.471 83.2 135.471C85.8205 134.993 88.4409 134.754 91.0614 134.754L146.091 131.887L161.159 63.0762L79.2693 68.8105C77.5224 68.8105 75.7753 69.0494 74.0283 69.5272C72.2813 69.5272 70.7528 69.5272 69.4426 69.5272C57.2137 69.5272 48.042 65.7044 41.9276 58.0588C36.2499 49.9354 31.8824 41.0951 28.8252 31.5381C28.3884 30.1046 28.1701 27.7153 28.1701 24.3703C28.1701 20.5475 30.5722 18.6361 35.3765 18.6361C37.5602 18.6361 39.3071 18.8751 40.6174 19.3529C48.0421 20.7865 55.2483 21.5032 62.2362 21.5032H71.4079L305.285 5.73417C309.653 5.25632 313.583 4.77848 317.077 4.30064C320.571 3.34495 323.628 2.38925 326.249 1.43353C328.433 0.955687 330.398 0.716758 332.145 0.716758C333.892 0.238914 335.202 0 336.076 0C340.006 0 344.811 1.91138 350.488 5.73417C356.166 9.55698 361.188 14.3355 365.556 20.0697C370.36 25.8039 372.762 31.2992 372.762 36.5556C372.762 45.1569 365.119 49.9354 349.833 50.891L211.603 60.2091L196.536 128.303L294.803 121.852C295.677 121.852 296.55 121.852 297.424 121.852C298.734 121.374 300.044 121.135 301.354 121.135C307.032 121.135 313.802 124.241 321.663 130.453C329.961 136.187 334.11 143.116 334.11 151.24C334.11 155.062 333.455 158.168 332.145 160.558C331.271 162.469 330.616 164.381 330.18 166.292L315.767 268.074L345.247 265.924C349.615 265.446 353.982 264.968 358.35 264.49C362.717 263.534 367.303 262.579 372.107 261.623C373.854 261.145 375.601 260.906 377.348 260.906C379.095 260.428 380.624 260.19 381.934 260.19C387.612 260.19 392.852 262.579 397.657 267.357C402.898 271.658 407.265 276.675 410.759 282.41C414.253 287.666 416 292.206 416 296.028C416 305.107 409.012 310.125 395.036 311.081L47.1685 329Z" fill="black"/>
</g>
  </g>
</svg>
