<?xml version='1.0' encoding='ASCII' standalone='yes'?>
<svg xmlns="http://www.w3.org/2000/svg" xmlns:xlink="http://www.w3.org/1999/xlink" version="1.1" width="1000.0px" viewBox="0 0 1000.0 1200.0" height="1200.0px">
  <g>
    <g transform="translate(230.0, 545.0) scale(1 1) "><path d="M12.6538 64.4745C12.6538 55.0433 11.9092 47.1012 10.4201 40.6482C8.93094 33.6989 5.95266 25.7568 1.48524 16.822C0.492482 13.3473 -0.00390625 11.1136 -0.00390625 10.1208C-0.00390625 3.66788 4.71172 0.441406 14.1429 0.441406C18.6104 0.441406 25.3115 1.43417 34.2464 3.41969C43.1812 5.40522 51.8679 8.63169 60.3063 13.0991C68.7448 17.0702 72.964 23.2749 72.964 31.7134L71.9423 280.244C71.9423 296.624 73.1833 310.275 75.6652 321.195C78.6435 331.619 85.0964 340.306 95.024 347.255C105.448 353.708 122.325 358.672 145.655 362.147C168.985 365.125 201.498 366.614 243.194 366.614C269.005 366.614 295.065 365.87 321.374 364.38C348.178 362.395 373.494 359.665 397.32 356.19C414.197 353.212 426.854 350.234 435.293 347.255C443.731 343.781 449.688 339.065 453.163 333.108C457.134 326.655 459.147 323.218 463.647 312.218C467.618 294.844 468.543 294.061 471.521 277.184C474.5 260.307 476.733 243.43 478.223 226.553C481.201 200.741 487.157 187.835 496.092 187.835C503.042 187.835 507.757 193.296 510.239 204.216C512.721 214.64 514.458 226.305 515.451 239.211C516.444 252.117 516.94 264.03 516.94 274.95C517.437 285.871 517.685 292.82 517.685 295.798C517.685 328.559 518.611 331.859 513.647 351.218C509.18 370.577 497.092 384.732 482.201 394.163C467.806 404.091 445.717 411.04 415.934 415.011C387.64 418.486 358.602 421.216 328.819 423.201C299.036 425.187 270.246 426.18 242.449 426.18C199.264 426.18 163.028 424.691 133.742 421.712C104.455 418.734 80.629 412.529 62.2629 403.098C44.3932 394.163 31.4873 381.009 23.5452 363.636C15.6031 345.766 11.6321 322.436 11.6321 293.646L12.6538 64.4745Z" fill="black"/>
</g>
    <g transform="translate(355.83000000000004, 546.69) scale(1 1) translate(0, 0) scale(0.8472222222222222 0.8505747126436781) "><path d="M330.492 38.4277L245.518 42.8831L244.497 130.552C244.497 139.092 245.113 144.29 246.345 146.146C247.577 148.002 250.657 149.302 255.585 150.044H261.128C268.52 150.044 268.286 149.302 274.035 147.817C279.784 145.96 283.89 144.661 286.354 143.918C287.176 143.547 287.997 143.361 288.818 143.361C290.05 142.99 291.282 142.804 292.514 142.804C295.799 142.804 299.7 144.104 304.217 146.703C308.734 148.931 312.84 152.086 316.536 156.17C318.589 158.769 320.232 161.183 321.464 163.411L330.492 38.4277ZM67.7551 298.231L68.371 321.065V323.849C68.371 334.616 63.854 340 54.82 340C50.7136 340 45.786 338.701 40.0371 336.102C32.235 333.131 26.6914 329.604 23.4063 325.52C20.1212 321.807 18.4787 317.723 18.4787 313.268C18.4787 312.154 18.4787 311.226 18.4787 310.483C18.8893 309.741 19.0946 309.184 19.0946 308.812C20.3265 301.015 20.9425 292.476 20.9425 283.194V272.055L12.9351 52.9077C12.5244 47.3385 11.4978 41.5836 9.85529 35.6431C8.21274 29.3313 6.15955 23.9477 3.69573 19.4923C1.23192 14.2944 0 10.7672 0 8.91076C0 3.71281 3.49041 1.11382 10.4712 1.11382C17.8627 1.11382 32.8509 5.56922 55.436 14.48L343.427 0.556921C344.248 0.556921 345.069 0.556921 345.891 0.556921C347.123 0.185644 348.354 0 349.586 0C354.925 0 361.495 2.59897 369.297 7.79692C377.099 12.6236 381 18.1928 381 24.5046C381 27.4749 380.384 30.0738 379.152 32.3015C378.331 34.158 377.715 35.8287 377.304 37.3138L357.594 253.677C369.092 266.672 374.84 275.768 374.84 280.966C374.84 285.793 372.377 288.577 367.449 289.32C362.932 289.691 357.594 290.063 351.434 290.434L67.7551 298.231ZM320.848 173.992C318.795 176.591 315.509 178.819 310.992 180.675C303.601 183.645 294.978 185.687 285.122 186.801C275.267 187.915 266.028 188.472 257.404 188.472C249.014 188.472 236.695 187.358 227.251 185.131C218.217 182.532 211.646 177.705 207.54 170.651C203.434 163.225 201.38 152.643 201.38 138.906V135.564L202.401 44.5538L171.659 46.7815C167.659 88.0109 162.512 89.3323 153.585 124.393C144.333 160.736 120.94 183.254 88.9102 207.016C80.2868 212.957 73.7166 215.927 69.1996 215.927C63.8613 215.927 61.1922 213.514 61.1922 208.687C61.1922 204.603 64.0666 199.219 69.8156 192.536C87.0623 173.601 100.596 160.272 106.773 139.43C115.175 119.973 116.147 113.488 122.383 89.8031C124.436 66.041 125.463 73.6995 125.463 48.4523L57.8998 51.7938L66.5232 259.803L313.861 252.563L320.848 173.992Z" fill="black"/>
</g>
  </g>
</svg>
