<?xml version='1.0' encoding='ASCII' standalone='yes'?>
<svg xmlns="http://www.w3.org/2000/svg" xmlns:xlink="http://www.w3.org/1999/xlink" version="1.1" width="1000.0px" viewBox="0 0 1000.0 1200.0" height="1200.0px">
  <g>
    <g transform="translate(230.0, 545.0) scale(1 1) "><path d="M12.6538 64.4745C12.6538 55.0433 11.9092 47.1012 10.4201 40.6482C8.93094 33.6989 5.95266 25.7568 1.48524 16.822C0.492482 13.3473 -0.00390625 11.1136 -0.00390625 10.1208C-0.00390625 3.66788 4.71172 0.441406 14.1429 0.441406C18.6104 0.441406 25.3115 1.43417 34.2464 3.41969C43.1812 5.40522 51.8679 8.63169 60.3063 13.0991C68.7448 17.0702 72.964 23.2749 72.964 31.7134L71.9423 280.244C71.9423 296.624 73.1833 310.275 75.6652 321.195C78.6435 331.619 85.0964 340.306 95.024 347.255C105.448 353.708 122.325 358.672 145.655 362.147C168.985 365.125 201.498 366.614 243.194 366.614C269.005 366.614 295.065 365.87 321.374 364.38C348.178 362.395 373.494 359.665 397.32 356.19C414.197 353.212 426.854 350.234 435.293 347.255C443.731 343.781 449.688 339.065 453.163 333.108C457.134 326.655 459.147 323.218 463.647 312.218C467.618 294.844 468.543 294.061 471.521 277.184C474.5 260.307 476.733 243.43 478.223 226.553C481.201 200.741 487.157 187.835 496.092 187.835C503.042 187.835 507.757 193.296 510.239 204.216C512.721 214.64 514.458 226.305 515.451 239.211C516.444 252.117 516.94 264.03 516.94 274.95C517.437 285.871 517.685 292.82 517.685 295.798C517.685 328.559 518.611 331.859 513.647 351.218C509.18 370.577 497.092 384.732 482.201 394.163C467.806 404.091 445.717 411.04 415.934 415.011C387.64 418.486 358.602 421.216 328.819 423.201C299.036 425.187 270.246 426.18 242.449 426.18C199.264 426.18 163.028 424.691 133.742 421.712C104.455 418.734 80.629 412.529 62.2629 403.098C44.3932 394.163 31.4873 381.009 23.5452 363.636C15.6031 345.766 11.6321 322.436 11.6321 293.646L12.6538 64.4745Z" fill="black"/>
</g>
    <g transform="translate(342.28, 538.1800000000001) scale(1 1) translate(0, 0) scale(0.8472222222222222 0.8505747126436781) "><path d="M279.08 169.876L184.743 177.044L159.194 275.959L267.288 270.224L279.08 169.876ZM47.1685 329H41.2724C28.6068 329 19.6536 325.894 14.4126 319.682C9.17171 312.992 5.45936 306.541 3.27563 300.329C1.09189 294.117 0 289.099 0 285.277C0 280.976 2.40212 278.826 7.20632 278.826C8.95331 278.826 10.7003 279.065 12.4473 279.542C17.6882 281.454 24.021 282.41 31.4457 282.41C33.6294 282.41 35.8132 282.41 37.9969 282.41C40.1806 281.932 42.3643 281.693 44.5481 281.693L108.095 278.109L133.644 179.911L94.3371 182.061H83.8551C74.2467 182.061 67.4772 180.627 63.5465 177.76C60.0525 174.415 56.3402 170.115 52.4095 164.858C49.3522 158.646 46.5134 151.956 43.8929 144.789C43.4562 143.355 43.2378 141.444 43.2378 139.054C43.2378 134.754 45.4215 132.603 49.789 132.603C51.0992 132.603 51.9727 132.842 52.4095 133.32C53.2829 133.32 54.1564 133.32 55.0299 133.32C62.4546 134.754 69.4425 135.471 75.9937 135.471C78.1774 135.471 80.5796 135.471 83.2 135.471C85.8205 134.993 88.4409 134.754 91.0614 134.754L146.091 131.887L161.159 63.0762L79.2693 68.8105C77.5224 68.8105 75.7753 69.0494 74.0283 69.5272C72.2813 69.5272 70.7528 69.5272 69.4426 69.5272C57.2137 69.5272 48.042 65.7044 41.9276 58.0588C36.2499 49.9354 31.8824 41.0951 28.8252 31.5381C28.3884 30.1046 28.1701 27.7153 28.1701 24.3703C28.1701 20.5475 30.5722 18.6361 35.3765 18.6361C37.5602 18.6361 39.3071 18.8751 40.6174 19.3529C48.0421 20.7865 55.2483 21.5032 62.2362 21.5032H71.4079L305.285 5.73417C309.653 5.25632 313.583 4.77848 317.077 4.30064C320.571 3.34495 323.628 2.38925 326.249 1.43353C328.433 0.955687 330.398 0.716758 332.145 0.716758C333.892 0.238914 335.202 0 336.076 0C340.006 0 344.811 1.91138 350.488 5.73417C356.166 9.55698 361.188 14.3355 365.556 20.0697C370.36 25.8039 372.762 31.2992 372.762 36.5556C372.762 45.1569 365.119 49.9354 349.833 50.891L211.603 60.2091L196.536 128.303L294.803 121.852C295.677 121.852 296.55 121.852 297.424 121.852C298.734 121.374 300.044 121.135 301.354 121.135C307.032 121.135 313.802 124.241 321.663 130.453C329.961 136.187 334.11 143.116 334.11 151.24C334.11 155.062 333.455 158.168 332.145 160.558C331.271 162.469 330.616 164.381 330.18 166.292L315.767 268.074L345.247 265.924C349.615 265.446 353.982 264.968 358.35 264.49C362.717 263.534 367.303 262.579 372.107 261.623C373.854 261.145 375.601 260.906 377.348 260.906C379.095 260.428 380.624 260.19 381.934 260.19C387.612 260.19 392.852 262.579 397.657 267.357C402.898 271.658 407.265 276.675 410.759 282.41C414.253 287.666 416 292.206 416 296.028C416 305.107 409.012 310.125 395.036 311.081L47.1685 329Z" fill="black"/>
</g>
  </g>
</svg>
