<?xml version='1.0' encoding='ASCII' standalone='yes'?>
<svg xmlns="http://www.w3.org/2000/svg" xmlns:xlink="http://www.w3.org/1999/xlink" version="1.1" width="1000.0px" viewBox="0 0 1000.0 1200.0" height="1200.0px">
  <g>
    <g transform="translate(138.0, 431.0) scale(1 1) "><path d="M194.041 476.979C191.559 466.059 190.318 452.408 190.318 436.028L190.134 322.208L285.42 307.714C297.951 305.307 304.216 299.772 304.216 291.107C304.216 284.85 301.084 279.314 294.818 274.501C288.553 269.206 282.046 265.115 275.299 262.227C268.551 258.857 263.25 257.172 259.394 257.172C256.02 257.172 252.887 258.135 249.996 260.06C245.176 262.467 231.508 265.963 231.508 265.963L190.134 273.111L190.857 106.313C202.906 101.018 216.16 94.52 230.619 86.8184C245.56 79.1168 258.573 71.656 269.658 64.4358C281.225 56.7342 287.009 50.7173 287.009 46.3852C287.009 41.5717 284.84 35.7955 280.502 29.0567C276.164 21.8364 270.622 15.3383 263.874 9.56207C257.609 3.30454 251.584 0.175781 245.801 0.175781C239.535 0.175781 235.198 3.30454 232.788 9.56207C229.896 18.7077 223.872 26.6499 214.714 33.3888C193.026 49.7546 166.759 66.1204 135.913 82.4863C105.55 98.3707 75.4271 112.089 45.5455 123.641C32.0505 128.936 25.303 134.953 25.303 141.692C25.303 148.431 30.8456 151.8 41.9307 151.8C48.1963 151.8 56.1486 150.838 65.7879 148.912C75.9091 146.506 86.2713 143.858 96.8744 140.97C107.96 137.601 117.599 134.713 125.792 132.306L138.082 127.974L135.913 281.775L50.606 295.494C41.9307 296.938 32.5324 297.66 22.4112 297.66H10.1212C3.3737 297.66 0 300.548 0 306.324C0 308.249 0.963913 311.137 2.89176 314.988C3.37373 315.951 5.06057 318.839 7.95235 323.653C11.3261 328.466 15.9047 333.28 21.6883 338.093C27.4718 342.906 33.9783 345.313 41.2077 345.313C45.0635 345.313 49.1601 345.072 53.4978 344.591C58.3174 343.628 63.619 342.666 69.4026 341.703L135.19 330.873L134.008 449.43C134.008 478.22 137.979 501.55 145.921 519.42C153.863 536.793 162.769 549.947 180.639 558.882C199.005 568.313 222.831 574.518 252.117 577.496C281.404 580.474 317.64 581.964 360.825 581.964C388.622 581.964 455.412 580.971 485.195 578.985C514.978 577 544.016 574.27 572.31 570.795C602.093 566.824 624.182 559.875 638.577 549.947C653.468 540.516 665.556 526.36 670.023 507.001C674.987 487.643 674.061 484.343 674.061 451.582C674.061 448.604 673.812 441.654 673.316 430.734C673.316 419.814 672.82 407.9 671.827 394.995C670.834 382.089 669.097 370.424 666.615 360C664.133 349.079 659.417 343.619 652.468 343.619C643.533 343.619 637.577 356.525 634.598 382.337C633.109 399.214 630.876 416.091 627.897 432.968C624.919 449.845 623.994 450.628 620.023 468.001C615.523 479.001 613.509 482.439 609.538 488.892C606.064 494.849 600.107 499.564 591.669 503.039C583.23 506.017 570.573 508.996 553.696 511.974C529.869 515.449 504.554 518.179 477.749 520.164C451.441 521.653 387.381 522.398 361.569 522.398C319.873 522.398 287.36 520.909 264.031 517.93C240.701 514.456 223.824 509.492 213.4 503.039C203.472 496.09 197.019 487.403 194.041 476.979Z" fill="black"/>
</g>
    <g transform="translate(443.99, 562.09) scale(1 1) translate(0, 0) scale(0.8472222222222222 0.8505747126436781) "><path d="M67.7558 286.66C64.2812 286.66 60.8065 286.908 57.3319 287.404C53.8572 287.404 50.6307 287.404 47.6525 287.404C34.2502 287.404 24.0745 283.433 17.1251 275.491C10.6722 267.549 5.95653 259.855 2.97824 252.409L0 240.496C0 234.043 2.97817 230.817 8.93473 230.817C10.4239 230.817 11.6649 231.065 12.6577 231.562C14.1468 231.562 15.636 231.81 17.1251 232.306C27.5491 234.788 37.7248 236.029 47.6525 236.029H54.3536L300.062 224.86C306.019 224.364 311.479 223.868 316.443 223.371C321.406 222.378 326.618 220.889 332.078 218.904C334.064 218.407 336.546 218.159 339.524 218.159C344.488 218.159 350.445 220.393 357.394 224.86C364.84 229.328 371.293 234.788 376.753 241.241C382.709 247.694 385.688 253.402 385.688 258.366C385.688 263.826 383.206 267.549 378.242 269.535C373.278 271.52 368.066 272.761 362.606 273.257L67.7558 286.66ZM134.767 170.507C131.293 170.507 127.818 170.755 124.343 171.251C120.869 171.251 117.642 171.251 114.664 171.251C101.261 171.251 91.0858 167.528 84.1364 160.083C77.6835 152.637 73.2161 145.191 70.7342 137.746C68.2523 129.804 67.0113 125.336 67.0113 124.343C67.0113 118.387 69.9896 115.408 75.9462 115.408C77.4354 115.408 78.6762 115.657 79.669 116.153C81.1581 116.153 82.6473 116.401 84.1364 116.898C88.6039 117.89 93.3195 118.883 98.2833 119.876C103.247 120.372 108.459 120.62 113.919 120.62H120.62L222.627 114.664C229.08 114.168 234.788 113.671 239.752 113.175C244.716 112.182 249.679 110.693 254.643 108.707C256.629 108.211 259.111 107.963 262.089 107.963C266.556 107.963 272.265 110.445 279.214 115.408C286.163 119.876 292.616 125.088 298.573 131.044C305.026 137.001 308.252 142.709 308.252 148.17C308.252 154.126 305.77 157.849 300.806 159.338C295.843 160.331 290.383 161.075 284.426 161.572L134.767 170.507ZM108.707 66.2668C104.736 66.7632 101.013 67.0114 97.5388 67.0114C94.5605 67.0114 91.5822 67.0114 88.6039 67.0114C77.6835 67.0114 70.2378 65.274 66.2668 61.7994C62.2957 58.3247 56.8355 52.8645 49.8862 45.4188C43.4332 37.9731 40.2067 29.5346 40.2067 20.1034C40.2067 14.1468 43.1851 11.1686 49.1417 11.1686C50.6308 11.1686 51.8717 11.4168 52.8644 11.9132C54.3536 11.9132 55.8427 12.1613 57.3319 12.6577C61.7993 13.6504 66.515 14.6432 71.4788 15.636C76.4426 16.1324 81.6545 16.3805 87.1147 16.3805H93.8159L250.92 6.70114C257.373 6.20475 263.082 5.70835 268.045 5.21197C273.009 4.21921 277.973 2.73009 282.937 0.744561C284.922 0.248187 287.404 0 290.383 0C294.85 0 300.558 2.4819 307.508 7.4457C314.457 11.9131 320.91 17.1251 326.867 23.0817C333.319 29.0383 336.546 34.7466 336.546 40.2068C336.546 46.1634 334.064 49.8862 329.1 51.3754C324.136 52.3682 318.676 53.1127 312.72 53.6091L108.707 66.2668Z" fill="black"/>
</g>
  </g>
</svg>
