<?xml version='1.0' encoding='ASCII' standalone='yes'?>
<svg xmlns="http://www.w3.org/2000/svg" xmlns:xlink="http://www.w3.org/1999/xlink" version="1.1" width="1000.0px" viewBox="0 0 1000.0 1200.0" height="1200.0px">
  <g>
    <g transform="translate(230.0, 545.0) scale(1 1) "><path d="M12.6538 64.4745C12.6538 55.0433 11.9092 47.1012 10.4201 40.6482C8.93094 33.6989 5.95266 25.7568 1.48524 16.822C0.492482 13.3473 -0.00390625 11.1136 -0.00390625 10.1208C-0.00390625 3.66788 4.71172 0.441406 14.1429 0.441406C18.6104 0.441406 25.3115 1.43417 34.2464 3.41969C43.1812 5.40522 51.8679 8.63169 60.3063 13.0991C68.7448 17.0702 72.964 23.2749 72.964 31.7134L71.9423 280.244C71.9423 296.624 73.1833 310.275 75.6652 321.195C78.6435 331.619 85.0964 340.306 95.024 347.255C105.448 353.708 122.325 358.672 145.655 362.147C168.985 365.125 201.498 366.614 243.194 366.614C269.005 366.614 295.065 365.87 321.374 364.38C348.178 362.395 373.494 359.665 397.32 356.19C414.197 353.212 426.854 350.234 435.293 347.255C443.731 343.781 449.688 339.065 453.163 333.108C457.134 326.655 459.147 323.218 463.647 312.218C467.618 294.844 468.543 294.061 471.521 277.184C474.5 260.307 476.733 243.43 478.223 226.553C481.201 200.741 487.157 187.835 496.092 187.835C503.042 187.835 507.757 193.296 510.239 204.216C512.721 214.64 514.458 226.305 515.451 239.211C516.444 252.117 516.94 264.03 516.94 274.95C517.437 285.871 517.685 292.82 517.685 295.798C517.685 328.559 518.611 331.859 513.647 351.218C509.18 370.577 497.092 384.732 482.201 394.163C467.806 404.091 445.717 411.04 415.934 415.011C387.64 418.486 358.602 421.216 328.819 423.201C299.036 425.187 270.246 426.18 242.449 426.18C199.264 426.18 163.028 424.691 133.742 421.712C104.455 418.734 80.629 412.529 62.2629 403.098C44.3932 394.163 31.4873 381.009 23.5452 363.636C15.6031 345.766 11.6321 322.436 11.6321 293.646L12.6538 64.4745Z" fill="black"/>
</g>
    <g transform="translate(343.97, 636.85) scale(1 1) translate(0, 0) scale(0.8472222222222222 0.8505747126436781) "><path d="M71.4788 86.8376C67.0114 87.334 63.0403 87.5822 59.5657 87.5822C56.091 87.5822 53.1127 87.5822 50.6308 87.5822C39.7104 87.5822 31.272 85.5967 25.3154 81.6256C20.848 77.6546 16.6287 72.6908 12.6577 66.7342C9.18304 60.2813 6.20476 54.0765 3.72285 48.1199C1.24095 41.667 0 37.1996 0 34.7177C0 28.7611 2.73009 25.7828 8.19028 25.7828C9.67942 25.7828 12.1613 26.2792 15.636 27.2719C24.0745 29.7538 33.0093 30.9948 42.4405 30.9948C44.9224 30.9948 47.1562 30.9948 49.1417 30.9948C51.6236 30.4984 53.8573 30.2503 55.8428 30.2503L332.744 7.4457C337.211 6.94933 341.927 6.20474 346.89 5.21197C351.854 4.21921 357.066 2.73004 362.526 0.744517C364.016 0.248143 366.001 0 368.483 0C373.447 0 379.652 2.23367 387.097 6.7011C394.543 11.1685 401.244 16.8769 407.201 23.8262C413.654 30.7756 416.88 37.4767 416.88 43.9297C416.88 49.3899 414.646 53.6091 410.179 56.5874C406.208 59.0693 401.244 60.5584 395.288 61.0548L71.4788 86.8376Z" fill="black"/>
</g>
  </g>
</svg>
