<?xml version='1.0' encoding='ASCII' standalone='yes'?>
<svg xmlns="http://www.w3.org/2000/svg" xmlns:xlink="http://www.w3.org/1999/xlink" version="1.1" width="1000.0px" viewBox="0 0 1000.0 1200.0" height="1200.0px">
  <g>
    <g transform="translate(107.0, 384.0) scale(1 1) "><path d="M237.748 160.363L582.761 139.829L595.274 57.6965L243.11 79.1225C241.919 105.31 240.131 132.39 237.748 160.363ZM12.5056 591.56C4.16334 591.56 -0.0078125 587.394 -0.0078125 579.062C-0.0078125 571.92 4.46128 564.778 13.3994 557.636C126.616 448.125 183.225 290.109 183.225 83.5862C183.225 61.5651 179.352 41.0318 171.605 21.9865L170.711 14.8445C170.711 7.10738 176.372 3.23882 187.694 3.23882C196.036 3.23882 214.508 10.6784 243.11 25.5575L614.938 0.560547C627.452 0.560547 638.773 4.7267 648.903 13.059C659.629 20.7962 664.992 27.6406 664.992 33.5923C664.992 39.5439 663.8 44.0077 661.417 46.9835C659.629 49.9593 652.777 81.5031 640.859 141.615C655.756 154.709 663.204 164.826 663.204 171.968C663.204 180.301 660.225 185.657 654.266 188.038C648.903 190.419 510.66 199.048 239.535 213.928C231.193 323.438 195.738 415.689 133.171 490.68C99.2059 532.937 67.3264 562.993 37.5325 580.848C26.2108 587.99 17.8685 591.56 12.5056 591.56Z" fill="black"/>
<path d="M318.249 550.296C318.249 566.677 319.49 580.327 321.972 591.248C324.95 601.672 331.403 610.358 341.331 617.308C351.755 623.76 374.632 628.724 397.962 632.199C421.292 635.177 453.805 636.666 495.501 636.666C521.313 636.666 547.373 635.922 573.681 634.433C600.486 632.447 625.801 629.717 649.627 626.242C666.504 623.264 679.161 620.286 687.6 617.308C696.038 613.833 701.995 609.117 705.47 603.161C709.441 596.708 711.455 593.27 715.955 582.27C719.926 564.897 720.851 564.113 723.829 547.236C726.807 530.359 729.04 513.482 730.53 496.605C733.508 470.794 739.465 457.888 748.4 457.888C755.349 457.888 760.064 463.348 762.546 474.268C765.028 484.692 766.766 496.357 767.759 509.263C768.751 522.169 769.247 534.082 769.247 545.003C769.744 555.923 769.992 562.872 769.992 565.851C769.992 598.612 770.919 601.911 765.955 621.27C761.487 640.629 749.4 654.784 734.508 664.215C720.113 674.143 698.024 681.092 668.242 685.063C639.948 688.538 610.909 691.268 581.126 693.254C551.343 695.239 522.553 696.232 494.756 696.232C451.571 696.232 415.335 694.743 386.049 691.765C356.762 688.786 339.936 682.582 321.57 673.15C303.7 664.215 290.794 651.061 282.852 633.688C274.91 615.818 270.939 592.489 270.939 563.698L270.693 532.441L246.262 538.299C241.301 539.214 236.753 540.128 232.619 541.042C228.898 541.499 225.384 541.727 222.077 541.727C215.875 541.727 210.294 539.442 205.333 534.872C200.372 530.302 196.445 525.731 193.551 521.161C191.07 516.591 189.623 513.848 189.21 512.934C187.556 509.278 186.729 506.536 186.729 504.708C186.729 499.223 189.623 496.481 195.411 496.481H205.953C214.635 496.481 222.697 495.796 230.138 494.424L271.314 485.824L273.174 406.163L269.729 407.056C268.229 407.609 260.729 409.583 256.827 410.76C247.731 413.502 238.843 416.016 230.161 418.301C221.893 420.129 215.071 421.043 209.697 421.043C200.188 421.043 195.434 417.844 195.434 411.445C195.434 405.047 201.222 399.334 212.797 394.307C238.429 383.338 264.268 370.313 271.314 362.974C281.229 356.724 305.729 338.472 314.908 329.631C322.763 323.232 327.93 315.691 330.411 307.008C332.478 301.066 336.199 298.096 341.573 298.096C346.534 298.096 351.702 301.066 357.077 307.008C362.864 312.492 367.619 318.662 371.34 325.518C375.06 331.916 376.921 337.4 376.921 341.971C376.921 346.084 371.96 351.797 362.038 359.11C352.529 365.965 337.729 375.124 328.551 380.361C324.729 382.542 322.729 383.826 318.443 385.597L317.823 477.597L331.333 473.796C336.294 472.881 340.635 471.739 344.356 470.368C348.49 468.997 352.624 467.168 356.758 464.883C359.239 463.055 361.926 462.141 364.82 462.141C368.127 462.141 372.675 463.741 378.463 466.94C384.251 469.682 389.832 473.567 395.206 478.594C400.581 483.165 403.268 488.421 403.268 494.362C403.268 502.588 397.894 507.844 387.145 510.129L317.823 524.215L318.249 550.296Z" fill="black"/>
</g>
    <g transform="translate(499.83, 685.69) scale(1 1) translate(0, 0) scale(0.8472222222222222 0.8505747126436781) "><path d="M330.492 38.4277L245.518 42.8831L244.497 130.552C244.497 139.092 245.113 144.29 246.345 146.146C247.577 148.002 250.657 149.302 255.585 150.044H261.128C268.52 150.044 268.286 149.302 274.035 147.817C279.784 145.96 283.89 144.661 286.354 143.918C287.176 143.547 287.997 143.361 288.818 143.361C290.05 142.99 291.282 142.804 292.514 142.804C295.799 142.804 299.7 144.104 304.217 146.703C308.734 148.931 312.84 152.086 316.536 156.17C318.589 158.769 320.232 161.183 321.464 163.411L330.492 38.4277ZM67.7551 298.231L68.371 321.065V323.849C68.371 334.616 63.854 340 54.82 340C50.7136 340 45.786 338.701 40.0371 336.102C32.235 333.131 26.6914 329.604 23.4063 325.52C20.1212 321.807 18.4787 317.723 18.4787 313.268C18.4787 312.154 18.4787 311.226 18.4787 310.483C18.8893 309.741 19.0946 309.184 19.0946 308.812C20.3265 301.015 20.9425 292.476 20.9425 283.194V272.055L12.9351 52.9077C12.5244 47.3385 11.4978 41.5836 9.85529 35.6431C8.21274 29.3313 6.15955 23.9477 3.69573 19.4923C1.23192 14.2944 0 10.7672 0 8.91076C0 3.71281 3.49041 1.11382 10.4712 1.11382C17.8627 1.11382 32.8509 5.56922 55.436 14.48L343.427 0.556921C344.248 0.556921 345.069 0.556921 345.891 0.556921C347.123 0.185644 348.354 0 349.586 0C354.925 0 361.495 2.59897 369.297 7.79692C377.099 12.6236 381 18.1928 381 24.5046C381 27.4749 380.384 30.0738 379.152 32.3015C378.331 34.158 377.715 35.8287 377.304 37.3138L357.594 253.677C369.092 266.672 374.84 275.768 374.84 280.966C374.84 285.793 372.377 288.577 367.449 289.32C362.932 289.691 357.594 290.063 351.434 290.434L67.7551 298.231ZM320.848 173.992C318.795 176.591 315.509 178.819 310.992 180.675C303.601 183.645 294.978 185.687 285.122 186.801C275.267 187.915 266.028 188.472 257.404 188.472C249.014 188.472 236.695 187.358 227.251 185.131C218.217 182.532 211.646 177.705 207.54 170.651C203.434 163.225 201.38 152.643 201.38 138.906V135.564L202.401 44.5538L171.659 46.7815C167.659 88.0109 162.512 89.3323 153.585 124.393C144.333 160.736 120.94 183.254 88.9102 207.016C80.2868 212.957 73.7166 215.927 69.1996 215.927C63.8613 215.927 61.1922 213.514 61.1922 208.687C61.1922 204.603 64.0666 199.219 69.8156 192.536C87.0623 173.601 100.596 160.272 106.773 139.43C115.175 119.973 116.147 113.488 122.383 89.8031C124.436 66.041 125.463 73.6995 125.463 48.4523L57.8998 51.7938L66.5232 259.803L313.861 252.563L320.848 173.992Z" fill="black"/>
</g>
  </g>
</svg>
