<?xml version='1.0' encoding='ASCII' standalone='yes'?>
<svg xmlns="http://www.w3.org/2000/svg" xmlns:xlink="http://www.w3.org/1999/xlink" version="1.1" width="1000.0px" viewBox="0 0 1000.0 1200.0" height="1200.0px">
  <g>
    <g transform="translate(107.0, 384.0) scale(1 1) "><path d="M237.748 160.363L582.761 139.829L595.274 57.6965L243.11 79.1225C241.919 105.31 240.131 132.39 237.748 160.363ZM12.5056 591.56C4.16334 591.56 -0.0078125 587.394 -0.0078125 579.062C-0.0078125 571.92 4.46128 564.778 13.3994 557.636C126.616 448.125 183.225 290.109 183.225 83.5862C183.225 61.5651 179.352 41.0318 171.605 21.9865L170.711 14.8445C170.711 7.10738 176.372 3.23882 187.694 3.23882C196.036 3.23882 214.508 10.6784 243.11 25.5575L614.938 0.560547C627.452 0.560547 638.773 4.7267 648.903 13.059C659.629 20.7962 664.992 27.6406 664.992 33.5923C664.992 39.5439 663.8 44.0077 661.417 46.9835C659.629 49.9593 652.777 81.5031 640.859 141.615C655.756 154.709 663.204 164.826 663.204 171.968C663.204 180.301 660.225 185.657 654.266 188.038C648.903 190.419 510.66 199.048 239.535 213.928C231.193 323.438 195.738 415.689 133.171 490.68C99.2059 532.937 67.3264 562.993 37.5325 580.848C26.2108 587.99 17.8685 591.56 12.5056 591.56Z" fill="black"/>
<path d="M318.249 550.296C318.249 566.677 319.49 580.327 321.972 591.248C324.95 601.672 331.403 610.358 341.331 617.308C351.755 623.76 374.632 628.724 397.962 632.199C421.292 635.177 453.805 636.666 495.501 636.666C521.313 636.666 547.373 635.922 573.681 634.433C600.486 632.447 625.801 629.717 649.627 626.242C666.504 623.264 679.161 620.286 687.6 617.308C696.038 613.833 701.995 609.117 705.47 603.161C709.441 596.708 711.455 593.27 715.955 582.27C719.926 564.897 720.851 564.113 723.829 547.236C726.807 530.359 729.04 513.482 730.53 496.605C733.508 470.794 739.465 457.888 748.4 457.888C755.349 457.888 760.064 463.348 762.546 474.268C765.028 484.692 766.766 496.357 767.759 509.263C768.751 522.169 769.247 534.082 769.247 545.003C769.744 555.923 769.992 562.872 769.992 565.851C769.992 598.612 770.919 601.911 765.955 621.27C761.487 640.629 749.4 654.784 734.508 664.215C720.113 674.143 698.024 681.092 668.242 685.063C639.948 688.538 610.909 691.268 581.126 693.254C551.343 695.239 522.553 696.232 494.756 696.232C451.571 696.232 415.335 694.743 386.049 691.765C356.762 688.786 339.936 682.582 321.57 673.15C303.7 664.215 290.794 651.061 282.852 633.688C274.91 615.818 270.939 592.489 270.939 563.698L270.693 532.441L246.262 538.299C241.301 539.214 236.753 540.128 232.619 541.042C228.898 541.499 225.384 541.727 222.077 541.727C215.875 541.727 210.294 539.442 205.333 534.872C200.372 530.302 196.445 525.731 193.551 521.161C191.07 516.591 189.623 513.848 189.21 512.934C187.556 509.278 186.729 506.536 186.729 504.708C186.729 499.223 189.623 496.481 195.411 496.481H205.953C214.635 496.481 222.697 495.796 230.138 494.424L271.314 485.824L273.174 406.163L269.729 407.056C268.229 407.609 260.729 409.583 256.827 410.76C247.731 413.502 238.843 416.016 230.161 418.301C221.893 420.129 215.071 421.043 209.697 421.043C200.188 421.043 195.434 417.844 195.434 411.445C195.434 405.047 201.222 399.334 212.797 394.307C238.429 383.338 264.268 370.313 271.314 362.974C281.229 356.724 305.729 338.472 314.908 329.631C322.763 323.232 327.93 315.691 330.411 307.008C332.478 301.066 336.199 298.096 341.573 298.096C346.534 298.096 351.702 301.066 357.077 307.008C362.864 312.492 367.619 318.662 371.34 325.518C375.06 331.916 376.921 337.4 376.921 341.971C376.921 346.084 371.96 351.797 362.038 359.11C352.529 365.965 337.729 375.124 328.551 380.361C324.729 382.542 322.729 383.826 318.443 385.597L317.823 477.597L331.333 473.796C336.294 472.881 340.635 471.739 344.356 470.368C348.49 468.997 352.624 467.168 356.758 464.883C359.239 463.055 361.926 462.141 364.82 462.141C368.127 462.141 372.675 463.741 378.463 466.94C384.251 469.682 389.832 473.567 395.206 478.594C400.581 483.165 403.268 488.421 403.268 494.362C403.268 502.588 397.894 507.844 387.145 510.129L317.823 524.215L318.249 550.296Z" fill="black"/>
</g>
    <g transform="translate(488.82, 646.56) scale(1 1) translate(0, 0) scale(0.8472222222222222 0.8505747126436781) "><path d="M75.2888 155.757C70.3193 156.171 65.8466 156.586 61.8709 157C57.8953 157 53.9198 157 49.9441 157C47.9563 157 45.9685 157 43.9807 157C41.9929 156.586 40.0048 156.378 38.0169 156.378C36.0291 155.964 34.2898 155.55 32.7989 155.135C31.805 154.307 30.8113 153.685 29.8174 153.271C21.3691 148.298 14.163 141.461 8.19956 132.759C2.73303 123.642 0 116.805 0 112.247C0 106.86 3.47865 104.166 10.4361 104.166C13.4178 104.166 15.9024 104.373 17.8902 104.788C22.3628 106.031 27.084 106.86 32.0535 107.274C37.5201 107.689 42.9865 107.896 48.453 107.896H57.3983L170.091 97.9505L168.6 44.1317C168.6 38.3304 167.357 33.3578 164.873 29.214C162.885 25.0701 159.903 20.5119 155.927 15.5393C153.94 13.053 152.946 10.7739 152.946 8.70203C152.946 2.90068 158.412 0 169.345 0C172.824 0 179.284 0.828766 188.726 2.4863C198.665 3.72943 208.356 6.21572 217.798 9.94516C227.737 13.6746 232.707 19.476 232.707 27.3492L231.962 95.4642L325.039 85.519C329.511 85.1047 334.481 84.6903 339.947 84.2759C345.911 83.4471 351.377 82.204 356.347 80.5464C359.825 79.7177 362.559 79.3033 364.547 79.3033C369.019 79.3033 374.983 81.168 382.437 84.8975C389.892 88.2125 396.849 92.7707 403.309 98.5721C409.77 104.373 413 110.175 413 115.976C413 120.949 410.764 124.885 406.291 127.786C401.819 130.272 396.352 131.723 389.891 132.137L75.2888 155.757Z" fill="black"/>
<path d="M412 335.023C412 340.642 409.269 345.396 403.807 349.285C398.841 353.175 393.628 356.2 388.166 358.361C382.704 360.522 379.228 361.603 377.738 361.603C371.283 361.603 365.572 358.145 360.607 351.23C346.704 332.214 315.055 296.158 299.662 277.574C284.269 258.99 268.628 241.487 252.738 225.064C248.269 219.878 246.035 215.34 246.035 211.45C246.035 207.992 249.014 203.238 254.973 197.188C260.931 191.137 267.138 188.112 273.593 188.112C278.559 188.112 283.773 190.489 289.235 195.243C294.2 199.565 300.903 206.264 309.345 215.34C318.283 223.983 327.469 233.491 336.904 243.864C346.835 254.236 373.021 281.865 381.462 292.237C390.4 302.177 397.6 311.037 403.062 318.816C409.021 326.163 412 331.566 412 335.023ZM33.938 372C27.9793 372 25 369.191 25 363.572C25 358.818 28.2276 352.336 34.6828 344.124C44.1172 332.455 53.8 319.274 63.731 304.579C73.662 289.453 82.5999 274.759 90.5448 260.497C98.9861 246.234 105.193 234.133 109.165 224.193C112.641 216.846 114.379 208.202 114.379 198.262C114.379 188.754 118.848 184 127.786 184C132.752 184 139.207 185.945 147.152 189.834C155.096 193.292 162.296 197.83 168.752 203.448C175.207 208.634 178.434 214.037 178.434 219.655C178.434 222.68 177.441 225.49 175.455 228.083C167.51 241.48 157.083 256.391 144.172 272.814C131.262 289.237 117.607 305.011 103.207 320.138C88.8068 334.832 75.3999 347.149 62.9862 357.09C50.5724 367.03 40.8897 372 33.938 372Z" fill="black"/>
</g>
  </g>
</svg>
