<?xml version='1.0' encoding='ASCII' standalone='yes'?>
<svg xmlns="http://www.w3.org/2000/svg" xmlns:xlink="http://www.w3.org/1999/xlink" version="1.1" width="1000.0px" viewBox="0 0 1000.0 1200.0" height="1200.0px">
  <g>
    <g transform="translate(230.0, 545.0) scale(1 1) "><path d="M12.6538 64.4745C12.6538 55.0433 11.9092 47.1012 10.4201 40.6482C8.93094 33.6989 5.95266 25.7568 1.48524 16.822C0.492482 13.3473 -0.00390625 11.1136 -0.00390625 10.1208C-0.00390625 3.66788 4.71172 0.441406 14.1429 0.441406C18.6104 0.441406 25.3115 1.43417 34.2464 3.41969C43.1812 5.40522 51.8679 8.63169 60.3063 13.0991C68.7448 17.0702 72.964 23.2749 72.964 31.7134L71.9423 280.244C71.9423 296.624 73.1833 310.275 75.6652 321.195C78.6435 331.619 85.0964 340.306 95.024 347.255C105.448 353.708 122.325 358.672 145.655 362.147C168.985 365.125 201.498 366.614 243.194 366.614C269.005 366.614 295.065 365.87 321.374 364.38C348.178 362.395 373.494 359.665 397.32 356.19C414.197 353.212 426.854 350.234 435.293 347.255C443.731 343.781 449.688 339.065 453.163 333.108C457.134 326.655 459.147 323.218 463.647 312.218C467.618 294.844 468.543 294.061 471.521 277.184C474.5 260.307 476.733 243.43 478.223 226.553C481.201 200.741 487.157 187.835 496.092 187.835C503.042 187.835 507.757 193.296 510.239 204.216C512.721 214.64 514.458 226.305 515.451 239.211C516.444 252.117 516.94 264.03 516.94 274.95C517.437 285.871 517.685 292.82 517.685 295.798C517.685 328.559 518.611 331.859 513.647 351.218C509.18 370.577 497.092 384.732 482.201 394.163C467.806 404.091 445.717 411.04 415.934 415.011C387.64 418.486 358.602 421.216 328.819 423.201C299.036 425.187 270.246 426.18 242.449 426.18C199.264 426.18 163.028 424.691 133.742 421.712C104.455 418.734 80.629 412.529 62.2629 403.098C44.3932 394.163 31.4873 381.009 23.5452 363.636C15.6031 345.766 11.6321 322.436 11.6321 293.646L12.6538 64.4745Z" fill="black"/>
</g>
    <g transform="translate(344.82, 507.56) scale(1 1) translate(0, 0) scale(0.8472222222222222 0.8505747126436781) "><path d="M75.2888 155.757C70.3193 156.171 65.8466 156.586 61.8709 157C57.8953 157 53.9198 157 49.9441 157C47.9563 157 45.9685 157 43.9807 157C41.9929 156.586 40.0048 156.378 38.0169 156.378C36.0291 155.964 34.2898 155.55 32.7989 155.135C31.805 154.307 30.8113 153.685 29.8174 153.271C21.3691 148.298 14.163 141.461 8.19956 132.759C2.73303 123.642 0 116.805 0 112.247C0 106.86 3.47865 104.166 10.4361 104.166C13.4178 104.166 15.9024 104.373 17.8902 104.788C22.3628 106.031 27.084 106.86 32.0535 107.274C37.5201 107.689 42.9865 107.896 48.453 107.896H57.3983L170.091 97.9505L168.6 44.1317C168.6 38.3304 167.357 33.3578 164.873 29.214C162.885 25.0701 159.903 20.5119 155.927 15.5393C153.94 13.053 152.946 10.7739 152.946 8.70203C152.946 2.90068 158.412 0 169.345 0C172.824 0 179.284 0.828766 188.726 2.4863C198.665 3.72943 208.356 6.21572 217.798 9.94516C227.737 13.6746 232.707 19.476 232.707 27.3492L231.962 95.4642L325.039 85.519C329.511 85.1047 334.481 84.6903 339.947 84.2759C345.911 83.4471 351.377 82.204 356.347 80.5464C359.825 79.7177 362.559 79.3033 364.547 79.3033C369.019 79.3033 374.983 81.168 382.437 84.8975C389.892 88.2125 396.849 92.7707 403.309 98.5721C409.77 104.373 413 110.175 413 115.976C413 120.949 410.764 124.885 406.291 127.786C401.819 130.272 396.352 131.723 389.891 132.137L75.2888 155.757Z" fill="black"/>
<path d="M412 335.023C412 340.642 409.269 345.396 403.807 349.285C398.841 353.175 393.628 356.2 388.166 358.361C382.704 360.522 379.228 361.603 377.738 361.603C371.283 361.603 365.572 358.145 360.607 351.23C346.704 332.214 315.055 296.158 299.662 277.574C284.269 258.99 268.628 241.487 252.738 225.064C248.269 219.878 246.035 215.34 246.035 211.45C246.035 207.992 249.014 203.238 254.973 197.188C260.931 191.137 267.138 188.112 273.593 188.112C278.559 188.112 283.773 190.489 289.235 195.243C294.2 199.565 300.903 206.264 309.345 215.34C318.283 223.983 327.469 233.491 336.904 243.864C346.835 254.236 373.021 281.865 381.462 292.237C390.4 302.177 397.6 311.037 403.062 318.816C409.021 326.163 412 331.566 412 335.023ZM33.938 372C27.9793 372 25 369.191 25 363.572C25 358.818 28.2276 352.336 34.6828 344.124C44.1172 332.455 53.8 319.274 63.731 304.579C73.662 289.453 82.5999 274.759 90.5448 260.497C98.9861 246.234 105.193 234.133 109.165 224.193C112.641 216.846 114.379 208.202 114.379 198.262C114.379 188.754 118.848 184 127.786 184C132.752 184 139.207 185.945 147.152 189.834C155.096 193.292 162.296 197.83 168.752 203.448C175.207 208.634 178.434 214.037 178.434 219.655C178.434 222.68 177.441 225.49 175.455 228.083C167.51 241.48 157.083 256.391 144.172 272.814C131.262 289.237 117.607 305.011 103.207 320.138C88.8068 334.832 75.3999 347.149 62.9862 357.09C50.5724 367.03 40.8897 372 33.938 372Z" fill="black"/>
</g>
  </g>
</svg>
