<?xml version='1.0' encoding='ASCII' standalone='yes'?>
<svg xmlns="http://www.w3.org/2000/svg" xmlns:xlink="http://www.w3.org/1999/xlink" version="1.1" width="1000.0px" viewBox="0 0 1000.0 1200.0" height="1200.0px">
  <g>
    <g transform="translate(107.0, 384.0) scale(1 1) "><path d="M237.748 160.363L582.761 139.829L595.274 57.6965L243.11 79.1225C241.919 105.31 240.131 132.39 237.748 160.363ZM12.5056 591.56C4.16334 591.56 -0.0078125 587.394 -0.0078125 579.062C-0.0078125 571.92 4.46128 564.778 13.3994 557.636C126.616 448.125 183.225 290.109 183.225 83.5862C183.225 61.5651 179.352 41.0318 171.605 21.9865L170.711 14.8445C170.711 7.10738 176.372 3.23882 187.694 3.23882C196.036 3.23882 214.508 10.6784 243.11 25.5575L614.938 0.560547C627.452 0.560547 638.773 4.7267 648.903 13.059C659.629 20.7962 664.992 27.6406 664.992 33.5923C664.992 39.5439 663.8 44.0077 661.417 46.9835C659.629 49.9593 652.777 81.5031 640.859 141.615C655.756 154.709 663.204 164.826 663.204 171.968C663.204 180.301 660.225 185.657 654.266 188.038C648.903 190.419 510.66 199.048 239.535 213.928C231.193 323.438 195.738 415.689 133.171 490.68C99.2059 532.937 67.3264 562.993 37.5325 580.848C26.2108 587.99 17.8685 591.56 12.5056 591.56Z" fill="black"/>
<path d="M318.249 550.296C318.249 566.677 319.49 580.327 321.972 591.248C324.95 601.672 331.403 610.358 341.331 617.308C351.755 623.76 374.632 628.724 397.962 632.199C421.292 635.177 453.805 636.666 495.501 636.666C521.313 636.666 547.373 635.922 573.681 634.433C600.486 632.447 625.801 629.717 649.627 626.242C666.504 623.264 679.161 620.286 687.6 617.308C696.038 613.833 701.995 609.117 705.47 603.161C709.441 596.708 711.455 593.27 715.955 582.27C719.926 564.897 720.851 564.113 723.829 547.236C726.807 530.359 729.04 513.482 730.53 496.605C733.508 470.794 739.465 457.888 748.4 457.888C755.349 457.888 760.064 463.348 762.546 474.268C765.028 484.692 766.766 496.357 767.759 509.263C768.751 522.169 769.247 534.082 769.247 545.003C769.744 555.923 769.992 562.872 769.992 565.851C769.992 598.612 770.919 601.911 765.955 621.27C761.487 640.629 749.4 654.784 734.508 664.215C720.113 674.143 698.024 681.092 668.242 685.063C639.948 688.538 610.909 691.268 581.126 693.254C551.343 695.239 522.553 696.232 494.756 696.232C451.571 696.232 415.335 694.743 386.049 691.765C356.762 688.786 339.936 682.582 321.57 673.15C303.7 664.215 290.794 651.061 282.852 633.688C274.91 615.818 270.939 592.489 270.939 563.698L270.693 532.441L246.262 538.299C241.301 539.214 236.753 540.128 232.619 541.042C228.898 541.499 225.384 541.727 222.077 541.727C215.875 541.727 210.294 539.442 205.333 534.872C200.372 530.302 196.445 525.731 193.551 521.161C191.07 516.591 189.623 513.848 189.21 512.934C187.556 509.278 186.729 506.536 186.729 504.708C186.729 499.223 189.623 496.481 195.411 496.481H205.953C214.635 496.481 222.697 495.796 230.138 494.424L271.314 485.824L273.174 406.163L269.729 407.056C268.229 407.609 260.729 409.583 256.827 410.76C247.731 413.502 238.843 416.016 230.161 418.301C221.893 420.129 215.071 421.043 209.697 421.043C200.188 421.043 195.434 417.844 195.434 411.445C195.434 405.047 201.222 399.334 212.797 394.307C238.429 383.338 264.268 370.313 271.314 362.974C281.229 356.724 305.729 338.472 314.908 329.631C322.763 323.232 327.93 315.691 330.411 307.008C332.478 301.066 336.199 298.096 341.573 298.096C346.534 298.096 351.702 301.066 357.077 307.008C362.864 312.492 367.619 318.662 371.34 325.518C375.06 331.916 376.921 337.4 376.921 341.971C376.921 346.084 371.96 351.797 362.038 359.11C352.529 365.965 337.729 375.124 328.551 380.361C324.729 382.542 322.729 383.826 318.443 385.597L317.823 477.597L331.333 473.796C336.294 472.881 340.635 471.739 344.356 470.368C348.49 468.997 352.624 467.168 356.758 464.883C359.239 463.055 361.926 462.141 364.82 462.141C368.127 462.141 372.675 463.741 378.463 466.94C384.251 469.682 389.832 473.567 395.206 478.594C400.581 483.165 403.268 488.421 403.268 494.362C403.268 502.588 397.894 507.844 387.145 510.129L317.823 524.215L318.249 550.296Z" fill="black"/>
</g>
    <g transform="translate(498.99, 689.09) scale(1 1) translate(0, 0) scale(0.8472222222222222 0.8505747126436781) "><path d="M67.7558 286.66C64.2812 286.66 60.8065 286.908 57.3319 287.404C53.8572 287.404 50.6307 287.404 47.6525 287.404C34.2502 287.404 24.0745 283.433 17.1251 275.491C10.6722 267.549 5.95653 259.855 2.97824 252.409L0 240.496C0 234.043 2.97817 230.817 8.93473 230.817C10.4239 230.817 11.6649 231.065 12.6577 231.562C14.1468 231.562 15.636 231.81 17.1251 232.306C27.5491 234.788 37.7248 236.029 47.6525 236.029H54.3536L300.062 224.86C306.019 224.364 311.479 223.868 316.443 223.371C321.406 222.378 326.618 220.889 332.078 218.904C334.064 218.407 336.546 218.159 339.524 218.159C344.488 218.159 350.445 220.393 357.394 224.86C364.84 229.328 371.293 234.788 376.753 241.241C382.709 247.694 385.688 253.402 385.688 258.366C385.688 263.826 383.206 267.549 378.242 269.535C373.278 271.52 368.066 272.761 362.606 273.257L67.7558 286.66ZM134.767 170.507C131.293 170.507 127.818 170.755 124.343 171.251C120.869 171.251 117.642 171.251 114.664 171.251C101.261 171.251 91.0858 167.528 84.1364 160.083C77.6835 152.637 73.2161 145.191 70.7342 137.746C68.2523 129.804 67.0113 125.336 67.0113 124.343C67.0113 118.387 69.9896 115.408 75.9462 115.408C77.4354 115.408 78.6762 115.657 79.669 116.153C81.1581 116.153 82.6473 116.401 84.1364 116.898C88.6039 117.89 93.3195 118.883 98.2833 119.876C103.247 120.372 108.459 120.62 113.919 120.62H120.62L222.627 114.664C229.08 114.168 234.788 113.671 239.752 113.175C244.716 112.182 249.679 110.693 254.643 108.707C256.629 108.211 259.111 107.963 262.089 107.963C266.556 107.963 272.265 110.445 279.214 115.408C286.163 119.876 292.616 125.088 298.573 131.044C305.026 137.001 308.252 142.709 308.252 148.17C308.252 154.126 305.77 157.849 300.806 159.338C295.843 160.331 290.383 161.075 284.426 161.572L134.767 170.507ZM108.707 66.2668C104.736 66.7632 101.013 67.0114 97.5388 67.0114C94.5605 67.0114 91.5822 67.0114 88.6039 67.0114C77.6835 67.0114 70.2378 65.274 66.2668 61.7994C62.2957 58.3247 56.8355 52.8645 49.8862 45.4188C43.4332 37.9731 40.2067 29.5346 40.2067 20.1034C40.2067 14.1468 43.1851 11.1686 49.1417 11.1686C50.6308 11.1686 51.8717 11.4168 52.8644 11.9132C54.3536 11.9132 55.8427 12.1613 57.3319 12.6577C61.7993 13.6504 66.515 14.6432 71.4788 15.636C76.4426 16.1324 81.6545 16.3805 87.1147 16.3805H93.8159L250.92 6.70114C257.373 6.20475 263.082 5.70835 268.045 5.21197C273.009 4.21921 277.973 2.73009 282.937 0.744561C284.922 0.248187 287.404 0 290.383 0C294.85 0 300.558 2.4819 307.508 7.4457C314.457 11.9131 320.91 17.1251 326.867 23.0817C333.319 29.0383 336.546 34.7466 336.546 40.2068C336.546 46.1634 334.064 49.8862 329.1 51.3754C324.136 52.3682 318.676 53.1127 312.72 53.6091L108.707 66.2668Z" fill="black"/>
</g>
  </g>
</svg>
