<?xml version='1.0' encoding='ASCII' standalone='yes'?>
<svg xmlns="http://www.w3.org/2000/svg" xmlns:xlink="http://www.w3.org/1999/xlink" version="1.1" width="1000.0px" viewBox="0 0 1000.0 1200.0" height="1200.0px">
  <g>
    <g transform="translate(181.0, 376.0) scale(1 1) "><path d="M150.318 153.055C147.013 149.198 145.36 145.065 145.36 140.657C145.36 135.147 146.462 131.565 148.665 129.912L76.7751 133.218C52.5371 133.218 36.5611 117.79 28.8488 86.9321C28.8488 80.8709 33.2559 77.8403 42.07 77.8403C54.1891 80.0444 65.2071 81.1464 75.1231 81.1464C80.6321 81.1464 164.366 77.2893 326.325 69.575H325.499C296.853 58.5546 273.165 50.8403 254.435 46.4322C242.315 43.126 236.256 37.6158 236.256 29.9015C236.256 24.9424 239.01 18.8812 244.519 11.7179C250.579 4.00361 256.638 0.146484 262.698 0.146484C266.554 0.146484 281.979 3.7281 308.972 10.8914C343.678 20.8097 361.03 31.0036 361.03 41.473C361.03 46.9832 359.653 51.9424 356.899 56.3505C354.695 62.4118 351.665 66.5444 347.809 68.7485C386.922 67.0954 430.166 65.1669 477.542 62.9628C489.661 62.4118 501.505 59.9322 513.074 55.524C515.277 54.973 518.032 54.6975 521.337 54.6975C530.151 54.6975 540.067 59.3812 551.085 68.7485C562.102 77.5648 567.611 85.5546 567.611 92.7179C567.611 102.086 561.001 107.596 547.779 109.249L420.526 115.861C436.501 123.575 444.489 132.667 444.489 143.136C444.489 149.525 428.611 172.97 414.287 190.232L562.72 183.573H570.983C582.001 183.573 591.09 187.705 598.252 195.971C605.413 203.685 608.994 210.297 608.994 215.807C608.994 219.113 608.443 222.42 607.341 225.726C606.239 228.481 605.413 231.787 604.862 235.644L597.968 613.065V629.596C598.519 633.453 598.795 637.035 598.795 640.341C598.795 654.116 593.561 664.861 583.094 672.575C573.179 680.29 564.64 684.147 557.478 684.147C554.173 684.147 547.562 681.667 537.647 676.708C528.282 671.749 517.815 665.412 506.246 657.698C494.678 649.984 483.109 641.994 471.541 633.728C460.523 625.463 451.158 617.198 443.446 608.933C435.733 600.667 431.877 594.055 431.877 589.096C431.877 584.285 434.339 582.035 435.62 581.271C438.201 579.733 440.614 579.178 444.272 579.178C448.679 579.178 455.29 580.831 464.104 584.137C476.774 589.647 490.271 595.157 504.594 600.667C518.917 605.626 529.934 609.208 537.647 611.412L545.367 236.471L69.4051 257.134H31.6233C15.5312 257.134 11.5626 244.736 9.90994 236.471C8.80824 228.205 6.60464 220.215 3.29944 212.501C1.09584 208.093 -0.00585938 203.96 -0.00585938 200.103C-0.00585938 192.94 4.12574 189.358 12.3889 189.358C20.6521 189.358 38.2803 194.869 65.2731 205.889L182.772 200.618C169.229 181.974 152.545 155.282 150.318 153.055ZM375.904 118.341L202.377 127.432C200.182 127.393 196.097 126.987 196.871 128.172C197.474 129.095 200.724 132.667 208.987 141.483C217.801 150.3 226.615 160.769 235.429 172.892C243.948 183.418 248.593 191.664 249.362 197.63L345.443 193.32C354.808 179.537 366.194 162.15 369.294 154.708C375.353 141.483 379.172 128.426 379.172 117.956L375.904 118.341Z" fill="black"/>
</g>
    <g transform="translate(312.66999999999996, 692.61) scale(1 1) translate(0, 0) scale(0.8472222222222222 0.8505747126436781) "><path d="M69.9896 242.926H58.8211C44.9224 242.926 33.0093 240.444 23.0817 235.48C13.6505 230.516 6.2048 217.61 0.744606 196.762C0.744606 195.769 0.496378 195.025 0 194.528C0 194.032 0 193.287 0 192.295C0 186.835 2.73012 184.104 8.19031 184.104C10.1758 184.104 11.9131 184.353 13.4023 184.849C18.8625 186.835 24.0745 188.324 29.0383 189.316C34.0021 190.309 38.9659 190.806 43.9297 190.806H49.1417L325.893 181.126C330.857 180.63 336.069 180.133 341.53 179.637C347.486 178.644 352.946 177.155 357.91 175.17C361.385 174.177 364.363 173.68 366.845 173.68C372.801 173.68 378.758 176.162 384.715 181.126C391.168 186.09 396.876 191.798 401.84 198.251C406.804 204.704 409.285 210.413 409.285 215.376C409.285 220.837 407.052 224.808 402.584 227.29C398.613 229.275 393.898 230.516 388.438 231.012L69.9896 242.926ZM133.43 66.2668C130.948 66.7632 128.218 67.0113 125.24 67.0113C122.758 67.0113 120.276 67.0113 117.794 67.0113C104.392 67.0113 93.2234 64.2813 84.2886 58.8211C75.3537 52.8645 68.4044 40.455 63.4406 21.5925C63.4406 20.5998 63.1924 19.8552 62.696 19.3588C62.696 18.8624 62.696 18.1179 62.696 17.1251C62.696 11.6649 65.4261 8.93487 70.8863 8.93487C72.8718 8.93487 74.6091 9.18301 76.0982 9.67938C85.5295 13.154 95.2089 14.8914 105.137 14.8914H111.838L252.138 6.70114C257.101 6.20475 262.313 5.70839 267.774 5.21202C273.73 4.21925 279.19 2.73009 284.154 0.744561C286.14 0.248187 288.622 0 291.6 0C296.564 0 302.52 2.23371 309.47 6.70114C316.419 11.1686 322.624 16.6287 328.084 23.0817C333.544 29.5346 336.274 35.243 336.274 40.2068C336.274 45.667 334.04 49.3899 329.573 51.3754C325.106 53.3609 320.39 54.6018 315.426 55.0982L133.43 66.2668Z" fill="black"/>
</g>
  </g>
</svg>
