<?xml version='1.0' encoding='ASCII' standalone='yes'?>
<svg xmlns="http://www.w3.org/2000/svg" xmlns:xlink="http://www.w3.org/1999/xlink" version="1.1" width="1000.0px" viewBox="0 0 1000.0 1200.0" height="1200.0px">
  <g>
    <g transform="translate(181.0, 376.0) scale(1 1) "><path d="M150.318 153.055C147.013 149.198 145.36 145.065 145.36 140.657C145.36 135.147 146.462 131.565 148.665 129.912L76.7751 133.218C52.5371 133.218 36.5611 117.79 28.8488 86.9321C28.8488 80.8709 33.2559 77.8403 42.07 77.8403C54.1891 80.0444 65.2071 81.1464 75.1231 81.1464C80.6321 81.1464 164.366 77.2893 326.325 69.575H325.499C296.853 58.5546 273.165 50.8403 254.435 46.4322C242.315 43.126 236.256 37.6158 236.256 29.9015C236.256 24.9424 239.01 18.8812 244.519 11.7179C250.579 4.00361 256.638 0.146484 262.698 0.146484C266.554 0.146484 281.979 3.7281 308.972 10.8914C343.678 20.8097 361.03 31.0036 361.03 41.473C361.03 46.9832 359.653 51.9424 356.899 56.3505C354.695 62.4118 351.665 66.5444 347.809 68.7485C386.922 67.0954 430.166 65.1669 477.542 62.9628C489.661 62.4118 501.505 59.9322 513.074 55.524C515.277 54.973 518.032 54.6975 521.337 54.6975C530.151 54.6975 540.067 59.3812 551.085 68.7485C562.102 77.5648 567.611 85.5546 567.611 92.7179C567.611 102.086 561.001 107.596 547.779 109.249L420.526 115.861C436.501 123.575 444.489 132.667 444.489 143.136C444.489 149.525 428.611 172.97 414.287 190.232L562.72 183.573H570.983C582.001 183.573 591.09 187.705 598.252 195.971C605.413 203.685 608.994 210.297 608.994 215.807C608.994 219.113 608.443 222.42 607.341 225.726C606.239 228.481 605.413 231.787 604.862 235.644L597.968 613.065V629.596C598.519 633.453 598.795 637.035 598.795 640.341C598.795 654.116 593.561 664.861 583.094 672.575C573.179 680.29 564.64 684.147 557.478 684.147C554.173 684.147 547.562 681.667 537.647 676.708C528.282 671.749 517.815 665.412 506.246 657.698C494.678 649.984 483.109 641.994 471.541 633.728C460.523 625.463 451.158 617.198 443.446 608.933C435.733 600.667 431.877 594.055 431.877 589.096C431.877 584.285 434.339 582.035 435.62 581.271C438.201 579.733 440.614 579.178 444.272 579.178C448.679 579.178 455.29 580.831 464.104 584.137C476.774 589.647 490.271 595.157 504.594 600.667C518.917 605.626 529.934 609.208 537.647 611.412L545.367 236.471L69.4051 257.134H31.6233C15.5312 257.134 11.5626 244.736 9.90994 236.471C8.80824 228.205 6.60464 220.215 3.29944 212.501C1.09584 208.093 -0.00585938 203.96 -0.00585938 200.103C-0.00585938 192.94 4.12574 189.358 12.3889 189.358C20.6521 189.358 38.2803 194.869 65.2731 205.889L182.772 200.618C169.229 181.974 152.545 155.282 150.318 153.055ZM375.904 118.341L202.377 127.432C200.182 127.393 196.097 126.987 196.871 128.172C197.474 129.095 200.724 132.667 208.987 141.483C217.801 150.3 226.615 160.769 235.429 172.892C243.948 183.418 248.593 191.664 249.362 197.63L345.443 193.32C354.808 179.537 366.194 162.15 369.294 154.708C375.353 141.483 379.172 128.426 379.172 117.956L375.904 118.341Z" fill="black"/>
</g>
    <g transform="translate(321.99, 667.09) scale(1 1) translate(0, 0) scale(0.8472222222222222 0.8505747126436781) "><path d="M67.7558 286.66C64.2812 286.66 60.8065 286.908 57.3319 287.404C53.8572 287.404 50.6307 287.404 47.6525 287.404C34.2502 287.404 24.0745 283.433 17.1251 275.491C10.6722 267.549 5.95653 259.855 2.97824 252.409L0 240.496C0 234.043 2.97817 230.817 8.93473 230.817C10.4239 230.817 11.6649 231.065 12.6577 231.562C14.1468 231.562 15.636 231.81 17.1251 232.306C27.5491 234.788 37.7248 236.029 47.6525 236.029H54.3536L300.062 224.86C306.019 224.364 311.479 223.868 316.443 223.371C321.406 222.378 326.618 220.889 332.078 218.904C334.064 218.407 336.546 218.159 339.524 218.159C344.488 218.159 350.445 220.393 357.394 224.86C364.84 229.328 371.293 234.788 376.753 241.241C382.709 247.694 385.688 253.402 385.688 258.366C385.688 263.826 383.206 267.549 378.242 269.535C373.278 271.52 368.066 272.761 362.606 273.257L67.7558 286.66ZM134.767 170.507C131.293 170.507 127.818 170.755 124.343 171.251C120.869 171.251 117.642 171.251 114.664 171.251C101.261 171.251 91.0858 167.528 84.1364 160.083C77.6835 152.637 73.2161 145.191 70.7342 137.746C68.2523 129.804 67.0113 125.336 67.0113 124.343C67.0113 118.387 69.9896 115.408 75.9462 115.408C77.4354 115.408 78.6762 115.657 79.669 116.153C81.1581 116.153 82.6473 116.401 84.1364 116.898C88.6039 117.89 93.3195 118.883 98.2833 119.876C103.247 120.372 108.459 120.62 113.919 120.62H120.62L222.627 114.664C229.08 114.168 234.788 113.671 239.752 113.175C244.716 112.182 249.679 110.693 254.643 108.707C256.629 108.211 259.111 107.963 262.089 107.963C266.556 107.963 272.265 110.445 279.214 115.408C286.163 119.876 292.616 125.088 298.573 131.044C305.026 137.001 308.252 142.709 308.252 148.17C308.252 154.126 305.77 157.849 300.806 159.338C295.843 160.331 290.383 161.075 284.426 161.572L134.767 170.507ZM108.707 66.2668C104.736 66.7632 101.013 67.0114 97.5388 67.0114C94.5605 67.0114 91.5822 67.0114 88.6039 67.0114C77.6835 67.0114 70.2378 65.274 66.2668 61.7994C62.2957 58.3247 56.8355 52.8645 49.8862 45.4188C43.4332 37.9731 40.2067 29.5346 40.2067 20.1034C40.2067 14.1468 43.1851 11.1686 49.1417 11.1686C50.6308 11.1686 51.8717 11.4168 52.8644 11.9132C54.3536 11.9132 55.8427 12.1613 57.3319 12.6577C61.7993 13.6504 66.515 14.6432 71.4788 15.636C76.4426 16.1324 81.6545 16.3805 87.1147 16.3805H93.8159L250.92 6.70114C257.373 6.20475 263.082 5.70835 268.045 5.21197C273.009 4.21921 277.973 2.73009 282.937 0.744561C284.922 0.248187 287.404 0 290.383 0C294.85 0 300.558 2.4819 307.508 7.4457C314.457 11.9131 320.91 17.1251 326.867 23.0817C333.319 29.0383 336.546 34.7466 336.546 40.2068C336.546 46.1634 334.064 49.8862 329.1 51.3754C324.136 52.3682 318.676 53.1127 312.72 53.6091L108.707 66.2668Z" fill="black"/>
</g>
  </g>
</svg>
