<?xml version='1.0' encoding='ASCII' standalone='yes'?>
<svg xmlns="http://www.w3.org/2000/svg" xmlns:xlink="http://www.w3.org/1999/xlink" version="1.1" width="1000.0px" viewBox="0 0 1000.0 1200.0" height="1200.0px">
  <g>
    <g transform="translate(181.0, 376.0) scale(1 1) "><path d="M150.318 153.055C147.013 149.198 145.36 145.065 145.36 140.657C145.36 135.147 146.462 131.565 148.665 129.912L76.7751 133.218C52.5371 133.218 36.5611 117.79 28.8488 86.9321C28.8488 80.8709 33.2559 77.8403 42.07 77.8403C54.1891 80.0444 65.2071 81.1464 75.1231 81.1464C80.6321 81.1464 164.366 77.2893 326.325 69.575H325.499C296.853 58.5546 273.165 50.8403 254.435 46.4322C242.315 43.126 236.256 37.6158 236.256 29.9015C236.256 24.9424 239.01 18.8812 244.519 11.7179C250.579 4.00361 256.638 0.146484 262.698 0.146484C266.554 0.146484 281.979 3.7281 308.972 10.8914C343.678 20.8097 361.03 31.0036 361.03 41.473C361.03 46.9832 359.653 51.9424 356.899 56.3505C354.695 62.4118 351.665 66.5444 347.809 68.7485C386.922 67.0954 430.166 65.1669 477.542 62.9628C489.661 62.4118 501.505 59.9322 513.074 55.524C515.277 54.973 518.032 54.6975 521.337 54.6975C530.151 54.6975 540.067 59.3812 551.085 68.7485C562.102 77.5648 567.611 85.5546 567.611 92.7179C567.611 102.086 561.001 107.596 547.779 109.249L420.526 115.861C436.501 123.575 444.489 132.667 444.489 143.136C444.489 149.525 428.611 172.97 414.287 190.232L562.72 183.573H570.983C582.001 183.573 591.09 187.705 598.252 195.971C605.413 203.685 608.994 210.297 608.994 215.807C608.994 219.113 608.443 222.42 607.341 225.726C606.239 228.481 605.413 231.787 604.862 235.644L597.968 613.065V629.596C598.519 633.453 598.795 637.035 598.795 640.341C598.795 654.116 593.561 664.861 583.094 672.575C573.179 680.29 564.64 684.147 557.478 684.147C554.173 684.147 547.562 681.667 537.647 676.708C528.282 671.749 517.815 665.412 506.246 657.698C494.678 649.984 483.109 641.994 471.541 633.728C460.523 625.463 451.158 617.198 443.446 608.933C435.733 600.667 431.877 594.055 431.877 589.096C431.877 584.285 434.339 582.035 435.62 581.271C438.201 579.733 440.614 579.178 444.272 579.178C448.679 579.178 455.29 580.831 464.104 584.137C476.774 589.647 490.271 595.157 504.594 600.667C518.917 605.626 529.934 609.208 537.647 611.412L545.367 236.471L69.4051 257.134H31.6233C15.5312 257.134 11.5626 244.736 9.90994 236.471C8.80824 228.205 6.60464 220.215 3.29944 212.501C1.09584 208.093 -0.00585938 203.96 -0.00585938 200.103C-0.00585938 192.94 4.12574 189.358 12.3889 189.358C20.6521 189.358 38.2803 194.869 65.2731 205.889L182.772 200.618C169.229 181.974 152.545 155.282 150.318 153.055ZM375.904 118.341L202.377 127.432C200.182 127.393 196.097 126.987 196.871 128.172C197.474 129.095 200.724 132.667 208.987 141.483C217.801 150.3 226.615 160.769 235.429 172.892C243.948 183.418 248.593 191.664 249.362 197.63L345.443 193.32C354.808 179.537 366.194 162.15 369.294 154.708C375.353 141.483 379.172 128.426 379.172 117.956L375.904 118.341Z" fill="black"/>
</g>
    <g transform="translate(311.82, 624.56) scale(1 1) translate(0, 0) scale(0.8472222222222222 0.8505747126436781) "><path d="M75.2888 155.757C70.3193 156.171 65.8466 156.586 61.8709 157C57.8953 157 53.9198 157 49.9441 157C47.9563 157 45.9685 157 43.9807 157C41.9929 156.586 40.0048 156.378 38.0169 156.378C36.0291 155.964 34.2898 155.55 32.7989 155.135C31.805 154.307 30.8113 153.685 29.8174 153.271C21.3691 148.298 14.163 141.461 8.19956 132.759C2.73303 123.642 0 116.805 0 112.247C0 106.86 3.47865 104.166 10.4361 104.166C13.4178 104.166 15.9024 104.373 17.8902 104.788C22.3628 106.031 27.084 106.86 32.0535 107.274C37.5201 107.689 42.9865 107.896 48.453 107.896H57.3983L170.091 97.9505L168.6 44.1317C168.6 38.3304 167.357 33.3578 164.873 29.214C162.885 25.0701 159.903 20.5119 155.927 15.5393C153.94 13.053 152.946 10.7739 152.946 8.70203C152.946 2.90068 158.412 0 169.345 0C172.824 0 179.284 0.828766 188.726 2.4863C198.665 3.72943 208.356 6.21572 217.798 9.94516C227.737 13.6746 232.707 19.476 232.707 27.3492L231.962 95.4642L325.039 85.519C329.511 85.1047 334.481 84.6903 339.947 84.2759C345.911 83.4471 351.377 82.204 356.347 80.5464C359.825 79.7177 362.559 79.3033 364.547 79.3033C369.019 79.3033 374.983 81.168 382.437 84.8975C389.892 88.2125 396.849 92.7707 403.309 98.5721C409.77 104.373 413 110.175 413 115.976C413 120.949 410.764 124.885 406.291 127.786C401.819 130.272 396.352 131.723 389.891 132.137L75.2888 155.757Z" fill="black"/>
<path d="M412 335.023C412 340.642 409.269 345.396 403.807 349.285C398.841 353.175 393.628 356.2 388.166 358.361C382.704 360.522 379.228 361.603 377.738 361.603C371.283 361.603 365.572 358.145 360.607 351.23C346.704 332.214 315.055 296.158 299.662 277.574C284.269 258.99 268.628 241.487 252.738 225.064C248.269 219.878 246.035 215.34 246.035 211.45C246.035 207.992 249.014 203.238 254.973 197.188C260.931 191.137 267.138 188.112 273.593 188.112C278.559 188.112 283.773 190.489 289.235 195.243C294.2 199.565 300.903 206.264 309.345 215.34C318.283 223.983 327.469 233.491 336.904 243.864C346.835 254.236 373.021 281.865 381.462 292.237C390.4 302.177 397.6 311.037 403.062 318.816C409.021 326.163 412 331.566 412 335.023ZM33.938 372C27.9793 372 25 369.191 25 363.572C25 358.818 28.2276 352.336 34.6828 344.124C44.1172 332.455 53.8 319.274 63.731 304.579C73.662 289.453 82.5999 274.759 90.5448 260.497C98.9861 246.234 105.193 234.133 109.165 224.193C112.641 216.846 114.379 208.202 114.379 198.262C114.379 188.754 118.848 184 127.786 184C132.752 184 139.207 185.945 147.152 189.834C155.096 193.292 162.296 197.83 168.752 203.448C175.207 208.634 178.434 214.037 178.434 219.655C178.434 222.68 177.441 225.49 175.455 228.083C167.51 241.48 157.083 256.391 144.172 272.814C131.262 289.237 117.607 305.011 103.207 320.138C88.8068 334.832 75.3999 347.149 62.9862 357.09C50.5724 367.03 40.8897 372 33.938 372Z" fill="black"/>
</g>
  </g>
</svg>
