<?xml version='1.0' encoding='ASCII' standalone='yes'?>
<svg xmlns="http://www.w3.org/2000/svg" xmlns:xlink="http://www.w3.org/1999/xlink" version="1.1" width="1000.0px" viewBox="0 0 1000.0 1200.0" height="1200.0px">
  <g>
    <g transform="translate(181.0, 376.0) scale(1 1) "><path d="M150.318 153.055C147.013 149.198 145.36 145.065 145.36 140.657C145.36 135.147 146.462 131.565 148.665 129.912L76.7751 133.218C52.5371 133.218 36.5611 117.79 28.8488 86.9321C28.8488 80.8709 33.2559 77.8403 42.07 77.8403C54.1891 80.0444 65.2071 81.1464 75.1231 81.1464C80.6321 81.1464 164.366 77.2893 326.325 69.575H325.499C296.853 58.5546 273.165 50.8403 254.435 46.4322C242.315 43.126 236.256 37.6158 236.256 29.9015C236.256 24.9424 239.01 18.8812 244.519 11.7179C250.579 4.00361 256.638 0.146484 262.698 0.146484C266.554 0.146484 281.979 3.7281 308.972 10.8914C343.678 20.8097 361.03 31.0036 361.03 41.473C361.03 46.9832 359.653 51.9424 356.899 56.3505C354.695 62.4118 351.665 66.5444 347.809 68.7485C386.922 67.0954 430.166 65.1669 477.542 62.9628C489.661 62.4118 501.505 59.9322 513.074 55.524C515.277 54.973 518.032 54.6975 521.337 54.6975C530.151 54.6975 540.067 59.3812 551.085 68.7485C562.102 77.5648 567.611 85.5546 567.611 92.7179C567.611 102.086 561.001 107.596 547.779 109.249L420.526 115.861C436.501 123.575 444.489 132.667 444.489 143.136C444.489 149.525 428.611 172.97 414.287 190.232L562.72 183.573H570.983C582.001 183.573 591.09 187.705 598.252 195.971C605.413 203.685 608.994 210.297 608.994 215.807C608.994 219.113 608.443 222.42 607.341 225.726C606.239 228.481 605.413 231.787 604.862 235.644L597.968 613.065V629.596C598.519 633.453 598.795 637.035 598.795 640.341C598.795 654.116 593.561 664.861 583.094 672.575C573.179 680.29 564.64 684.147 557.478 684.147C554.173 684.147 547.562 681.667 537.647 676.708C528.282 671.749 517.815 665.412 506.246 657.698C494.678 649.984 483.109 641.994 471.541 633.728C460.523 625.463 451.158 617.198 443.446 608.933C435.733 600.667 431.877 594.055 431.877 589.096C431.877 584.285 434.339 582.035 435.62 581.271C438.201 579.733 440.614 579.178 444.272 579.178C448.679 579.178 455.29 580.831 464.104 584.137C476.774 589.647 490.271 595.157 504.594 600.667C518.917 605.626 529.934 609.208 537.647 611.412L545.367 236.471L69.4051 257.134H31.6233C15.5312 257.134 11.5626 244.736 9.90994 236.471C8.80824 228.205 6.60464 220.215 3.29944 212.501C1.09584 208.093 -0.00585938 203.96 -0.00585938 200.103C-0.00585938 192.94 4.12574 189.358 12.3889 189.358C20.6521 189.358 38.2803 194.869 65.2731 205.889L182.772 200.618C169.229 181.974 152.545 155.282 150.318 153.055ZM375.904 118.341L202.377 127.432C200.182 127.393 196.097 126.987 196.871 128.172C197.474 129.095 200.724 132.667 208.987 141.483C217.801 150.3 226.615 160.769 235.429 172.892C243.948 183.418 248.593 191.664 249.362 197.63L345.443 193.32C354.808 179.537 366.194 162.15 369.294 154.708C375.353 141.483 379.172 128.426 379.172 117.956L375.904 118.341Z" fill="black"/>
</g>
    <g transform="translate(309.28, 655.1800000000001) scale(1 1) translate(0, 0) scale(0.8472222222222222 0.8505747126436781) "><path d="M279.08 169.876L184.743 177.044L159.194 275.959L267.288 270.224L279.08 169.876ZM47.1685 329H41.2724C28.6068 329 19.6536 325.894 14.4126 319.682C9.17171 312.992 5.45936 306.541 3.27563 300.329C1.09189 294.117 0 289.099 0 285.277C0 280.976 2.40212 278.826 7.20632 278.826C8.95331 278.826 10.7003 279.065 12.4473 279.542C17.6882 281.454 24.021 282.41 31.4457 282.41C33.6294 282.41 35.8132 282.41 37.9969 282.41C40.1806 281.932 42.3643 281.693 44.5481 281.693L108.095 278.109L133.644 179.911L94.3371 182.061H83.8551C74.2467 182.061 67.4772 180.627 63.5465 177.76C60.0525 174.415 56.3402 170.115 52.4095 164.858C49.3522 158.646 46.5134 151.956 43.8929 144.789C43.4562 143.355 43.2378 141.444 43.2378 139.054C43.2378 134.754 45.4215 132.603 49.789 132.603C51.0992 132.603 51.9727 132.842 52.4095 133.32C53.2829 133.32 54.1564 133.32 55.0299 133.32C62.4546 134.754 69.4425 135.471 75.9937 135.471C78.1774 135.471 80.5796 135.471 83.2 135.471C85.8205 134.993 88.4409 134.754 91.0614 134.754L146.091 131.887L161.159 63.0762L79.2693 68.8105C77.5224 68.8105 75.7753 69.0494 74.0283 69.5272C72.2813 69.5272 70.7528 69.5272 69.4426 69.5272C57.2137 69.5272 48.042 65.7044 41.9276 58.0588C36.2499 49.9354 31.8824 41.0951 28.8252 31.5381C28.3884 30.1046 28.1701 27.7153 28.1701 24.3703C28.1701 20.5475 30.5722 18.6361 35.3765 18.6361C37.5602 18.6361 39.3071 18.8751 40.6174 19.3529C48.0421 20.7865 55.2483 21.5032 62.2362 21.5032H71.4079L305.285 5.73417C309.653 5.25632 313.583 4.77848 317.077 4.30064C320.571 3.34495 323.628 2.38925 326.249 1.43353C328.433 0.955687 330.398 0.716758 332.145 0.716758C333.892 0.238914 335.202 0 336.076 0C340.006 0 344.811 1.91138 350.488 5.73417C356.166 9.55698 361.188 14.3355 365.556 20.0697C370.36 25.8039 372.762 31.2992 372.762 36.5556C372.762 45.1569 365.119 49.9354 349.833 50.891L211.603 60.2091L196.536 128.303L294.803 121.852C295.677 121.852 296.55 121.852 297.424 121.852C298.734 121.374 300.044 121.135 301.354 121.135C307.032 121.135 313.802 124.241 321.663 130.453C329.961 136.187 334.11 143.116 334.11 151.24C334.11 155.062 333.455 158.168 332.145 160.558C331.271 162.469 330.616 164.381 330.18 166.292L315.767 268.074L345.247 265.924C349.615 265.446 353.982 264.968 358.35 264.49C362.717 263.534 367.303 262.579 372.107 261.623C373.854 261.145 375.601 260.906 377.348 260.906C379.095 260.428 380.624 260.19 381.934 260.19C387.612 260.19 392.852 262.579 397.657 267.357C402.898 271.658 407.265 276.675 410.759 282.41C414.253 287.666 416 292.206 416 296.028C416 305.107 409.012 310.125 395.036 311.081L47.1685 329Z" fill="black"/>
</g>
  </g>
</svg>
