<svg width="382" height="435" viewBox="0 0 382 435" fill="none" xmlns="http://www.w3.org/2000/svg">
<path d="M163.175 227.065L66.3859 234.78C63.1921 235.247 60.2264 235.481 57.4888 235.481C54.7512 235.481 52.0137 235.481 49.2761 235.481C42.8885 235.481 36.9571 235.013 31.4819 234.078C26.0068 233.143 21.6722 230.805 18.4784 227.065C9.80946 216.311 3.87804 205.09 0.684219 193.401C0.684219 192.466 0.456254 191.764 0 191.297C0 190.362 0 189.426 0 188.491C0 183.348 2.28117 180.777 6.84377 180.777C8.21256 180.777 10.0376 181.478 12.3189 182.881C16.8815 184.283 20.9879 185.452 24.638 186.387C28.7443 186.855 33.3069 187.089 38.3257 187.089H46.5386L163.175 177.971V46.9897C163.175 42.3141 162.719 37.6385 161.806 32.9629C160.894 28.2873 158.84 23.8455 155.647 19.6375C153.365 16.3646 152.224 13.0917 152.224 9.81873C152.224 3.27291 156.787 0 165.912 0C172.3 0 180.056 1.40267 189.182 4.20801C200.132 7.94849 207.432 11.4552 211.082 14.7281C214.732 17.5335 216.557 22.6766 216.557 30.1576V175.166L305.348 168.153C309.911 167.685 314.702 167.217 319.721 166.75C325.196 165.815 330.214 164.412 334.777 162.542C336.146 162.074 337.515 161.841 338.884 161.841C340.252 161.373 341.621 161.139 342.99 161.139C346.184 161.139 350.746 163.477 356.678 168.153C362.609 172.828 368.312 178.205 373.788 184.283C379.263 190.362 382 195.972 382 201.115C382 206.259 379.947 209.532 375.84 210.934C371.734 212.337 367.628 213.272 363.521 213.74L216.557 224.26L217.242 412.557C217.242 427.519 211.31 435 199.447 435C191.235 435 182.11 431.026 172.072 423.077C162.49 415.596 157.699 406.713 157.699 396.426C157.699 393.153 157.928 390.582 158.384 388.712C159.753 381.698 160.894 374.685 161.806 367.671C162.719 360.658 163.175 353.879 163.175 323.784V227.065Z" fill="black"/>
</svg>
