<svg width="395" height="433" viewBox="0 0 395 433" fill="none" xmlns="http://www.w3.org/2000/svg">
<path d="M164.068 170.047L164.695 412.326C164.695 426.109 159.679 433 149.649 433C143.797 433 137.528 430.912 130.841 426.735C123.318 422.559 117.467 418.382 113.287 414.206C109.525 410.029 107.644 404.809 107.644 398.544C107.644 397.709 107.644 396.456 107.644 394.785C107.644 393.532 107.853 392.07 108.271 390.4C109.525 384.135 110.57 378.079 111.406 372.232C112.242 366.385 112.66 360.329 112.66 354.064V172.552L60.1849 179.837C56.8412 180.255 53.7064 180.464 50.7807 180.464C47.8551 180.464 45.3473 180.464 43.2576 180.464C33.2267 180.464 25.704 178.793 20.6886 175.452C13.1655 168.352 7.73209 160.417 4.38847 151.646C1.46281 142.458 0 137.237 0 135.984C0 130.972 2.50776 128.466 7.52318 128.466C8.77704 128.466 10.8663 128.884 13.792 129.719C17.1356 130.972 20.8976 131.807 25.0771 132.225C29.6745 132.643 34.063 132.852 38.2425 132.852H45.7657L112.66 124.94V41.9738C112.66 37.3796 112.242 33.2031 111.406 29.4443C110.57 25.2678 108.69 21.3001 105.764 17.5413C103.256 13.7824 102.002 10.6501 102.002 8.14417C102.002 2.71472 106.182 0 114.541 0C120.392 0 128.542 1.46178 138.991 4.38534C149.439 6.89123 156.127 9.81478 159.053 13.156C162.396 16.4972 164.068 21.0913 164.068 26.9384V122.434L306.636 106.023C315.831 105.605 323.981 104.143 331.086 101.638C332.34 100.802 334.221 100.385 336.729 100.385C342.162 100.385 348.013 102.473 354.283 106.649C360.552 110.826 365.985 115.838 370.583 121.685C375.598 127.114 378.106 132.126 378.106 136.72C378.106 140.897 376.016 144.238 371.837 146.744C368.075 149.25 363.478 150.711 358.044 151.129L164.068 170.047Z" fill="black"/>
<path d="M248.381 311.521H235.842C229.991 311.521 224.349 311.312 218.915 310.894C213.9 310.059 209.929 307.97 207.004 304.629C202.406 299.617 198.227 293.77 194.465 287.088C191.121 280.406 189.45 274.559 189.45 269.547C189.45 264.953 191.748 262.655 196.346 262.655C198.018 262.655 199.48 262.864 200.734 263.282C208.675 266.206 216.825 267.667 225.184 267.667H230.827L324.784 258.682C328.964 258.264 333.352 257.846 337.95 257.429C342.965 256.593 347.562 255.341 351.742 253.67C354.668 252.835 356.757 252.417 358.011 252.417C363.863 252.417 369.714 254.923 375.565 259.935C381.417 264.529 386.014 269.541 389.358 274.97C393.119 280.4 395 284.576 395 287.5C395 292.094 393.119 295.435 389.358 297.523C386.014 299.194 382.043 300.238 377.446 300.656L248.381 311.521Z" fill="black"/>
</svg>
