<svg width="396" height="433" viewBox="0 0 396 433" fill="none" xmlns="http://www.w3.org/2000/svg">
<path d="M163.951 170.047L164.578 412.326C164.578 426.109 159.566 433 149.542 433C143.695 433 137.431 430.912 130.748 426.735C123.23 422.559 117.383 418.382 113.207 414.206C109.448 410.029 107.568 404.809 107.568 398.544C107.568 397.709 107.568 396.456 107.568 394.785C107.568 393.532 107.777 392.07 108.195 390.4C109.448 384.135 110.492 378.079 111.327 372.232C112.162 366.385 112.58 360.329 112.58 354.064V172.552L60.1422 179.837C56.8009 180.255 53.6683 180.464 50.7447 180.464C47.8211 180.464 45.3151 180.464 43.2269 180.464C33.2031 180.464 25.6858 178.793 20.6739 175.452C13.1561 168.352 7.7266 160.417 4.38536 151.646C1.46177 142.458 0 137.237 0 135.984C0 130.972 2.50598 128.466 7.51785 128.466C8.77081 128.466 10.8586 128.884 13.7822 129.719C17.1235 130.972 20.8827 131.807 25.0593 132.225C29.6535 132.643 34.0388 132.852 38.2154 132.852H45.7332L112.58 124.94V41.9738C112.58 37.3796 112.162 33.2031 111.327 29.4443C110.492 25.2678 108.612 21.3001 105.689 17.5413C103.183 13.7824 101.93 10.6501 101.93 8.14417C101.93 2.71472 106.106 0 114.46 0C120.307 0 128.451 1.46178 138.892 4.38534C149.333 6.89123 156.016 9.81478 158.94 13.156C162.281 16.4972 163.951 21.0913 163.951 26.9384V122.434L306.419 106.023C315.607 105.605 323.751 104.143 330.851 101.638C332.104 100.802 333.984 100.385 336.49 100.385C341.919 100.385 347.766 102.473 354.031 106.649C360.296 110.826 365.726 115.838 370.32 121.685C375.332 127.114 377.838 132.126 377.838 136.72C377.838 140.897 375.75 144.238 371.573 146.744C367.814 149.25 363.22 150.711 357.79 151.129L163.951 170.047Z" fill="black"/>
<path d="M227.916 377H221.706C213.978 377 207.354 375.149 201.834 371.448C196.59 367.747 192.45 358.124 189.414 342.579C189.414 341.839 189.276 341.284 189 340.914C189 340.544 189 339.988 189 339.248C189 335.177 190.518 333.141 193.554 333.141C194.658 333.141 195.624 333.326 196.452 333.697C199.488 335.177 202.386 336.287 205.146 337.028C207.906 337.768 210.666 338.138 213.426 338.138H216.324L349.632 330.921C352.392 330.551 355.29 330.18 358.326 329.81C361.638 329.07 364.674 327.96 367.434 326.479C369.366 325.739 371.022 325.369 372.402 325.369C375.714 325.369 379.026 327.22 382.338 330.921C385.926 334.622 389.1 338.878 391.86 343.69C394.62 348.501 396 352.757 396 356.459C396 360.53 394.758 363.491 392.274 365.341C390.066 366.822 387.444 367.747 384.408 368.117L227.916 377ZM251.514 265.41C250.134 265.78 248.616 265.966 246.96 265.966C245.58 265.966 244.2 265.966 242.82 265.966C235.368 265.966 229.158 263.93 224.19 259.859C219.222 255.417 215.358 246.164 212.598 232.1C212.598 231.36 212.46 230.805 212.184 230.434C212.184 230.064 212.184 229.509 212.184 228.769C212.184 224.698 213.702 222.662 216.738 222.662C217.842 222.662 218.808 222.847 219.636 223.217C224.88 225.808 230.262 227.103 235.782 227.103H239.508L311.958 220.997C314.718 220.626 317.616 220.256 320.652 219.886C323.964 219.146 327 218.036 329.76 216.555C330.864 216.185 332.244 216 333.9 216C336.66 216 339.972 217.666 343.836 220.997C347.7 224.328 351.15 228.399 354.186 233.21C357.222 238.022 358.74 242.278 358.74 245.979C358.74 250.051 357.498 252.826 355.014 254.307C352.53 255.787 349.908 256.713 347.148 257.083L251.514 265.41Z" fill="black"/>
</svg>
