<svg width="247" height="440" viewBox="0 0 247 440" fill="none" xmlns="http://www.w3.org/2000/svg">
<path d="M5.21191 410.97C5.21191 406.006 5.95616 399.801 7.44531 392.356C9.43081 384.414 11.1686 228.335 12.6577 52.1199C12.6577 39.7104 9.43098 29.2865 2.97803 20.848C0.992501 16.8769 0 13.8986 0 11.9131C0 3.97104 4.71526 0 14.1465 0C21.0958 0 29.7825 2.23372 40.2065 6.70114C51.1269 11.1686 58.0764 15.1396 61.0547 18.6143C64.5294 21.5926 66.2666 26.3082 66.2666 32.7611L65.522 139.811C65.522 140.804 68.0039 141.3 72.9678 141.3C78.4279 141.3 97.787 151.228 131.044 171.083C207.983 216.253 246.453 244.795 246.453 256.708C246.453 263.658 243.226 271.103 236.773 279.046C230.817 286.988 225.108 290.959 219.648 290.959C214.188 290.959 207.983 288.477 201.034 283.513C153.381 246.284 108.211 215.757 65.522 191.931L64.0327 416.927C64.0327 431.818 58.5727 439.264 47.6523 439.264C36.732 439.264 26.8045 436.037 17.8696 429.584C9.43115 423.131 5.21191 416.927 5.21191 410.97Z" fill="black"/>
</svg>
