<svg width="386" height="288" viewBox="0 0 386 288" fill="none" xmlns="http://www.w3.org/2000/svg">
<path d="M67.7558 286.66C64.2812 286.66 60.8065 286.908 57.3319 287.404C53.8572 287.404 50.6307 287.404 47.6525 287.404C34.2502 287.404 24.0745 283.433 17.1251 275.491C10.6722 267.549 5.95653 259.855 2.97824 252.409L0 240.496C0 234.043 2.97817 230.817 8.93473 230.817C10.4239 230.817 11.6649 231.065 12.6577 231.562C14.1468 231.562 15.636 231.81 17.1251 232.306C27.5491 234.788 37.7248 236.029 47.6525 236.029H54.3536L300.062 224.86C306.019 224.364 311.479 223.868 316.443 223.371C321.406 222.378 326.618 220.889 332.078 218.904C334.064 218.407 336.546 218.159 339.524 218.159C344.488 218.159 350.445 220.393 357.394 224.86C364.84 229.328 371.293 234.788 376.753 241.241C382.709 247.694 385.688 253.402 385.688 258.366C385.688 263.826 383.206 267.549 378.242 269.535C373.278 271.52 368.066 272.761 362.606 273.257L67.7558 286.66ZM134.767 170.507C131.293 170.507 127.818 170.755 124.343 171.251C120.869 171.251 117.642 171.251 114.664 171.251C101.261 171.251 91.0858 167.528 84.1364 160.083C77.6835 152.637 73.2161 145.191 70.7342 137.746C68.2523 129.804 67.0113 125.336 67.0113 124.343C67.0113 118.387 69.9896 115.408 75.9462 115.408C77.4354 115.408 78.6762 115.657 79.669 116.153C81.1581 116.153 82.6473 116.401 84.1364 116.898C88.6039 117.89 93.3195 118.883 98.2833 119.876C103.247 120.372 108.459 120.62 113.919 120.62H120.62L222.627 114.664C229.08 114.168 234.788 113.671 239.752 113.175C244.716 112.182 249.679 110.693 254.643 108.707C256.629 108.211 259.111 107.963 262.089 107.963C266.556 107.963 272.265 110.445 279.214 115.408C286.163 119.876 292.616 125.088 298.573 131.044C305.026 137.001 308.252 142.709 308.252 148.17C308.252 154.126 305.77 157.849 300.806 159.338C295.843 160.331 290.383 161.075 284.426 161.572L134.767 170.507ZM108.707 66.2668C104.736 66.7632 101.013 67.0114 97.5388 67.0114C94.5605 67.0114 91.5822 67.0114 88.6039 67.0114C77.6835 67.0114 70.2378 65.274 66.2668 61.7994C62.2957 58.3247 56.8355 52.8645 49.8862 45.4188C43.4332 37.9731 40.2067 29.5346 40.2067 20.1034C40.2067 14.1468 43.1851 11.1686 49.1417 11.1686C50.6308 11.1686 51.8717 11.4168 52.8644 11.9132C54.3536 11.9132 55.8427 12.1613 57.3319 12.6577C61.7993 13.6504 66.515 14.6432 71.4788 15.636C76.4426 16.1324 81.6545 16.3805 87.1147 16.3805H93.8159L250.92 6.70114C257.373 6.20475 263.082 5.70835 268.045 5.21197C273.009 4.21921 277.973 2.73009 282.937 0.744561C284.922 0.248187 287.404 0 290.383 0C294.85 0 300.558 2.4819 307.508 7.4457C314.457 11.9131 320.91 17.1251 326.867 23.0817C333.319 29.0383 336.546 34.7466 336.546 40.2068C336.546 46.1634 334.064 49.8862 329.1 51.3754C324.136 52.3682 318.676 53.1127 312.72 53.6091L108.707 66.2668Z" fill="black"/>
</svg>
