<svg width="388" height="359" viewBox="0 0 388 359" fill="none" xmlns="http://www.w3.org/2000/svg">
<path d="M243.243 359C218.946 359 210.277 359 188.606 353.383C168.276 350.336 152.161 342.467 140.26 329.775C128.359 316.575 122.409 296.013 122.409 268.09L123.153 181.791L58.0151 193.998C53.0566 195.014 47.8501 195.521 42.3957 195.521C26.0324 195.521 12.6444 183.844 2.2314 160.491C0.74384 157.444 0 154.906 0 152.875C0 147.798 2.47925 144.752 7.43781 143.737L26.0324 144.498C34.4619 144.498 83.4845 136.861 123.153 127.722L123.897 48.7386C123.897 36.554 121.17 25.8924 115.715 16.7539C114.228 14.7231 113.484 11.9308 113.484 8.37693C113.484 2.79231 117.203 0 124.641 0C129.599 0 136.789 1.52307 146.21 4.56923C155.632 7.61541 162.822 10.9154 167.78 14.4693C173.234 18.0231 175.962 23.1001 175.962 29.7001L175.218 117.06C264.968 96.245 299.088 87.6365 303.551 85.098C308.509 82.0518 312.724 80.5287 316.195 80.5287C319.17 80.5287 323.633 82.3057 329.583 85.8595C345.946 98.5519 354.128 109.721 354.128 119.367C354.128 126.983 347.682 132.314 334.789 135.36L174.474 170.368L173.73 257.428C173.73 268.598 174.97 277.482 177.449 284.082C183.895 297.79 184.706 307.712 229.829 307.712C275.944 307.712 306.439 304.412 321.314 297.812C329.744 293.751 335.439 297.416 340.398 278.123C345.356 258.323 349.323 240.046 352.298 223.292C355.769 206.031 361.719 197.4 370.149 197.4C382.05 197.4 388 218.977 388 262.131C388 279.9 387.759 281.312 385.28 297.051C383.297 312.789 377.346 325.228 367.429 334.366C348.587 352.136 316.195 359 243.243 359Z" fill="black"/>
</svg>
