<svg width="411" height="225" viewBox="0 0 411 225" fill="none" xmlns="http://www.w3.org/2000/svg">
<path d="M410.873 182.637C410.873 189.09 408.143 194.55 402.683 199.018C397.719 203.485 392.507 206.96 387.047 209.442C381.586 211.923 378.112 213.164 376.623 213.164C370.17 213.164 364.461 209.193 359.497 201.251C345.599 179.411 307.956 132.818 292.568 111.474C277.18 90.1292 261.544 70.0258 245.66 51.1634C241.192 45.2068 238.959 39.9948 238.959 35.5274C238.959 31.5564 241.937 26.0962 247.893 19.1468C253.85 12.1975 260.055 8.72285 266.508 8.72285C271.472 8.72285 276.684 11.4529 282.144 16.9131C287.108 21.8769 293.809 29.5708 302.247 39.9948C311.182 49.9224 320.365 60.8428 329.796 72.7559C339.724 84.669 371.907 121.582 380.345 133.495C389.28 144.912 396.478 155.088 401.938 164.023C407.895 172.461 410.873 178.666 410.873 182.637ZM8.93488 224.926C2.9783 224.926 0 221.699 0 215.246C0 209.786 3.22649 202.34 9.67944 192.909C19.1107 179.507 28.7901 164.367 38.7177 147.49C48.6453 130.117 62.5801 104.24 70.5222 87.8593C78.9607 71.4788 85.1655 57.5801 89.1365 46.1634C92.6112 37.7249 94.3485 27.7973 94.3485 16.3805C94.3485 5.46017 98.8159 0 107.751 0C112.715 0 119.168 2.23372 127.11 6.70114C135.052 10.6722 142.249 15.8841 148.702 22.3371C155.155 28.2937 158.382 34.4984 158.382 40.9514C158.382 44.426 157.389 47.6525 155.403 50.6308C147.461 66.0186 137.037 83.1437 124.131 102.006C111.225 120.869 92.575 147.987 78.1799 165.36C63.7849 182.237 50.3826 196.384 37.9731 207.8C25.5636 219.217 15.8842 224.926 8.93488 224.926Z" fill="black"/>
</svg>
