<svg width="395" height="433" viewBox="0 0 395 433" fill="none" xmlns="http://www.w3.org/2000/svg">
<path d="M164.068 170.047L164.695 412.326C164.695 426.109 159.679 433 149.649 433C143.797 433 137.528 430.912 130.841 426.735C123.318 422.559 117.467 418.382 113.287 414.206C109.525 410.029 107.644 404.809 107.644 398.544C107.644 397.709 107.644 396.456 107.644 394.785C107.644 393.532 107.853 392.07 108.271 390.4C109.525 384.135 110.57 378.079 111.406 372.232C112.242 366.385 112.66 360.329 112.66 354.064V172.552L60.1849 179.837C56.8412 180.255 53.7064 180.464 50.7807 180.464C47.8551 180.464 45.3473 180.464 43.2576 180.464C33.2267 180.464 25.704 178.793 20.6886 175.452C13.1655 168.352 7.73209 160.417 4.38847 151.646C1.46281 142.458 0 137.237 0 135.984C0 130.972 2.50776 128.466 7.52318 128.466C8.77704 128.466 10.8663 128.884 13.792 129.719C17.1356 130.972 20.8976 131.807 25.0771 132.225C29.6745 132.643 34.063 132.852 38.2425 132.852H45.7657L112.66 124.94V41.9738C112.66 37.3796 112.242 33.2031 111.406 29.4443C110.57 25.2678 108.69 21.3001 105.764 17.5413C103.256 13.7824 102.002 10.6501 102.002 8.14417C102.002 2.71472 106.182 0 114.541 0C120.392 0 128.542 1.46178 138.991 4.38534C149.439 6.89123 156.127 9.81478 159.053 13.156C162.396 16.4972 164.068 21.0913 164.068 26.9384V122.434L306.636 106.023C315.831 105.605 323.981 104.143 331.086 101.638C332.34 100.802 334.221 100.385 336.729 100.385C342.162 100.385 348.013 102.473 354.283 106.649C360.552 110.826 365.985 115.838 370.583 121.685C375.598 127.114 378.106 132.126 378.106 136.72C378.106 140.897 376.016 144.238 371.837 146.744C368.075 149.25 363.478 150.711 358.044 151.129L164.068 170.047Z" fill="black"/>
<path d="M213.649 393.492C211.667 393.492 209.685 393.661 207.703 394C205.721 394 203.88 394 202.181 394C194.537 394 188.732 391.292 184.768 385.876C181.088 380.459 178.398 375.212 176.699 370.135L175 362.01C175 357.61 176.699 355.409 180.096 355.409C180.946 355.409 181.654 355.579 182.22 355.917C183.069 355.917 183.919 356.086 184.768 356.425C190.714 358.117 196.519 358.964 202.181 358.964H206.004L346.158 351.347C349.556 351.009 352.671 350.67 355.502 350.332C358.333 349.655 361.306 348.639 364.421 347.285C365.553 346.946 366.969 346.777 368.668 346.777C371.499 346.777 374.897 348.3 378.861 351.347C383.108 354.394 386.789 358.117 389.904 362.518C393.301 366.919 395 370.812 395 374.197C395 377.921 393.584 380.459 390.753 381.813C387.921 383.168 384.949 384.014 381.834 384.352L213.649 393.492ZM251.873 314.28C249.891 314.28 247.909 314.449 245.927 314.788C243.945 314.788 242.104 314.788 240.405 314.788C232.761 314.788 226.956 312.249 222.992 307.171C219.311 302.093 216.763 297.016 215.348 291.938C213.932 286.522 213.224 283.475 213.224 282.798C213.224 278.736 214.923 276.705 218.32 276.705C219.17 276.705 219.878 276.874 220.444 277.212C221.293 277.212 222.143 277.382 222.992 277.72C225.541 278.397 228.23 279.074 231.062 279.751C233.893 280.09 236.866 280.259 239.981 280.259H243.803L301.988 276.197C305.669 275.858 308.925 275.52 311.757 275.181C314.588 274.504 317.42 273.489 320.251 272.135C321.384 271.796 322.799 271.627 324.498 271.627C327.046 271.627 330.302 273.32 334.266 276.705C338.23 279.751 341.911 283.306 345.309 287.368C348.99 291.43 350.83 295.323 350.83 299.047C350.83 303.109 349.414 305.648 346.583 306.663C343.752 307.34 340.637 307.848 337.239 308.187L251.873 314.28ZM237.008 243.192C234.743 243.53 232.619 243.699 230.637 243.699C228.938 243.699 227.239 243.699 225.541 243.699C219.311 243.699 215.064 242.515 212.799 240.145C210.534 237.775 207.42 234.052 203.456 228.974C199.775 223.896 197.934 218.142 197.934 211.71C197.934 207.648 199.633 205.617 203.031 205.617C203.88 205.617 204.588 205.786 205.154 206.124C206.004 206.124 206.853 206.294 207.703 206.632C210.251 207.309 212.941 207.986 215.772 208.663C218.604 209.002 221.577 209.171 224.691 209.171H228.513L318.127 202.57C321.808 202.231 325.064 201.893 327.896 201.554C330.727 200.877 333.559 199.862 336.39 198.508C337.523 198.169 338.938 198 340.637 198C343.185 198 346.441 199.693 350.405 203.078C354.369 206.124 358.05 209.679 361.448 213.741C365.129 217.803 366.969 221.696 366.969 225.42C366.969 229.482 365.553 232.021 362.722 233.036C359.891 233.713 356.776 234.221 353.378 234.56L237.008 243.192Z" fill="black"/>
</svg>
