<svg width="381" height="340" viewBox="0 0 381 340" fill="none" xmlns="http://www.w3.org/2000/svg">
<path d="M330.492 38.4277L245.518 42.8831L244.497 130.552C244.497 139.092 245.113 144.29 246.345 146.146C247.577 148.002 250.657 149.302 255.585 150.044H261.128C268.52 150.044 268.286 149.302 274.035 147.817C279.784 145.96 283.89 144.661 286.354 143.918C287.176 143.547 287.997 143.361 288.818 143.361C290.05 142.99 291.282 142.804 292.514 142.804C295.799 142.804 299.7 144.104 304.217 146.703C308.734 148.931 312.84 152.086 316.536 156.17C318.589 158.769 320.232 161.183 321.464 163.411L330.492 38.4277ZM67.7551 298.231L68.371 321.065V323.849C68.371 334.616 63.854 340 54.82 340C50.7136 340 45.786 338.701 40.0371 336.102C32.235 333.131 26.6914 329.604 23.4063 325.52C20.1212 321.807 18.4787 317.723 18.4787 313.268C18.4787 312.154 18.4787 311.226 18.4787 310.483C18.8893 309.741 19.0946 309.184 19.0946 308.812C20.3265 301.015 20.9425 292.476 20.9425 283.194V272.055L12.9351 52.9077C12.5244 47.3385 11.4978 41.5836 9.85529 35.6431C8.21274 29.3313 6.15955 23.9477 3.69573 19.4923C1.23192 14.2944 0 10.7672 0 8.91076C0 3.71281 3.49041 1.11382 10.4712 1.11382C17.8627 1.11382 32.8509 5.56922 55.436 14.48L343.427 0.556921C344.248 0.556921 345.069 0.556921 345.891 0.556921C347.123 0.185644 348.354 0 349.586 0C354.925 0 361.495 2.59897 369.297 7.79692C377.099 12.6236 381 18.1928 381 24.5046C381 27.4749 380.384 30.0738 379.152 32.3015C378.331 34.158 377.715 35.8287 377.304 37.3138L357.594 253.677C369.092 266.672 374.84 275.768 374.84 280.966C374.84 285.793 372.377 288.577 367.449 289.32C362.932 289.691 357.594 290.063 351.434 290.434L67.7551 298.231ZM320.848 173.992C318.795 176.591 315.509 178.819 310.992 180.675C303.601 183.645 294.978 185.687 285.122 186.801C275.267 187.915 266.028 188.472 257.404 188.472C249.014 188.472 236.695 187.358 227.251 185.131C218.217 182.532 211.646 177.705 207.54 170.651C203.434 163.225 201.38 152.643 201.38 138.906V135.564L202.401 44.5538L171.659 46.7815C167.659 88.0109 162.512 89.3323 153.585 124.393C144.333 160.736 120.94 183.254 88.9102 207.016C80.2868 212.957 73.7166 215.927 69.1996 215.927C63.8613 215.927 61.1922 213.514 61.1922 208.687C61.1922 204.603 64.0666 199.219 69.8156 192.536C87.0623 173.601 100.596 160.272 106.773 139.43C115.175 119.973 116.147 113.488 122.383 89.8031C124.436 66.041 125.463 73.6995 125.463 48.4523L57.8998 51.7938L66.5232 259.803L313.861 252.563L320.848 173.992Z" fill="black"/>
</svg>
