<svg width="430" height="426" viewBox="0 0 430 426" fill="none" xmlns="http://www.w3.org/2000/svg">
<path d="M307.89 337.082C307.89 339.97 308.883 342.859 310.868 345.747C313.35 348.058 321.292 349.213 334.695 349.213C349.586 349.213 360.506 347.769 367.456 344.88C374.901 341.414 380.61 333.616 384.581 321.484C389.048 308.775 393.268 287.978 397.239 259.094C400.714 233.675 406.422 220.966 414.364 220.966C423.795 220.966 428.759 234.831 429.255 262.56C429.255 266.026 429.255 270.07 429.255 274.691C429.752 279.313 430 284.512 430 290.289C430 313.396 429.256 332.749 427.766 348.347C426.774 363.944 423.051 376.365 416.598 385.608C410.145 394.851 399.969 401.205 386.07 404.671C372.171 408.137 352.813 409.871 327.993 409.871C305.16 409.871 288.283 406.404 277.362 399.472C266.442 391.962 259.492 383.297 256.514 373.476C254.032 363.078 252.791 354.412 252.791 347.48C252.791 345.747 252.791 344.014 252.791 342.281C253.288 340.548 253.536 338.815 253.536 337.082L265.449 181.972L210.182 189.771C206.707 206.524 201.744 224.143 195.291 242.63C189.334 261.116 187.136 269.446 178.698 285.622C168.274 306.418 154.871 325.482 138.491 342.813C122.606 359.566 105.978 374.297 88.6042 387.006C71.7272 399.137 56.0911 408.669 41.696 415.602C27.7973 422.534 17.6215 426 11.1685 426C3.72277 426 0 422.534 0 415.602C0 412.136 1.48902 408.092 4.46731 403.47C7.94199 398.271 13.154 393.649 20.1034 389.606C54.3538 364.765 80.6622 339.924 99.0283 315.084C117.891 289.665 131.541 265.402 139.98 242.295C148.915 218.61 150.12 209.124 153.594 195.837L117.11 199.303C111.65 199.88 106.686 200.458 102.219 201.036C97.7511 201.614 93.5318 201.902 89.5608 201.902C80.1295 201.902 72.1875 198.725 65.7345 192.371C59.2815 186.016 54.566 179.084 51.5877 171.574C48.6094 164.064 46.6236 158.865 45.6309 155.976C44.6381 154.243 44.1418 151.932 44.1418 149.044C44.1418 142.112 47.1201 138.645 53.0767 138.645C54.5659 138.645 57.0479 139.223 60.5225 140.378C65.4864 142.689 70.4501 144.133 75.414 144.711C80.3778 145.289 84.8453 145.578 88.8164 145.578H95.5173L164.018 137.779C165.508 125.07 166.748 112.072 167.741 98.7849C168.734 84.9203 169.23 73.0777 169.23 63.257C169.23 53.4363 168.734 45.9263 167.741 40.7271C167.245 34.9502 165.756 28.3068 163.274 20.7969C162.777 19.0638 162.529 16.4642 162.529 12.998C162.529 4.33268 166.748 0 175.187 0C176.676 0 181.392 1.44423 189.334 4.33267C197.772 6.64343 206.211 10.9761 214.649 17.3307C223.584 23.6853 228.052 31.7729 228.052 41.5937V44.1932C227.555 57.4801 226.563 72.5 225.073 89.253C223.584 105.428 221.847 119.871 219.861 132.58L284.808 124.781H290.765C301.189 124.781 308.883 127.669 313.846 133.446C319.307 138.645 322.781 143.845 324.27 149.044L326.504 157.709C326.504 163.486 325.511 168.396 323.526 172.44C322.037 175.906 321.044 179.373 320.548 182.839L307.89 331.883V337.082Z" fill="black"/>
</svg>
