<svg width="397" height="435" viewBox="0 0 397 435" fill="none" xmlns="http://www.w3.org/2000/svg">
<path d="M19.3331 272.33C18.622 272.33 14.3122 271.032 10.8 272.33C2.1354 275.533 1.5 277.5 0.5 283.5C1.21111 291.329 0.5 288.727 5.46638 295.562C11.1551 303.391 16.8445 309.797 22.5333 314.779L27.8662 319.05C32.8439 322.609 43.51 324.388 59.8652 324.388H70.5318C74.0873 324.388 78.3542 324.032 83.3318 323.321L161.797 317.982V371.537C161.086 375.808 160.019 379.722 158.597 383.281C157.886 386.128 157.53 388.975 157.53 391.822V397.16C157.53 405.702 159.664 412.819 163.93 418.513C168.908 424.207 176.374 429.545 186.329 434.528C232.615 438.046 223.528 421.004 223.528 413.175V313.712L367.134 301.968C387.044 299.833 397 293.427 397 289.75C397 281.921 393.444 279.804 386.333 273.398C379.934 266.992 372.467 261.654 363.934 257.383C356.112 252.401 349.357 249.91 343.668 249.91C340.112 249.91 337.268 250.266 335.135 250.977C330.868 252.401 325.89 253.469 320.201 254.18L303.135 256.316L223.528 263.789V177.071L234.195 176.003C244.861 174.579 263.95 173.512 277.461 172.8C291.682 172.088 304.127 171.376 314.793 170.665L330.793 169.597C350.703 167.462 360.659 165.056 360.659 154.38C360.659 146.55 358.142 138.756 343.668 130.215C329.194 121.674 319.415 120.607 307.327 120.607C303.771 120.607 300.927 120.962 298.794 121.674C294.527 123.098 289.549 124.165 283.86 124.877L266.794 127.012L223.528 130.215V102.15L224.595 44.8407C224.595 35.5878 222.462 28.4703 218.195 23.488C214.64 18.5057 202.5 9.5 191 5C191 5 179.219 0 169.263 0C156.464 0 150.064 4.98229 150.064 14.9469C150.064 19.9292 151.842 24.5556 155.397 28.8262C162.508 40.926 166.063 54.0936 166.063 68.3287L164.997 105.353V134.486H169.263C165.708 134.486 159.308 134.842 150.064 135.553C140.819 136.265 123.286 136.621 115.464 136.621L103.731 137.689H93.0651C81.6875 137.689 72.0876 136.621 64.2656 134.486C61.4212 133.774 58.2212 133.418 54.6657 133.418C46.8437 133.418 42.9325 137.333 42.9325 145.162C42.9325 150.145 45.0656 147.262 49.3321 156.515C54.3098 165.768 62.1323 170.309 72.7987 178.138C77.7763 181.697 88.0869 183.476 103.731 183.476H114.398C118.664 182.765 122.931 182.409 127.198 182.409L164.997 180.273V268.06L58.7992 275.533H48.1326C36.7551 275.533 27.1552 274.465 19.3331 272.33Z" fill="black"/>
</svg>
