<svg width="650" height="678" viewBox="0 0 650 678" fill="none" xmlns="http://www.w3.org/2000/svg">
<path d="M502.697 62.7744L73.4502 87.6111C70.3452 87.6111 67.2402 87.8698 64.1352 88.3872H54.8202C41.8832 88.3872 32.8282 85.8001 27.653 80.6258C20.9258 74.4166 15.751 66.3964 12.1287 56.5652C9.02379 46.2165 7.47139 40.5248 7.47139 39.4899C7.47139 33.7981 10.5762 30.9523 16.7859 30.9523C17.8209 30.9523 18.5971 31.211 19.1146 31.7284H21.4433C30.2402 33.2807 39.5552 34.0569 49.3872 34.0569H57.9252L573.147 6.13813C578.839 6.13813 587.895 4.58584 600.314 1.48122C601.867 0.963802 603.937 0.705078 606.524 0.705078C611.699 0.705078 617.65 2.7748 624.377 6.91427C631.104 11.0538 637.055 16.2281 642.23 22.4373C647.405 28.129 649.992 33.8208 649.992 39.5125C649.992 49.3438 642.489 54.7768 627.482 55.8117L563.242 60.4459L562.732 178.542C562.732 184.233 562.991 189.408 563.508 194.065C564.543 199.239 565.061 204.154 565.061 208.811C565.061 223.299 560.145 233.907 550.313 240.633C540.998 247.877 531.942 251.499 523.145 251.499C517.453 251.499 508.138 248.654 495.201 242.962C485.277 236.811 460.257 221.175 448.486 205.338C448.486 198.611 453.144 195.248 462.458 195.248C467.115 195.248 497.013 194.725 502.187 196.795L502.697 62.7744Z" fill="black"/>
<path d="M115.138 224.852C112.033 221.23 110.481 217.349 110.481 213.21C110.481 208.036 111.516 204.672 113.586 203.12L72.1182 206.225C49.3492 206.225 34.3422 191.736 27.0973 162.76C27.0973 157.069 31.2372 154.223 39.5172 154.223C50.9012 156.292 61.2512 157.327 70.5652 157.327C75.7402 157.327 128.334 153.705 280.472 146.461H279.696C252.787 136.113 230.536 128.868 212.942 124.729C201.557 121.624 195.865 116.45 195.865 109.206C195.865 104.549 198.452 98.8571 203.627 92.1305C209.319 84.8864 215.012 81.2644 220.704 81.2644C224.326 81.2644 238.815 84.6277 264.172 91.3543C296.773 100.668 313.074 110.241 313.074 120.072C313.074 125.246 311.78 129.903 309.193 134.043C307.123 139.735 304.276 143.615 300.654 145.685C337.395 144.133 342.572 143.364 387.075 141.294C398.46 140.777 409.585 138.449 420.452 134.309C422.522 133.792 425.11 133.533 428.215 133.533C436.494 133.533 445.809 137.931 456.158 146.727C466.508 155.006 471.683 162.509 471.683 169.236C471.683 178.032 465.473 183.206 453.053 184.759L368.961 189.925C383.968 197.17 391.471 205.707 391.471 215.538C391.471 221.538 376.556 243.554 363.101 259.763L528.595 253.51H536.358C546.707 253.51 555.246 257.39 561.973 265.152C568.7 272.396 572.064 278.605 572.064 283.779C572.064 286.884 571.546 289.989 570.511 293.093C569.476 295.68 568.7 298.785 568.183 302.407L562.749 610.957V626.48C563.267 630.102 563.525 633.465 563.525 636.569C563.525 649.505 558.609 659.595 548.777 666.839C539.463 674.083 531.442 677.705 524.714 677.705C521.61 677.705 515.4 675.377 506.085 670.72C497.288 666.063 487.456 660.113 476.589 652.869C465.722 645.625 454.855 638.122 443.988 630.36C433.638 622.599 424.841 614.837 417.597 607.076C410.352 599.314 406.729 593.105 406.729 588.448C406.729 583.93 409.042 581.818 410.245 581.101C412.67 579.656 414.936 579.135 418.373 579.135C422.513 579.135 428.722 580.687 437.002 583.791C448.904 588.966 461.582 594.14 475.037 599.314C488.491 603.971 498.84 607.335 506.085 609.404L512.295 303.183L65.1942 322.587H29.7032C14.5872 322.587 10.8592 310.945 9.30679 303.183C8.27189 295.422 6.20188 287.919 3.09708 280.675C1.02718 276.535 -0.0078125 272.655 -0.0078125 269.033C-0.0078125 262.306 3.87329 258.943 11.6354 258.943C19.3976 258.943 35.9572 264.117 61.3132 274.466L145.624 269.516C132.902 252.009 117.23 226.943 115.138 224.852ZM327.046 192.254L164.04 200.792C162.068 200.828 160.672 200.71 159.951 201.534C159.27 202.313 162.488 205.707 170.25 213.986C178.529 222.265 186.809 232.096 195.089 243.48C203.091 253.364 207.454 261.108 208.177 266.711L298.431 262.663C307.228 249.72 317.924 233.393 320.836 226.404C326.528 213.986 329.493 201.901 329.493 192.07L327.046 192.254Z" fill="black"/>
</svg>
