<svg width="663" height="713" viewBox="0 0 663 713" fill="none" xmlns="http://www.w3.org/2000/svg">
<path d="M299.096 268.902L614.235 248.406H621.681C634.587 248.406 644.514 252.391 651.464 260.36C658.91 267.832 662.632 274.307 662.632 279.786C662.632 282.774 662.136 285.763 661.143 288.751C660.15 291.241 659.654 294.23 659.654 297.717C656.179 366.95 651.96 424.976 646.996 471.796C642.529 518.616 637.565 556.47 632.105 585.359C627.141 613.749 621.929 635.665 616.469 651.106C611.505 666.546 607.286 677.006 603.811 682.485C600.833 688.462 598.599 691.948 597.11 692.944C585.197 705.895 573.532 712.37 562.115 712.37C555.662 712.37 546.231 709.63 533.821 704.151C521.908 699.17 509.251 692.696 495.848 684.726C482.446 676.757 469.54 668.289 457.131 659.324C444.721 650.857 434.297 642.638 425.859 634.669C417.42 626.7 413.201 619.975 413.201 614.497C413.201 608.52 416.676 605.531 423.625 605.531C430.078 605.531 439.261 608.52 451.174 614.497C475.993 626.451 510.74 638.404 555.414 650.358H556.903C557.896 648.366 560.626 639.401 565.093 623.462C570.057 604.535 575.269 578.137 580.729 544.267C586.19 510.397 590.905 472.045 594.876 429.21C599.344 385.877 602.074 342.295 603.067 298.464L224.788 317.849C223.288 318.402 197.788 330.376 193.885 331.553C184.79 334.295 175.901 336.809 167.219 339.094C158.951 340.922 152.13 341.836 146.755 341.836C137.247 341.836 132.492 338.637 132.492 332.238C132.492 325.84 138.28 320.127 149.856 315.1C175.488 304.131 201.327 291.105 208.372 283.767C218.288 277.517 242.788 259.265 251.966 250.424C259.821 244.025 264.989 236.484 267.47 227.801C269.537 221.859 277.27 210.039 282.645 210.039C287.606 210.039 292.773 213.01 298.148 218.951C303.936 224.436 308.69 230.606 312.411 237.461C316.132 243.859 319.992 250.424 317.992 253.914C315.654 257.995 312.411 257.388 299.096 268.902Z" fill="black"/>
<path d="M190.738 284.546C179.321 284.546 169.89 281.558 162.444 275.581C155.495 269.604 152.02 262.382 152.02 253.914C154.005 239.968 154.998 229.757 154.998 223.282C152.02 188.396 144.085 167.696 138.128 155.244C134.157 147.275 132.172 141.547 132.172 138.06C132.172 132.083 136.639 129.095 145.574 129.095C151.531 129.095 166.422 134.325 190.248 144.784L352.761 126.854C381.551 126.854 397.187 135.57 399.669 153.003C399.669 156.987 398.925 160.225 397.436 162.715C395.946 164.708 395.202 165.953 395.202 166.451L377.821 241.96C377.821 253.914 372.609 259.891 362.185 259.891C350.769 259.891 341.834 256.405 335.381 249.431C328.928 242.458 325.701 235.485 325.701 228.512V224.776C328.68 213.819 330.665 205.351 331.658 199.374L342.337 170.187L194.716 186.623L204.14 222.535L206.374 264.374C206.374 277.822 201.162 284.546 190.738 284.546Z" fill="black"/>
<path d="M103.488 108.816C98.0273 125.197 91.3262 142.818 83.3841 161.681C75.442 180.047 67.2517 197.172 58.8133 213.056C54.8422 221.495 47.8929 225.714 37.9653 225.714C31.5123 225.714 23.5703 222.736 14.139 216.779C4.7078 210.326 -0.0078125 203.377 -0.0078125 195.931C-0.0078125 192.953 1.48133 188.485 4.45961 182.529C13.3945 167.141 21.8329 150.016 29.775 131.153C38.2135 111.795 45.9074 92.1875 52.8567 72.3323C60.3024 51.9807 66.5072 33.1182 71.471 15.7449C73.9529 5.8173 79.6613 0.853516 88.5961 0.853516C97.531 0.853516 106.466 3.08723 115.401 7.55466C124.336 11.5257 128.803 17.4822 128.803 25.4243C128.803 27.9062 128.307 31.1327 127.314 35.1038C126.817 39.0748 125.328 44.535 122.846 51.4843L594.904 23.9352H600.861C615.752 23.9352 626.673 26.4171 633.622 31.3809C641.068 36.3447 646.031 41.8049 648.513 47.7615L651.492 55.2072C651.492 61.1637 649.506 66.3757 645.535 70.8432C642.06 74.8142 639.082 78.537 636.6 82.0117C613.27 119.737 591.43 149.271 571.078 170.616C550.726 191.464 536.579 201.888 528.637 201.888C522.681 201.888 519.703 198.413 519.703 191.464C519.703 185.507 522.929 176.076 529.382 163.17C536.828 149.271 544.025 134.876 550.975 119.985C557.924 105.093 562.888 93.1803 565.866 84.2454L103.488 108.816Z" fill="black"/>
</svg>
