<svg width="654" height="583" viewBox="0 0 654 583" fill="none" xmlns="http://www.w3.org/2000/svg">
<path d="M233.823 157.398L573.129 137.177L585.436 56.2952L239.097 77.3948C237.925 103.183 236.167 129.851 233.823 157.398ZM12.3065 582.029C4.10215 582.029 0 577.927 0 569.721C0 562.688 4.39516 555.655 13.1855 548.621C124.53 440.779 180.202 285.168 180.202 81.7906C180.202 60.1048 176.392 39.8843 168.774 21.129L167.895 14.0957C167.895 6.47644 173.462 2.66678 184.597 2.66678C192.801 2.66678 210.968 9.99307 239.097 24.6456L604.774 0.0292969C617.081 0.0292969 628.215 4.132 638.177 12.3374C648.726 19.9568 654 26.697 654 32.558C654 38.419 652.828 42.8148 650.484 45.7453C648.726 48.6758 641.987 79.7393 630.266 138.936C644.917 151.83 652.242 161.794 652.242 168.827C652.242 177.032 649.312 182.307 643.452 184.652C638.177 186.996 502.22 195.495 235.581 210.147C227.376 317.99 192.508 408.836 130.976 482.685C97.5726 524.298 66.2204 553.896 36.9194 571.479C25.7849 578.513 17.5806 582.029 12.3065 582.029Z" fill="black"/>
</svg>
