<svg width="564" height="585" viewBox="0 0 564 585" fill="none" xmlns="http://www.w3.org/2000/svg">
<path d="M154.968 125.549C135.596 150.78 115.729 173.29 95.3639 193.078C74.9993 212.372 57.1182 227.461 41.7206 238.345C26.8197 249.229 16.1407 254.67 9.68367 254.67C3.2266 254.67 -0.00195312 251.207 -0.00195312 244.281C-0.00195312 238.345 4.71668 230.677 14.1539 221.277C37.002 197.531 59.8501 170.074 82.6982 138.907C105.546 107.245 124.669 76.3251 140.067 46.1474C141.06 43.1791 142.054 39.7161 143.047 35.7584C144.04 31.3059 144.537 26.3588 144.537 20.9169V15.7224C144.537 5.82804 149.007 0.880859 157.948 0.880859C164.405 0.880859 171.359 3.60181 178.809 9.04371C186.26 14.4856 192.717 20.4222 198.18 26.8535C204.141 33.2848 207.121 38.9741 207.121 43.9212C207.121 47.3842 201.657 57.5259 190.73 74.3463L515.57 55.0523H523.02C535.935 55.0523 545.869 59.0101 552.822 66.9255C560.273 74.3463 563.998 80.7776 563.998 86.2195C563.998 89.1878 563.501 92.1561 562.508 95.1244C561.514 97.5979 561.018 100.566 561.018 104.029C557.541 172.795 553.319 230.429 548.352 276.933C543.882 323.436 531.915 430.035 526.451 458.728C521.484 486.927 516.269 508.694 510.805 524.031C505.838 539.367 501.616 549.756 498.139 555.198C495.159 561.134 492.924 564.597 491.434 565.587C479.513 578.45 467.841 584.881 456.417 584.881C449.96 584.881 440.522 582.16 428.105 576.718C416.184 571.771 403.519 565.34 390.108 557.424C376.697 549.509 363.783 541.098 351.365 532.194C338.948 523.783 328.517 515.62 320.073 507.705C311.629 499.79 307.408 493.111 307.408 487.669C307.408 481.732 310.884 478.764 317.838 478.764C324.295 478.764 333.484 481.732 345.405 487.669C370.24 499.542 405.009 511.415 449.711 523.289C450.705 523.289 451.202 523.289 451.202 523.289C452.195 521.31 454.927 512.405 459.397 496.574C464.364 477.775 469.579 451.555 475.043 417.914C480.507 384.273 492.225 277.18 496.199 234.634C500.669 191.594 503.401 148.306 504.394 104.771L154.968 125.549Z" fill="black"/>
</svg>
