<svg width="518" height="427" viewBox="0 0 518 427" fill="none" xmlns="http://www.w3.org/2000/svg">
<path d="M12.6538 64.4745C12.6538 55.0433 11.9092 47.1012 10.4201 40.6482C8.93094 33.6989 5.95266 25.7568 1.48524 16.822C0.492482 13.3473 -0.00390625 11.1136 -0.00390625 10.1208C-0.00390625 3.66788 4.71172 0.441406 14.1429 0.441406C18.6104 0.441406 25.3115 1.43417 34.2464 3.41969C43.1812 5.40522 51.8679 8.63169 60.3063 13.0991C68.7448 17.0702 72.964 23.2749 72.964 31.7134L71.9423 280.244C71.9423 296.624 73.1833 310.275 75.6652 321.195C78.6435 331.619 85.0964 340.306 95.024 347.255C105.448 353.708 122.325 358.672 145.655 362.147C168.985 365.125 201.498 366.614 243.194 366.614C269.005 366.614 295.065 365.87 321.374 364.38C348.178 362.395 373.494 359.665 397.32 356.19C414.197 353.212 426.854 350.234 435.293 347.255C443.731 343.781 449.688 339.065 453.163 333.108C457.134 326.655 459.147 323.218 463.647 312.218C467.618 294.844 468.543 294.061 471.521 277.184C474.5 260.307 476.733 243.43 478.223 226.553C481.201 200.741 487.157 187.835 496.092 187.835C503.042 187.835 507.757 193.296 510.239 204.216C512.721 214.64 514.458 226.305 515.451 239.211C516.444 252.117 516.94 264.03 516.94 274.95C517.437 285.871 517.685 292.82 517.685 295.798C517.685 328.559 518.611 331.859 513.647 351.218C509.18 370.577 497.092 384.732 482.201 394.163C467.806 404.091 445.717 411.04 415.934 415.011C387.64 418.486 358.602 421.216 328.819 423.201C299.036 425.187 270.246 426.18 242.449 426.18C199.264 426.18 163.028 424.691 133.742 421.712C104.455 418.734 80.629 412.529 62.2629 403.098C44.3932 394.163 31.4873 381.009 23.5452 363.636C15.6031 345.766 11.6321 322.436 11.6321 293.646L12.6538 64.4745Z" fill="black"/>
</svg>
